%TF.GenerationSoftware,KiCad,Pcbnew,10.0.3*%
%TF.CreationDate,2026-06-19T22:09:56-04:00*%
%TF.ProjectId,drspad,64727370-6164-42e6-9b69-6361645f7063,rev?*%
%TF.SameCoordinates,Original*%
%TF.FileFunction,Legend,Bot*%
%TF.FilePolarity,Positive*%
%FSLAX46Y46*%
G04 Gerber Fmt 4.6, Leading zero omitted, Abs format (unit mm)*
G04 Created by KiCad (PCBNEW 10.0.3) date 2026-06-19 22:09:56*
%MOMM*%
%LPD*%
G01*
G04 APERTURE LIST*
%ADD10C,0.462898*%
%ADD11C,0.500000*%
%ADD12C,0.250000*%
%ADD13C,0.750000*%
G04 APERTURE END LIST*
D10*
X93409204Y-137410444D02*
X93413315Y-137122842D01*
X93413315Y-137122842D02*
G75*
G02*
X93432653Y-136995842I525585J-15058D01*
G01*
X93414618Y-137608634D02*
X93409204Y-137410444D01*
X93431426Y-137771505D02*
G75*
G02*
X93414618Y-137608634I1683174J256005D01*
G01*
X93432648Y-136995841D02*
G75*
G02*
X93474696Y-136941152I89052J-24959D01*
G01*
X93448109Y-110915141D02*
X97614201Y-110915141D01*
X93455394Y-137893227D02*
X93431426Y-137771505D01*
X93474709Y-136941174D02*
G75*
G02*
X93544224Y-136929082I50791J-86126D01*
G01*
X93486353Y-137917577D02*
G75*
G02*
X93455423Y-137893220I47J31877D01*
G01*
X93516628Y-137896483D02*
G75*
G02*
X93486353Y-137917624I-30328J11183D01*
G01*
X93542107Y-137809928D02*
G75*
G02*
X93516623Y-137896481I-652307J145028D01*
G01*
X93544220Y-136929102D02*
G75*
G02*
X93605812Y-136961028I-22820J-119398D01*
G01*
X93560585Y-137691576D02*
G75*
G02*
X93542109Y-137809928I-935185J85376D01*
G01*
X93567814Y-137551113D02*
X93560585Y-137691576D01*
X93572122Y-137184653D02*
X93567814Y-137551113D01*
X93605818Y-136961022D02*
G75*
G02*
X93673142Y-137039603I-378818J-392678D01*
G01*
X93673136Y-137039607D02*
G75*
G02*
X93737941Y-137149751I-641536J-451593D01*
G01*
X93711445Y-137528269D02*
X93572122Y-137184653D01*
X93737939Y-137149752D02*
G75*
G02*
X93792575Y-137281930I-1103339J-533448D01*
G01*
X93770649Y-137661819D02*
X93711445Y-137528269D01*
X93792571Y-137281931D02*
X93839647Y-137407267D01*
X93833369Y-137778792D02*
X93770649Y-137661819D01*
X93839647Y-137407267D02*
X93887375Y-137512908D01*
X93887375Y-137512908D02*
X93931348Y-137594662D01*
X93892079Y-137869692D02*
X93833369Y-137778792D01*
X93930867Y-137898591D02*
G75*
G02*
X93892063Y-137869703I24333J73191D01*
G01*
X93956134Y-137608979D02*
G75*
G02*
X93931337Y-137594668I-34J28579D01*
G01*
X93969123Y-137888581D02*
G75*
G02*
X93930865Y-137898597I-26823J24381D01*
G01*
X93980150Y-137594070D02*
G75*
G02*
X93956134Y-137609020I-24050J11870D01*
G01*
X93980150Y-137594070D02*
X94020153Y-137506996D01*
X94020153Y-137506996D02*
X94062663Y-137394863D01*
X94021915Y-137819994D02*
G75*
G02*
X93969123Y-137888581I-446015J288694D01*
G01*
X94062663Y-137394863D02*
X94103553Y-137261804D01*
X94077549Y-137718751D02*
G75*
G02*
X94021916Y-137819995I-730049J335251D01*
G01*
X94103553Y-137261804D02*
X94157051Y-137097303D01*
X94128318Y-137593547D02*
G75*
G02*
X94077549Y-137718751I-1409018J498447D01*
G01*
X94157051Y-137097303D02*
G75*
G02*
X94211424Y-136993322I437749J-162697D01*
G01*
X94211424Y-136993322D02*
G75*
G02*
X94272515Y-136935343I170976J-118978D01*
G01*
X94245670Y-137261804D02*
X94128318Y-137593547D01*
X94251762Y-137589688D02*
X94245670Y-137261804D01*
X94260514Y-137744777D02*
X94251762Y-137589688D01*
X94272504Y-136935324D02*
G75*
G02*
X94345030Y-136914636I72496J-116676D01*
G01*
X94282912Y-137842626D02*
G75*
G02*
X94260524Y-137744776I361188J134126D01*
G01*
X94320235Y-137897260D02*
G75*
G02*
X94282906Y-137842628I91165J102360D01*
G01*
X94345030Y-136914626D02*
G75*
G02*
X94420233Y-136938636I-30J-129874D01*
G01*
X94373575Y-137917577D02*
G75*
G02*
X94320246Y-137897247I25J80177D01*
G01*
X94420251Y-136938610D02*
G75*
G02*
X94464444Y-137000962I-66951J-94290D01*
G01*
X94429870Y-137889962D02*
G75*
G02*
X94373575Y-137917562I-56270J43562D01*
G01*
X94464462Y-137000957D02*
G75*
G02*
X94484830Y-137130799I-508862J-146343D01*
G01*
X94465563Y-137814711D02*
G75*
G02*
X94429877Y-137889967I-189163J43611D01*
G01*
X94484468Y-137672575D02*
G75*
G02*
X94465556Y-137814709I-759068J28675D01*
G01*
X94484841Y-137130799D02*
X94489304Y-137416105D01*
X94489304Y-137416105D02*
X94484468Y-137672575D01*
X94566453Y-136991777D02*
G75*
G02*
X94588992Y-136961641I31447J-23D01*
G01*
X94578136Y-137021239D02*
G75*
G02*
X94566457Y-136991777I31264J29439D01*
G01*
X94588982Y-136961608D02*
G75*
G02*
X94691096Y-136937291I275918J-932092D01*
G01*
X94611778Y-137046265D02*
G75*
G02*
X94578143Y-137021233I53622J107165D01*
G01*
X94661698Y-137063244D02*
G75*
G02*
X94611779Y-137046264I37102J190944D01*
G01*
X94691096Y-136937291D02*
G75*
G02*
X94828117Y-136920194I221704J-1219209D01*
G01*
X94720750Y-137068928D02*
G75*
G02*
X94661699Y-137063237I50J309728D01*
G01*
X94720750Y-137068928D02*
G75*
G02*
X94802072Y-137088484I-50J-179072D01*
G01*
X94802081Y-137088467D02*
G75*
G02*
X94848746Y-137141258I-43681J-85633D01*
G01*
X94828117Y-136920195D02*
X94990774Y-136914626D01*
X94848746Y-137141258D02*
G75*
G02*
X94870297Y-137250991I-340946J-123942D01*
G01*
X94875046Y-137493251D02*
X94870305Y-137250991D01*
X94880191Y-137705250D02*
X94875046Y-137493251D01*
X94899598Y-137827568D02*
G75*
G02*
X94880194Y-137705250I549502J149868D01*
G01*
X94935571Y-137893137D02*
G75*
G02*
X94899597Y-137827568I118629J107737D01*
G01*
X94990774Y-136914626D02*
X95153433Y-136920195D01*
X94990774Y-137917577D02*
G75*
G02*
X94935582Y-137893127I26J74577D01*
G01*
X95045979Y-137893137D02*
G75*
G02*
X94990774Y-137917555I-55179J50137D01*
G01*
X95081953Y-137827568D02*
G75*
G02*
X95045971Y-137893130I-154553J42168D01*
G01*
X95101360Y-137705250D02*
G75*
G02*
X95081950Y-137827567I-569360J27650D01*
G01*
X95106501Y-137493251D02*
X95101360Y-137705250D01*
X95111247Y-137250991D02*
X95106501Y-137493251D01*
X95111247Y-137250991D02*
G75*
G02*
X95132795Y-137141257I362553J-14209D01*
G01*
X95132798Y-137141258D02*
G75*
G02*
X95179481Y-137088482I90302J-32842D01*
G01*
X95153433Y-136920195D02*
G75*
G02*
X95290457Y-136937288I-84733J-1237005D01*
G01*
X95179473Y-137088467D02*
G75*
G02*
X95260800Y-137068922I81327J-159433D01*
G01*
X95290456Y-136937291D02*
G75*
G02*
X95392568Y-136961605I-174256J-958409D01*
G01*
X95319852Y-137063244D02*
G75*
G02*
X95260800Y-137068933I-59052J303644D01*
G01*
X95369774Y-137046265D02*
G75*
G02*
X95319855Y-137063258I-87174J174265D01*
G01*
X95392567Y-136961608D02*
G75*
G02*
X95415095Y-136991777I-8967J-30192D01*
G01*
X95403411Y-137021239D02*
G75*
G02*
X95369770Y-137046258I-87211J82139D01*
G01*
X95415100Y-136991777D02*
G75*
G02*
X95403428Y-137021255I-43000J-23D01*
G01*
X95955148Y-136914626D02*
X96952305Y-136914626D01*
X95955148Y-137455666D02*
X95955148Y-136914626D01*
X95955148Y-137996704D02*
X95955148Y-137455666D01*
X96952305Y-136914626D02*
X97949466Y-136914626D01*
X97614201Y-110915141D02*
X101780288Y-110915141D01*
X97949466Y-136914626D02*
X97974543Y-134040797D01*
X97974543Y-134040797D02*
X97993718Y-132249969D01*
X97993718Y-132249969D02*
X98018656Y-131542982D01*
X98018656Y-131542982D02*
G75*
G02*
X98064496Y-131149013I3416044J-197818D01*
G01*
X98064490Y-131149012D02*
G75*
G02*
X98156550Y-130896951I753310J-132288D01*
G01*
X98156542Y-130896946D02*
G75*
G02*
X98392213Y-130613458I958058J-556754D01*
G01*
X98392215Y-130613461D02*
G75*
G02*
X98689681Y-130452612I518085J-602639D01*
G01*
X98674676Y-137976424D02*
X95955148Y-137996704D01*
X98689679Y-130452604D02*
G75*
G02*
X99155083Y-130376212I553121J-1913896D01*
G01*
X99118290Y-134286464D02*
X99118290Y-136914626D01*
X99118290Y-136914626D02*
X100279063Y-136914626D01*
X99123253Y-133161174D02*
X99118290Y-134286464D01*
X99139260Y-132309152D02*
X99123253Y-133161174D01*
X99155083Y-130376213D02*
X100024800Y-130357011D01*
X99161846Y-131642750D02*
X99139260Y-132309152D01*
X99161846Y-131642750D02*
G75*
G02*
X99198150Y-131509067I308654J-12050D01*
G01*
X99198154Y-131509069D02*
G75*
G02*
X99281282Y-131427521I171846J-92031D01*
G01*
X99281270Y-131427498D02*
G75*
G02*
X99419142Y-131383730I200230J-391702D01*
G01*
X99419141Y-131383724D02*
G75*
G02*
X99670317Y-131363984I279859J-1953076D01*
G01*
X100024800Y-130357011D02*
X101201334Y-130356893D01*
X100198387Y-117665751D02*
X93448109Y-110915141D01*
X100239675Y-131359839D02*
X99670317Y-131363985D01*
X100279063Y-136914626D02*
X101439829Y-136914626D01*
X101201334Y-130356893D02*
X101201334Y-130858368D01*
X101201334Y-130858368D02*
X101201334Y-131359839D01*
X101201334Y-131359839D02*
X100239675Y-131359839D01*
X101394208Y-137956150D02*
X98674676Y-137976424D01*
X101417022Y-137435390D02*
X101394208Y-137956150D01*
X101439829Y-136914626D02*
X101417022Y-137435390D01*
X101780288Y-110915141D02*
X108530568Y-117665751D01*
X102861485Y-110915141D02*
X115744791Y-110926664D01*
X103362241Y-111404537D02*
X102861485Y-110915141D01*
X103667833Y-111703580D02*
X103362241Y-111404537D01*
X103901580Y-135775500D02*
X103916875Y-134179719D01*
X103901580Y-137925806D02*
X103901580Y-135775500D01*
X103916875Y-134179719D02*
G75*
G02*
X103984869Y-133417822I5480125J-105081D01*
G01*
X103984873Y-133417823D02*
G75*
G02*
X104138262Y-132929490I1742827J-279177D01*
G01*
X104138274Y-132929496D02*
G75*
G02*
X104426103Y-132501742I1635526J-789804D01*
G01*
X104331772Y-112354280D02*
X103667833Y-111703580D01*
X104426099Y-132501738D02*
G75*
G02*
X104834579Y-132145684I1691101J-1527762D01*
G01*
X104834583Y-132145689D02*
G75*
G02*
X105259775Y-131960787I699717J-1027711D01*
G01*
X105058823Y-135294485D02*
X105058823Y-136914626D01*
X105058823Y-136914626D02*
X106559615Y-136914626D01*
X105062982Y-134673577D02*
X105058823Y-135294485D01*
X105075825Y-134151701D02*
X105062982Y-134673577D01*
X105093145Y-133700011D02*
X105075825Y-134151701D01*
X105093145Y-133700011D02*
G75*
G02*
X105116693Y-133679201I21755J-889D01*
G01*
X105116689Y-133679252D02*
G75*
G02*
X105158321Y-133694448I-7089J-84048D01*
G01*
X105120128Y-113127195D02*
X104331772Y-112354280D01*
X105259775Y-131960788D02*
G75*
G02*
X105910974Y-131875806I781725J-3452712D01*
G01*
X105626809Y-134026895D02*
X105158305Y-133694471D01*
X105637449Y-132753670D02*
X105830324Y-132914250D01*
X105830324Y-132914250D02*
X105961846Y-133017188D01*
X105910974Y-131875814D02*
X107354036Y-131838881D01*
X105959576Y-113950480D02*
X105120128Y-113127195D01*
X105961846Y-133017188D02*
X106351807Y-133302676D01*
X106155444Y-134406283D02*
X105626809Y-134026895D01*
X106273936Y-137902405D02*
X103901580Y-137925806D01*
X106351807Y-133302676D02*
X106818328Y-133640753D01*
X106559615Y-136914626D02*
X107576928Y-136903536D01*
X106772021Y-134855792D02*
X106155444Y-134406283D01*
X106818328Y-133640753D02*
X107334745Y-134011064D01*
X106948663Y-124416359D02*
X100198387Y-117665751D01*
X107334745Y-134011064D02*
X108356678Y-134765461D01*
X107354036Y-131838881D02*
X109302064Y-131811044D01*
X107469753Y-132751103D02*
X105637449Y-132753670D01*
X107804000Y-135627823D02*
X106772021Y-134855792D01*
X107804000Y-135627823D02*
G75*
G02*
X108272257Y-136038233I-2784300J-3649077D01*
G01*
X107834989Y-137883535D02*
X106273936Y-137902405D01*
X108056140Y-116007032D02*
X105959576Y-113950480D01*
X108081774Y-136855816D02*
G75*
G02*
X107576928Y-136903537I-581374J3456116D01*
G01*
X108272258Y-136038232D02*
G75*
G02*
X108478368Y-136327837I-768058J-764768D01*
G01*
X108356678Y-134765461D02*
G75*
G02*
X109011284Y-135318308I-5256878J-6888439D01*
G01*
X108358662Y-136758643D02*
G75*
G02*
X108081773Y-136855809I-419962J753643D01*
G01*
X108386995Y-137857844D02*
X107834989Y-137883535D01*
X108478374Y-136327834D02*
G75*
G02*
X108497545Y-136588647I-316374J-154366D01*
G01*
X108497512Y-136588637D02*
G75*
G02*
X108358678Y-136758672I-283812J90037D01*
G01*
X108530568Y-117665751D02*
X115280847Y-124416359D01*
X108706412Y-137801941D02*
G75*
G02*
X108386995Y-137857841I-454612J1657141D01*
G01*
X108801540Y-116778528D02*
X118329064Y-116789133D01*
X108977989Y-137689066D02*
G75*
G02*
X108706412Y-137801942I-580889J1014466D01*
G01*
X109011283Y-135318309D02*
G75*
G02*
X109418968Y-135758799I-2796983J-2997591D01*
G01*
X109302064Y-131811044D02*
X109302064Y-132279792D01*
X109302064Y-132279792D02*
X109302064Y-132748538D01*
X109302064Y-132748538D02*
X107469753Y-132751103D01*
X109330479Y-137403720D02*
G75*
G02*
X108977984Y-137689057I-1057679J946220D01*
G01*
X109418972Y-135758796D02*
G75*
G02*
X109607609Y-136131758I-801572J-639604D01*
G01*
X109564217Y-137028408D02*
G75*
G02*
X109330470Y-137403712I-1191917J481908D01*
G01*
X109607602Y-136131760D02*
G75*
G02*
X109658636Y-136592487I-1471102J-396140D01*
G01*
X109658634Y-136592487D02*
G75*
G02*
X109564215Y-137028407I-1310134J55587D01*
G01*
X110613614Y-130356893D02*
X111192234Y-130356893D01*
X110613614Y-134137238D02*
X110613614Y-130356893D01*
X110613614Y-137917577D02*
X110613614Y-134137238D01*
X111114754Y-124416359D02*
X106948663Y-124416359D01*
X111153659Y-119131599D02*
X108801540Y-116778528D01*
X111192234Y-130356893D02*
X111770859Y-130356893D01*
X111192234Y-137917577D02*
X110613614Y-137917577D01*
X111770859Y-130356893D02*
X111770859Y-134137238D01*
X111770859Y-134137238D02*
X111770859Y-137917577D01*
X111770859Y-137917577D02*
X111192234Y-137917577D01*
X112957993Y-131944527D02*
G75*
G02*
X112974011Y-131888055I107107J127D01*
G01*
X112959661Y-132810169D02*
X112957993Y-131944527D01*
X112966286Y-133787503D02*
X112959661Y-132810169D01*
X112974000Y-131888048D02*
G75*
G02*
X113012632Y-131862248I47600J-29452D01*
G01*
X112981871Y-134935470D02*
X112966286Y-133787503D01*
X113012629Y-131862228D02*
X113159807Y-131841924D01*
X113030104Y-137917577D02*
X112981871Y-134935470D01*
X113159807Y-131841924D02*
X113341745Y-131827479D01*
X113341745Y-131827479D02*
X113549858Y-131822739D01*
X113505783Y-121484665D02*
X111153659Y-119131599D01*
X113549858Y-131822739D02*
X114085352Y-131822739D01*
X114085352Y-131822739D02*
X114085352Y-134368683D01*
X114085352Y-134368683D02*
X114085352Y-136914626D01*
X114085352Y-136914626D02*
X115423964Y-136914626D01*
X114971000Y-137917577D02*
X113030104Y-137917577D01*
X115280847Y-124416359D02*
X111114754Y-124416359D01*
X115423964Y-136914626D02*
X115984253Y-136908694D01*
X115744791Y-110926664D02*
X120746251Y-110935262D01*
X115984253Y-136908694D02*
X116462528Y-136890456D01*
X116404893Y-137901253D02*
X114971000Y-137917577D01*
X116462528Y-136890456D02*
X116842923Y-136863589D01*
X117013833Y-136827037D02*
G75*
G02*
X116842924Y-136863595I-231233J663237D01*
G01*
X117133696Y-137832403D02*
G75*
G02*
X116404893Y-137901251I-845696J5060403D01*
G01*
X117272453Y-136632155D02*
G75*
G02*
X117013836Y-136827045I-433153J305755D01*
G01*
X117410592Y-136295846D02*
G75*
G02*
X117272462Y-136632162I-803892J133646D01*
G01*
X117468739Y-135646447D02*
G75*
G02*
X117410585Y-136295845I-4322139J59747D01*
G01*
X117468739Y-135646447D02*
X117479943Y-134023988D01*
X117479943Y-131822739D02*
X118022416Y-131822739D01*
X117479943Y-134023988D02*
X117479943Y-131822739D01*
X117609027Y-137682483D02*
G75*
G02*
X117133696Y-137832404I-769827J1612283D01*
G01*
X118018534Y-137408242D02*
G75*
G02*
X117609020Y-137682467I-1146234J1268842D01*
G01*
X118022416Y-131822739D02*
X118285126Y-131828192D01*
X118171571Y-116007032D02*
X108056140Y-116007032D01*
X118285126Y-131828192D02*
G75*
G02*
X118453156Y-131847471I-48226J-1162208D01*
G01*
X118329064Y-116789133D02*
X122035224Y-116798066D01*
X118333291Y-137021231D02*
G75*
G02*
X118018527Y-137408234I-1409791J825131D01*
G01*
X118453155Y-131847474D02*
G75*
G02*
X118558151Y-131880954I-84355J-445926D01*
G01*
X118501549Y-136571589D02*
G75*
G02*
X118333302Y-137021237I-1382749J261089D01*
G01*
X118558149Y-131880958D02*
G75*
G02*
X118607384Y-131933414I-39749J-86642D01*
G01*
X118581280Y-135846678D02*
G75*
G02*
X118501555Y-136571590I-4731980J153578D01*
G01*
X118607361Y-131933423D02*
G75*
G02*
X118623925Y-132020810I-233261J-89477D01*
G01*
X118618971Y-134228633D02*
X118581280Y-135846678D01*
X118623941Y-132020810D02*
X118628287Y-132653301D01*
X118627729Y-133383352D02*
X118618971Y-134228633D01*
X118628287Y-132653301D02*
X118627729Y-133383352D01*
X119706973Y-137917577D02*
X119731417Y-135622369D01*
X119731417Y-135622369D02*
X119755862Y-133327159D01*
X119755862Y-133327159D02*
X119965797Y-132899708D01*
X119871112Y-121485921D02*
X113505783Y-121484665D01*
X119965797Y-132899708D02*
G75*
G02*
X120149839Y-132589455I2054803J-1009192D01*
G01*
X120149838Y-132589454D02*
G75*
G02*
X120362589Y-132350028I1169362J-824846D01*
G01*
X120290755Y-137917577D02*
X119706973Y-137917577D01*
X120362584Y-132350022D02*
G75*
G02*
X120628566Y-132158764I1008816J-1122378D01*
G01*
X120628561Y-132158754D02*
G75*
G02*
X120973854Y-131993632I1373239J-2428046D01*
G01*
X120746251Y-110935262D02*
X125104244Y-110951764D01*
X120874536Y-133353863D02*
X120874536Y-135635721D01*
X120874536Y-135635721D02*
X120874536Y-137917577D01*
X120874536Y-137917577D02*
X120290755Y-137917577D01*
X120973852Y-131993628D02*
G75*
G02*
X121283667Y-131920421I404948J-1021572D01*
G01*
X121100051Y-133128351D02*
X120874536Y-133353863D01*
X121283666Y-131920412D02*
X121891920Y-131882605D01*
X121325569Y-132902840D02*
X121100051Y-133128351D01*
X121891920Y-131882605D02*
X122921498Y-131858039D01*
X122035224Y-116798066D02*
X125281801Y-116816360D01*
X122373763Y-121491723D02*
X119871112Y-121485921D01*
X122565899Y-132902840D02*
X121325569Y-132902840D01*
X122644871Y-116011895D02*
X118171571Y-116007032D01*
X122921498Y-131858039D02*
X125081666Y-131839800D01*
X123806230Y-132902840D02*
X122565899Y-132902840D01*
X123806230Y-135410207D02*
X123806230Y-132902840D01*
X123806230Y-137917577D02*
X123806230Y-135410207D01*
X124346276Y-137917577D02*
X123806230Y-137917577D01*
X124626237Y-121508276D02*
X122373763Y-121491723D01*
X124886326Y-132902840D02*
X124886326Y-135410207D01*
X124886326Y-135410207D02*
X124886326Y-137917577D01*
X124886326Y-137917577D02*
X124346276Y-137917577D01*
X125081666Y-131839800D02*
X126535970Y-131834206D01*
X125104244Y-110951764D02*
X128852234Y-110972393D01*
X125281801Y-116816360D02*
X128057791Y-116839656D01*
X125916121Y-116027885D02*
X122644871Y-116011895D01*
X126352174Y-132902840D02*
X124886326Y-132902840D01*
X126518990Y-121531237D02*
X124626237Y-121508276D01*
X126535970Y-131834206D02*
X127769546Y-131838426D01*
X127120206Y-121560271D02*
X126518990Y-121531237D01*
X127120206Y-121560271D02*
G75*
G02*
X127967067Y-121684490I-559206J-6761229D01*
G01*
X127769546Y-131838426D02*
X128866325Y-131847745D01*
X127818019Y-132902840D02*
X126352174Y-132902840D01*
X127818019Y-135410207D02*
X127818019Y-132902840D01*
X127818019Y-137917577D02*
X127818019Y-135410207D01*
X127967067Y-121684492D02*
G75*
G02*
X128559735Y-121907378I-436467J-2060008D01*
G01*
X128057791Y-116839656D02*
X128618870Y-116866931D01*
X128395850Y-116050958D02*
X125916121Y-116027885D01*
X128395850Y-116050958D02*
G75*
G02*
X129026620Y-116089504I-69650J-6319942D01*
G01*
X128396642Y-137917577D02*
X127818019Y-137917577D01*
X128559740Y-121907369D02*
G75*
G02*
X129167692Y-122340724I-1682240J-3003131D01*
G01*
X128618870Y-116866931D02*
X129578973Y-116992861D01*
X128852234Y-110972393D02*
X129515314Y-110995928D01*
X128866325Y-131847745D02*
G75*
G02*
X128919844Y-131870233I-725J-76655D01*
G01*
X128919869Y-131870208D02*
G75*
G02*
X128942514Y-131923323I-54669J-54692D01*
G01*
X128942494Y-131923323D02*
X128958995Y-132789404D01*
X128958995Y-132789404D02*
X128971278Y-133768993D01*
X128971278Y-133768993D02*
X128975265Y-134921588D01*
X128975265Y-134921588D02*
X128975265Y-137917577D01*
X128975265Y-137917577D02*
X128396642Y-137917577D01*
X129026620Y-116089501D02*
G75*
G02*
X130066370Y-116266059I-1023020J-9174399D01*
G01*
X129515314Y-110995928D02*
G75*
G02*
X131642245Y-111245808I-1338914J-20573572D01*
G01*
X129578973Y-116992861D02*
G75*
G02*
X130355556Y-117188995I-925973J-5301839D01*
G01*
X129978213Y-131822739D02*
X130884724Y-131829208D01*
X129978213Y-132324214D02*
X129978213Y-131822739D01*
X129978213Y-132825688D02*
X129978213Y-132324214D01*
X130066371Y-116266056D02*
G75*
G02*
X130966519Y-116549355I-1326671J-5787044D01*
G01*
X130160019Y-123263084D02*
X129167689Y-122340728D01*
X130355555Y-117188998D02*
G75*
G02*
X131046762Y-117483756I-1464555J-4392202D01*
G01*
X130884724Y-131829208D02*
X131263810Y-131838575D01*
X130966521Y-116549351D02*
G75*
G02*
X131798043Y-116966981I-2156521J-5330349D01*
G01*
X131016104Y-132825688D02*
X129978213Y-132825688D01*
X131046758Y-117483764D02*
G75*
G02*
X131742685Y-117908584I-2981558J-5666736D01*
G01*
X131263810Y-131838575D02*
X131653196Y-131861357D01*
X131351485Y-124417941D02*
X130160019Y-123263084D01*
X131642246Y-111245804D02*
G75*
G02*
X133327594Y-111700977I-1549046J-9083296D01*
G01*
X131653196Y-131861357D02*
X131999778Y-131892910D01*
X131742685Y-117908584D02*
G75*
G02*
X132081023Y-118184824I-1721585J-2453916D01*
G01*
X131767854Y-132840152D02*
X131016104Y-132825688D01*
X131767854Y-132840152D02*
G75*
G02*
X132157026Y-132899617I-67054J-1742048D01*
G01*
X131798038Y-116966989D02*
G75*
G02*
X132630670Y-117547648I-4222138J-6941611D01*
G01*
X131999778Y-131892910D02*
G75*
G02*
X132227826Y-131929573I-235578J-2192890D01*
G01*
X132081022Y-118184825D02*
X132958392Y-119023508D01*
X132157025Y-132899620D02*
G75*
G02*
X132381406Y-133022906I-142225J-524680D01*
G01*
X132227826Y-131929571D02*
G75*
G02*
X132640804Y-132059460I-490726J-2281729D01*
G01*
X132381390Y-133022923D02*
G75*
G02*
X132520320Y-133233585I-347290J-380177D01*
G01*
X132520318Y-133233586D02*
G75*
G02*
X132555330Y-133413994I-605518J-211114D01*
G01*
X132579303Y-134007486D02*
X132555320Y-133413994D01*
X132595989Y-134759599D02*
X132579303Y-134007486D01*
X132601305Y-135691743D02*
X132595989Y-134759599D01*
X132601305Y-137917577D02*
X132601305Y-135691743D01*
X132640803Y-132059463D02*
G75*
G02*
X132989524Y-132256586I-665003J-1583437D01*
G01*
X132958392Y-119023508D02*
X134032053Y-120075182D01*
X132989526Y-132256583D02*
G75*
G02*
X133271231Y-132520884I-935626J-1279517D01*
G01*
X132996135Y-117863988D02*
X132630668Y-117547650D01*
X133141357Y-137917577D02*
X132601305Y-137917577D01*
X133271236Y-132520880D02*
G75*
G02*
X133485987Y-132849553I-1297736J-1082420D01*
G01*
X133327597Y-111700969D02*
G75*
G02*
X134818906Y-112440266I-2881097J-7685531D01*
G01*
X133485975Y-132849559D02*
X133681404Y-133241732D01*
X133681404Y-133241732D02*
X133681404Y-135579657D01*
X133681404Y-135579657D02*
X133681404Y-137917577D01*
X133681404Y-137917577D02*
X133141357Y-137917577D01*
X133994171Y-118809349D02*
X132996135Y-117863988D01*
X134032053Y-120075182D02*
X135277045Y-121322588D01*
X134647950Y-134947308D02*
X134672353Y-133950049D01*
X134672353Y-133950049D02*
G75*
G02*
X134768094Y-133358961I2726647J-138351D01*
G01*
X134679005Y-135935043D02*
X134647950Y-134947308D01*
X134768089Y-133358960D02*
G75*
G02*
X134970253Y-132917729I1475111J-408940D01*
G01*
X134786118Y-136536797D02*
G75*
G02*
X134679008Y-135935043I2549982J764297D01*
G01*
X134818911Y-112440258D02*
G75*
G02*
X136343073Y-113555431I-7206211J-11448242D01*
G01*
X134825726Y-124397862D02*
X131351485Y-124417941D01*
X134970257Y-132917732D02*
G75*
G02*
X135333282Y-132475298I2425443J-1619968D01*
G01*
X135004360Y-136981556D02*
G75*
G02*
X134786112Y-136536799I1226640J877856D01*
G01*
X135176608Y-119945048D02*
X133994171Y-118809349D01*
X135277045Y-121322588D02*
X138299962Y-124377785D01*
X135333279Y-132475295D02*
G75*
G02*
X135753632Y-132126196I2095021J-2095005D01*
G01*
X135385319Y-137407401D02*
G75*
G02*
X135004354Y-136981560I1761281J1959001D01*
G01*
X135753631Y-132126195D02*
G75*
G02*
X136169419Y-131925657I865269J-1262705D01*
G01*
X135767359Y-135586803D02*
X135781272Y-135975245D01*
X135777457Y-134806259D02*
X135767359Y-135586803D01*
X135811842Y-133852143D02*
X135777457Y-134806259D01*
X135811842Y-133852143D02*
G75*
G02*
X135889661Y-133386408I2094258J-110557D01*
G01*
X135823975Y-136238065D02*
G75*
G02*
X135781269Y-135975245I1561825J388665D01*
G01*
X135827936Y-137734753D02*
G75*
G02*
X135385324Y-137407395I1487164J2473653D01*
G01*
X135889665Y-133386409D02*
G75*
G02*
X136048061Y-133096003I725835J-207491D01*
G01*
X135909142Y-136486550D02*
G75*
G02*
X135823974Y-136238065I1394058J616650D01*
G01*
X136048050Y-133095993D02*
G75*
G02*
X136334241Y-132858217I892250J-782807D01*
G01*
X136127753Y-136815425D02*
G75*
G02*
X135909139Y-136486551I847447J800425D01*
G01*
X136169423Y-131925669D02*
G75*
G02*
X136717166Y-131820850I753077J-2451731D01*
G01*
X136269076Y-137919657D02*
G75*
G02*
X135827936Y-137734753I415324J1609557D01*
G01*
X136334243Y-132858220D02*
G75*
G02*
X136502408Y-132785401I368657J-620780D01*
G01*
X136343077Y-113555426D02*
X136808971Y-113977174D01*
X136425501Y-137013937D02*
G75*
G02*
X136127768Y-136815410I282999J746937D01*
G01*
X136469898Y-121205099D02*
X135176608Y-119945048D01*
X136502408Y-132785400D02*
G75*
G02*
X136717792Y-132740106I412292J-1425800D01*
G01*
X136717166Y-131820848D02*
X137616042Y-131774119D01*
X136717792Y-132740108D02*
G75*
G02*
X137030143Y-132712659I458508J-3426592D01*
G01*
X136808971Y-113977174D02*
X138351858Y-115477552D01*
X136851906Y-138008815D02*
G75*
G02*
X136269077Y-137919652I149594J2927315D01*
G01*
X136882315Y-137115257D02*
G75*
G02*
X136425503Y-137013932I121385J1627657D01*
G01*
X136882315Y-137115257D02*
X137645669Y-137144384D01*
X137538892Y-132697018D02*
X137030143Y-132712660D01*
X137538892Y-132697018D02*
G75*
G02*
X138716307Y-132742424I196008J-10205782D01*
G01*
X137616042Y-131774119D02*
X138172653Y-131767452D01*
X137645669Y-137144384D02*
X138018891Y-137138371D01*
X137810900Y-138033301D02*
X136851906Y-138008815D01*
X138018891Y-137138371D02*
X138382147Y-137118932D01*
X138172653Y-131767452D02*
X138579278Y-131779297D01*
X138299962Y-124377785D02*
X134825726Y-124397862D01*
X138351858Y-115477552D02*
X140175748Y-117265980D01*
X138382147Y-137118932D02*
X138692599Y-137090461D01*
X138579278Y-131779297D02*
X138893651Y-131810239D01*
X138716307Y-132742420D02*
G75*
G02*
X139285698Y-132994344I-95107J-984380D01*
G01*
X138865347Y-137055345D02*
G75*
G02*
X138692598Y-137090456I-279747J933845D01*
G01*
X138893651Y-131810239D02*
G75*
G02*
X139152760Y-131864052I-271451J-1957761D01*
G01*
X139047284Y-138033301D02*
X137810900Y-138033301D01*
X139152761Y-131864048D02*
G75*
G02*
X139657540Y-132053187I-835161J-2997052D01*
G01*
X139279260Y-136805860D02*
G75*
G02*
X138865345Y-137055340I-692760J681260D01*
G01*
X139285715Y-132994325D02*
G75*
G02*
X139576432Y-133529061I-620015J-683475D01*
G01*
X139542964Y-136377871D02*
G75*
G02*
X139279252Y-136805852I-1067564J362571D01*
G01*
X139576440Y-133529060D02*
G75*
G02*
X139684479Y-134643359I-8471340J-1383740D01*
G01*
X139585348Y-137763276D02*
X139047284Y-138033301D01*
X139657542Y-132053182D02*
G75*
G02*
X140060761Y-132310817I-837442J-1755018D01*
G01*
X139673600Y-135697517D02*
G75*
G02*
X139542962Y-136377870I-2520300J131217D01*
G01*
X139673600Y-135697517D02*
X139684474Y-134643359D01*
X139737664Y-124408425D02*
X136469898Y-121205099D01*
X140008893Y-137504889D02*
G75*
G02*
X139585351Y-137763282I-1770993J2426589D01*
G01*
X140060758Y-132310821D02*
G75*
G02*
X140381372Y-132653364I-1185558J-1430979D01*
G01*
X140175748Y-117265980D02*
X142206460Y-119275038D01*
X140332883Y-137204813D02*
G75*
G02*
X140008891Y-137504886I-1442383J1232413D01*
G01*
X140381361Y-132653372D02*
G75*
G02*
X140639323Y-133095713I-2126361J-1536428D01*
G01*
X140573193Y-136843974D02*
G75*
G02*
X140332882Y-137204812I-1622893J820374D01*
G01*
X140639324Y-133095713D02*
G75*
G02*
X140735877Y-133356518I-1672324J-767387D01*
G01*
X140735875Y-133356518D02*
G75*
G02*
X140791039Y-133626750I-1711275J-490082D01*
G01*
X140746520Y-136404246D02*
G75*
G02*
X140573193Y-136843974I-2455220J713746D01*
G01*
X140791038Y-133626750D02*
X140821991Y-134011275D01*
X140805736Y-136132075D02*
G75*
G02*
X140746515Y-136404244I-2008836J294575D01*
G01*
X140821991Y-134011275D02*
X140842911Y-134731364D01*
X140838542Y-135810177D02*
G75*
G02*
X140805734Y-136132075I-3671442J211577D01*
G01*
X140842911Y-134731364D02*
X140850512Y-135377263D01*
X140850512Y-135377263D02*
X140838542Y-135810177D01*
X141627830Y-130356893D02*
X144520952Y-130356893D01*
X141627830Y-130858368D02*
X141627830Y-130356893D01*
X141627830Y-131359839D02*
X141627830Y-130858368D01*
X141627830Y-133599482D02*
X143923041Y-133579046D01*
X141627830Y-134099808D02*
X141627830Y-133599482D01*
X141627830Y-134600136D02*
X141627830Y-134099808D01*
X142206460Y-119275038D02*
X147375495Y-124407996D01*
X143556581Y-124408213D02*
X139737664Y-124408425D01*
X143923041Y-133579046D02*
X146218249Y-133558606D01*
X143942329Y-134600136D02*
X141627830Y-134600136D01*
X143944447Y-131359839D02*
X141627830Y-131359839D01*
X144520952Y-130356893D02*
X147414070Y-130356893D01*
X146218249Y-133558606D02*
X146239650Y-132459226D01*
X146239650Y-132459226D02*
X146261060Y-131359839D01*
X146256821Y-134600136D02*
X143942329Y-134600136D01*
X146256821Y-136258854D02*
X146256821Y-134600136D01*
X146256821Y-137917577D02*
X146256821Y-136258854D01*
X146261060Y-131359839D02*
X143944447Y-131359839D01*
X146835445Y-137917577D02*
X146256821Y-137917577D01*
X147375495Y-124407996D02*
X143556581Y-124408213D01*
X147414070Y-130356893D02*
X147414070Y-134137238D01*
X147414070Y-134137238D02*
X147414070Y-137917577D01*
X147414070Y-137917577D02*
X146835445Y-137917577D01*
D11*
X92194862Y-60229238D02*
X92194862Y-58229238D01*
X92194862Y-58229238D02*
X91528195Y-59657809D01*
X91528195Y-59657809D02*
X90861529Y-58229238D01*
X90861529Y-58229238D02*
X90861529Y-60229238D01*
X90004386Y-59657809D02*
X89052005Y-59657809D01*
X90194862Y-60229238D02*
X89528196Y-58229238D01*
X89528196Y-58229238D02*
X88861529Y-60229238D01*
X88194862Y-60229238D02*
X88194862Y-58229238D01*
X88194862Y-58229238D02*
X87718672Y-58229238D01*
X87718672Y-58229238D02*
X87432957Y-58324476D01*
X87432957Y-58324476D02*
X87242481Y-58514952D01*
X87242481Y-58514952D02*
X87147243Y-58705428D01*
X87147243Y-58705428D02*
X87052005Y-59086380D01*
X87052005Y-59086380D02*
X87052005Y-59372095D01*
X87052005Y-59372095D02*
X87147243Y-59753047D01*
X87147243Y-59753047D02*
X87242481Y-59943523D01*
X87242481Y-59943523D02*
X87432957Y-60134000D01*
X87432957Y-60134000D02*
X87718672Y-60229238D01*
X87718672Y-60229238D02*
X88194862Y-60229238D01*
X86194862Y-59181619D02*
X85528195Y-59181619D01*
X85242481Y-60229238D02*
X86194862Y-60229238D01*
X86194862Y-60229238D02*
X86194862Y-58229238D01*
X86194862Y-58229238D02*
X85242481Y-58229238D01*
X83052004Y-58229238D02*
X82575814Y-60229238D01*
X82575814Y-60229238D02*
X82194861Y-58800666D01*
X82194861Y-58800666D02*
X81813909Y-60229238D01*
X81813909Y-60229238D02*
X81337719Y-58229238D01*
X79147243Y-58134000D02*
X80861528Y-60705428D01*
X75432957Y-58895904D02*
X76956766Y-59467333D01*
X76956766Y-59467333D02*
X75432957Y-60038761D01*
X74671052Y-58229238D02*
X73432957Y-58229238D01*
X73432957Y-58229238D02*
X74099624Y-58991142D01*
X74099624Y-58991142D02*
X73813909Y-58991142D01*
X73813909Y-58991142D02*
X73623433Y-59086380D01*
X73623433Y-59086380D02*
X73528195Y-59181619D01*
X73528195Y-59181619D02*
X73432957Y-59372095D01*
X73432957Y-59372095D02*
X73432957Y-59848285D01*
X73432957Y-59848285D02*
X73528195Y-60038761D01*
X73528195Y-60038761D02*
X73623433Y-60134000D01*
X73623433Y-60134000D02*
X73813909Y-60229238D01*
X73813909Y-60229238D02*
X74385338Y-60229238D01*
X74385338Y-60229238D02*
X74575814Y-60134000D01*
X74575814Y-60134000D02*
X74671052Y-60038761D01*
X70385337Y-59181619D02*
X70099623Y-59276857D01*
X70099623Y-59276857D02*
X70004385Y-59372095D01*
X70004385Y-59372095D02*
X69909147Y-59562571D01*
X69909147Y-59562571D02*
X69909147Y-59848285D01*
X69909147Y-59848285D02*
X70004385Y-60038761D01*
X70004385Y-60038761D02*
X70099623Y-60134000D01*
X70099623Y-60134000D02*
X70290099Y-60229238D01*
X70290099Y-60229238D02*
X71052004Y-60229238D01*
X71052004Y-60229238D02*
X71052004Y-58229238D01*
X71052004Y-58229238D02*
X70385337Y-58229238D01*
X70385337Y-58229238D02*
X70194861Y-58324476D01*
X70194861Y-58324476D02*
X70099623Y-58419714D01*
X70099623Y-58419714D02*
X70004385Y-58610190D01*
X70004385Y-58610190D02*
X70004385Y-58800666D01*
X70004385Y-58800666D02*
X70099623Y-58991142D01*
X70099623Y-58991142D02*
X70194861Y-59086380D01*
X70194861Y-59086380D02*
X70385337Y-59181619D01*
X70385337Y-59181619D02*
X71052004Y-59181619D01*
X68671052Y-59276857D02*
X68671052Y-60229238D01*
X69337718Y-58229238D02*
X68671052Y-59276857D01*
X68671052Y-59276857D02*
X68004385Y-58229238D01*
X65909146Y-60134000D02*
X65623432Y-60229238D01*
X65623432Y-60229238D02*
X65147241Y-60229238D01*
X65147241Y-60229238D02*
X64956765Y-60134000D01*
X64956765Y-60134000D02*
X64861527Y-60038761D01*
X64861527Y-60038761D02*
X64766289Y-59848285D01*
X64766289Y-59848285D02*
X64766289Y-59657809D01*
X64766289Y-59657809D02*
X64861527Y-59467333D01*
X64861527Y-59467333D02*
X64956765Y-59372095D01*
X64956765Y-59372095D02*
X65147241Y-59276857D01*
X65147241Y-59276857D02*
X65528194Y-59181619D01*
X65528194Y-59181619D02*
X65718670Y-59086380D01*
X65718670Y-59086380D02*
X65813908Y-58991142D01*
X65813908Y-58991142D02*
X65909146Y-58800666D01*
X65909146Y-58800666D02*
X65909146Y-58610190D01*
X65909146Y-58610190D02*
X65813908Y-58419714D01*
X65813908Y-58419714D02*
X65718670Y-58324476D01*
X65718670Y-58324476D02*
X65528194Y-58229238D01*
X65528194Y-58229238D02*
X65052003Y-58229238D01*
X65052003Y-58229238D02*
X64766289Y-58324476D01*
X63528194Y-59276857D02*
X63528194Y-60229238D01*
X64194860Y-58229238D02*
X63528194Y-59276857D01*
X63528194Y-59276857D02*
X62861527Y-58229238D01*
X61242479Y-60229238D02*
X62194860Y-60229238D01*
X62194860Y-60229238D02*
X62194860Y-58229238D01*
X60861526Y-58229238D02*
X60194860Y-60229238D01*
X60194860Y-60229238D02*
X59528193Y-58229238D01*
X58861526Y-60229238D02*
X58861526Y-58229238D01*
X58004383Y-59657809D02*
X57052002Y-59657809D01*
X58194859Y-60229238D02*
X57528193Y-58229238D01*
X57528193Y-58229238D02*
X56861526Y-60229238D01*
X54671049Y-60038761D02*
X54575811Y-60134000D01*
X54575811Y-60134000D02*
X54671049Y-60229238D01*
X54671049Y-60229238D02*
X54766287Y-60134000D01*
X54766287Y-60134000D02*
X54671049Y-60038761D01*
X54671049Y-60038761D02*
X54671049Y-60229238D01*
X54671049Y-58991142D02*
X54575811Y-59086380D01*
X54575811Y-59086380D02*
X54671049Y-59181619D01*
X54671049Y-59181619D02*
X54766287Y-59086380D01*
X54766287Y-59086380D02*
X54671049Y-58991142D01*
X54671049Y-58991142D02*
X54671049Y-59181619D01*
X53909144Y-58229238D02*
X52671049Y-58229238D01*
X52671049Y-58229238D02*
X53337716Y-58991142D01*
X53337716Y-58991142D02*
X53052001Y-58991142D01*
X53052001Y-58991142D02*
X52861525Y-59086380D01*
X52861525Y-59086380D02*
X52766287Y-59181619D01*
X52766287Y-59181619D02*
X52671049Y-59372095D01*
X52671049Y-59372095D02*
X52671049Y-59848285D01*
X52671049Y-59848285D02*
X52766287Y-60038761D01*
X52766287Y-60038761D02*
X52861525Y-60134000D01*
X52861525Y-60134000D02*
X53052001Y-60229238D01*
X53052001Y-60229238D02*
X53623430Y-60229238D01*
X53623430Y-60229238D02*
X53813906Y-60134000D01*
X53813906Y-60134000D02*
X53909144Y-60038761D01*
D12*
X147621241Y-140290025D02*
X147621241Y-143290025D01*
X147621241Y-140432882D02*
X147335527Y-140290025D01*
X147335527Y-140290025D02*
X146764098Y-140290025D01*
X146764098Y-140290025D02*
X146478384Y-140432882D01*
X146478384Y-140432882D02*
X146335527Y-140575739D01*
X146335527Y-140575739D02*
X146192669Y-140861453D01*
X146192669Y-140861453D02*
X146192669Y-141718596D01*
X146192669Y-141718596D02*
X146335527Y-142004310D01*
X146335527Y-142004310D02*
X146478384Y-142147168D01*
X146478384Y-142147168D02*
X146764098Y-142290025D01*
X146764098Y-142290025D02*
X147335527Y-142290025D01*
X147335527Y-142290025D02*
X147621241Y-142147168D01*
X144906955Y-142290025D02*
X144906955Y-140290025D01*
X144906955Y-139290025D02*
X145049812Y-139432882D01*
X145049812Y-139432882D02*
X144906955Y-139575739D01*
X144906955Y-139575739D02*
X144764098Y-139432882D01*
X144764098Y-139432882D02*
X144906955Y-139290025D01*
X144906955Y-139290025D02*
X144906955Y-139575739D01*
X143478384Y-140290025D02*
X143478384Y-142290025D01*
X143478384Y-140575739D02*
X143335527Y-140432882D01*
X143335527Y-140432882D02*
X143049812Y-140290025D01*
X143049812Y-140290025D02*
X142621241Y-140290025D01*
X142621241Y-140290025D02*
X142335527Y-140432882D01*
X142335527Y-140432882D02*
X142192670Y-140718596D01*
X142192670Y-140718596D02*
X142192670Y-142290025D01*
X140764098Y-140290025D02*
X140764098Y-142290025D01*
X140764098Y-140575739D02*
X140621241Y-140432882D01*
X140621241Y-140432882D02*
X140335526Y-140290025D01*
X140335526Y-140290025D02*
X139906955Y-140290025D01*
X139906955Y-140290025D02*
X139621241Y-140432882D01*
X139621241Y-140432882D02*
X139478384Y-140718596D01*
X139478384Y-140718596D02*
X139478384Y-142290025D01*
X136764098Y-142290025D02*
X136764098Y-140718596D01*
X136764098Y-140718596D02*
X136906955Y-140432882D01*
X136906955Y-140432882D02*
X137192669Y-140290025D01*
X137192669Y-140290025D02*
X137764098Y-140290025D01*
X137764098Y-140290025D02*
X138049812Y-140432882D01*
X136764098Y-142147168D02*
X137049812Y-142290025D01*
X137049812Y-142290025D02*
X137764098Y-142290025D01*
X137764098Y-142290025D02*
X138049812Y-142147168D01*
X138049812Y-142147168D02*
X138192669Y-141861453D01*
X138192669Y-141861453D02*
X138192669Y-141575739D01*
X138192669Y-141575739D02*
X138049812Y-141290025D01*
X138049812Y-141290025D02*
X137764098Y-141147168D01*
X137764098Y-141147168D02*
X137049812Y-141147168D01*
X137049812Y-141147168D02*
X136764098Y-141004310D01*
X134049812Y-142147168D02*
X134335526Y-142290025D01*
X134335526Y-142290025D02*
X134906954Y-142290025D01*
X134906954Y-142290025D02*
X135192669Y-142147168D01*
X135192669Y-142147168D02*
X135335526Y-142004310D01*
X135335526Y-142004310D02*
X135478383Y-141718596D01*
X135478383Y-141718596D02*
X135478383Y-140861453D01*
X135478383Y-140861453D02*
X135335526Y-140575739D01*
X135335526Y-140575739D02*
X135192669Y-140432882D01*
X135192669Y-140432882D02*
X134906954Y-140290025D01*
X134906954Y-140290025D02*
X134335526Y-140290025D01*
X134335526Y-140290025D02*
X134049812Y-140432882D01*
X132335525Y-142290025D02*
X132621240Y-142147168D01*
X132621240Y-142147168D02*
X132764097Y-141861453D01*
X132764097Y-141861453D02*
X132764097Y-139290025D01*
X130049811Y-142147168D02*
X130335525Y-142290025D01*
X130335525Y-142290025D02*
X130906954Y-142290025D01*
X130906954Y-142290025D02*
X131192668Y-142147168D01*
X131192668Y-142147168D02*
X131335525Y-141861453D01*
X131335525Y-141861453D02*
X131335525Y-140718596D01*
X131335525Y-140718596D02*
X131192668Y-140432882D01*
X131192668Y-140432882D02*
X130906954Y-140290025D01*
X130906954Y-140290025D02*
X130335525Y-140290025D01*
X130335525Y-140290025D02*
X130049811Y-140432882D01*
X130049811Y-140432882D02*
X129906954Y-140718596D01*
X129906954Y-140718596D02*
X129906954Y-141004310D01*
X129906954Y-141004310D02*
X131335525Y-141290025D01*
X125906953Y-142290025D02*
X126192668Y-142147168D01*
X126192668Y-142147168D02*
X126335525Y-142004310D01*
X126335525Y-142004310D02*
X126478382Y-141718596D01*
X126478382Y-141718596D02*
X126478382Y-140861453D01*
X126478382Y-140861453D02*
X126335525Y-140575739D01*
X126335525Y-140575739D02*
X126192668Y-140432882D01*
X126192668Y-140432882D02*
X125906953Y-140290025D01*
X125906953Y-140290025D02*
X125478382Y-140290025D01*
X125478382Y-140290025D02*
X125192668Y-140432882D01*
X125192668Y-140432882D02*
X125049811Y-140575739D01*
X125049811Y-140575739D02*
X124906953Y-140861453D01*
X124906953Y-140861453D02*
X124906953Y-141718596D01*
X124906953Y-141718596D02*
X125049811Y-142004310D01*
X125049811Y-142004310D02*
X125192668Y-142147168D01*
X125192668Y-142147168D02*
X125478382Y-142290025D01*
X125478382Y-142290025D02*
X125906953Y-142290025D01*
X124049810Y-140290025D02*
X122906953Y-140290025D01*
X123621239Y-142290025D02*
X123621239Y-139718596D01*
X123621239Y-139718596D02*
X123478382Y-139432882D01*
X123478382Y-139432882D02*
X123192667Y-139290025D01*
X123192667Y-139290025D02*
X122906953Y-139290025D01*
X119621239Y-142290025D02*
X119621239Y-140290025D01*
X119621239Y-140575739D02*
X119478382Y-140432882D01*
X119478382Y-140432882D02*
X119192667Y-140290025D01*
X119192667Y-140290025D02*
X118764096Y-140290025D01*
X118764096Y-140290025D02*
X118478382Y-140432882D01*
X118478382Y-140432882D02*
X118335525Y-140718596D01*
X118335525Y-140718596D02*
X118335525Y-142290025D01*
X118335525Y-140718596D02*
X118192667Y-140432882D01*
X118192667Y-140432882D02*
X117906953Y-140290025D01*
X117906953Y-140290025D02*
X117478382Y-140290025D01*
X117478382Y-140290025D02*
X117192667Y-140432882D01*
X117192667Y-140432882D02*
X117049810Y-140718596D01*
X117049810Y-140718596D02*
X117049810Y-142290025D01*
X115192667Y-142290025D02*
X115478382Y-142147168D01*
X115478382Y-142147168D02*
X115621239Y-142004310D01*
X115621239Y-142004310D02*
X115764096Y-141718596D01*
X115764096Y-141718596D02*
X115764096Y-140861453D01*
X115764096Y-140861453D02*
X115621239Y-140575739D01*
X115621239Y-140575739D02*
X115478382Y-140432882D01*
X115478382Y-140432882D02*
X115192667Y-140290025D01*
X115192667Y-140290025D02*
X114764096Y-140290025D01*
X114764096Y-140290025D02*
X114478382Y-140432882D01*
X114478382Y-140432882D02*
X114335525Y-140575739D01*
X114335525Y-140575739D02*
X114192667Y-140861453D01*
X114192667Y-140861453D02*
X114192667Y-141718596D01*
X114192667Y-141718596D02*
X114335525Y-142004310D01*
X114335525Y-142004310D02*
X114478382Y-142147168D01*
X114478382Y-142147168D02*
X114764096Y-142290025D01*
X114764096Y-142290025D02*
X115192667Y-142290025D01*
X113335524Y-140290025D02*
X112192667Y-140290025D01*
X112906953Y-139290025D02*
X112906953Y-141861453D01*
X112906953Y-141861453D02*
X112764096Y-142147168D01*
X112764096Y-142147168D02*
X112478381Y-142290025D01*
X112478381Y-142290025D02*
X112192667Y-142290025D01*
X110764095Y-142290025D02*
X111049810Y-142147168D01*
X111049810Y-142147168D02*
X111192667Y-142004310D01*
X111192667Y-142004310D02*
X111335524Y-141718596D01*
X111335524Y-141718596D02*
X111335524Y-140861453D01*
X111335524Y-140861453D02*
X111192667Y-140575739D01*
X111192667Y-140575739D02*
X111049810Y-140432882D01*
X111049810Y-140432882D02*
X110764095Y-140290025D01*
X110764095Y-140290025D02*
X110335524Y-140290025D01*
X110335524Y-140290025D02*
X110049810Y-140432882D01*
X110049810Y-140432882D02*
X109906953Y-140575739D01*
X109906953Y-140575739D02*
X109764095Y-140861453D01*
X109764095Y-140861453D02*
X109764095Y-141718596D01*
X109764095Y-141718596D02*
X109906953Y-142004310D01*
X109906953Y-142004310D02*
X110049810Y-142147168D01*
X110049810Y-142147168D02*
X110335524Y-142290025D01*
X110335524Y-142290025D02*
X110764095Y-142290025D01*
X108478381Y-142290025D02*
X108478381Y-140290025D01*
X108478381Y-140861453D02*
X108335524Y-140575739D01*
X108335524Y-140575739D02*
X108192667Y-140432882D01*
X108192667Y-140432882D02*
X107906952Y-140290025D01*
X107906952Y-140290025D02*
X107621238Y-140290025D01*
X106764095Y-142147168D02*
X106478381Y-142290025D01*
X106478381Y-142290025D02*
X105906952Y-142290025D01*
X105906952Y-142290025D02*
X105621238Y-142147168D01*
X105621238Y-142147168D02*
X105478381Y-141861453D01*
X105478381Y-141861453D02*
X105478381Y-141718596D01*
X105478381Y-141718596D02*
X105621238Y-141432882D01*
X105621238Y-141432882D02*
X105906952Y-141290025D01*
X105906952Y-141290025D02*
X106335524Y-141290025D01*
X106335524Y-141290025D02*
X106621238Y-141147168D01*
X106621238Y-141147168D02*
X106764095Y-140861453D01*
X106764095Y-140861453D02*
X106764095Y-140718596D01*
X106764095Y-140718596D02*
X106621238Y-140432882D01*
X106621238Y-140432882D02*
X106335524Y-140290025D01*
X106335524Y-140290025D02*
X105906952Y-140290025D01*
X105906952Y-140290025D02*
X105621238Y-140432882D01*
X104192667Y-140290025D02*
X104192667Y-143290025D01*
X104192667Y-140432882D02*
X103906953Y-140290025D01*
X103906953Y-140290025D02*
X103335524Y-140290025D01*
X103335524Y-140290025D02*
X103049810Y-140432882D01*
X103049810Y-140432882D02*
X102906953Y-140575739D01*
X102906953Y-140575739D02*
X102764095Y-140861453D01*
X102764095Y-140861453D02*
X102764095Y-141718596D01*
X102764095Y-141718596D02*
X102906953Y-142004310D01*
X102906953Y-142004310D02*
X103049810Y-142147168D01*
X103049810Y-142147168D02*
X103335524Y-142290025D01*
X103335524Y-142290025D02*
X103906953Y-142290025D01*
X103906953Y-142290025D02*
X104192667Y-142147168D01*
X101049809Y-142290025D02*
X101335524Y-142147168D01*
X101335524Y-142147168D02*
X101478381Y-142004310D01*
X101478381Y-142004310D02*
X101621238Y-141718596D01*
X101621238Y-141718596D02*
X101621238Y-140861453D01*
X101621238Y-140861453D02*
X101478381Y-140575739D01*
X101478381Y-140575739D02*
X101335524Y-140432882D01*
X101335524Y-140432882D02*
X101049809Y-140290025D01*
X101049809Y-140290025D02*
X100621238Y-140290025D01*
X100621238Y-140290025D02*
X100335524Y-140432882D01*
X100335524Y-140432882D02*
X100192667Y-140575739D01*
X100192667Y-140575739D02*
X100049809Y-140861453D01*
X100049809Y-140861453D02*
X100049809Y-141718596D01*
X100049809Y-141718596D02*
X100192667Y-142004310D01*
X100192667Y-142004310D02*
X100335524Y-142147168D01*
X100335524Y-142147168D02*
X100621238Y-142290025D01*
X100621238Y-142290025D02*
X101049809Y-142290025D01*
X98764095Y-142290025D02*
X98764095Y-140290025D01*
X98764095Y-140861453D02*
X98621238Y-140575739D01*
X98621238Y-140575739D02*
X98478381Y-140432882D01*
X98478381Y-140432882D02*
X98192666Y-140290025D01*
X98192666Y-140290025D02*
X97906952Y-140290025D01*
X97335523Y-140290025D02*
X96192666Y-140290025D01*
X96906952Y-139290025D02*
X96906952Y-141861453D01*
X96906952Y-141861453D02*
X96764095Y-142147168D01*
X96764095Y-142147168D02*
X96478380Y-142290025D01*
X96478380Y-142290025D02*
X96192666Y-142290025D01*
X148049812Y-145405571D02*
X144335527Y-145405571D01*
X147906955Y-144119857D02*
X147906955Y-144405571D01*
X147621241Y-144548428D02*
X144764098Y-144548428D01*
X147478384Y-144977000D02*
X144906955Y-144977000D01*
X147192669Y-145691285D02*
X147192669Y-146691285D01*
X145906955Y-146691285D02*
X144478384Y-146977000D01*
X147906955Y-144119857D02*
X144478384Y-144119857D01*
X144478384Y-144119857D02*
X144478384Y-144405571D01*
X147478384Y-145834142D02*
X145049812Y-145834142D01*
X145049812Y-145834142D02*
X145049812Y-146691285D01*
X146906955Y-144262714D02*
X146906955Y-145405571D01*
X146906955Y-145405571D02*
X147192669Y-145691285D01*
X147192669Y-145691285D02*
X148049812Y-145977000D01*
X146192669Y-146119857D02*
X146335527Y-146548428D01*
X146335527Y-146548428D02*
X146764098Y-146977000D01*
X146764098Y-146977000D02*
X147906955Y-147119857D01*
X145478384Y-144262714D02*
X145478384Y-145405571D01*
X145478384Y-145405571D02*
X145192669Y-145691285D01*
X145192669Y-145691285D02*
X144335527Y-146119857D01*
X143621241Y-146262714D02*
X139906956Y-146262714D01*
X143621241Y-144262714D02*
X139906956Y-144262714D01*
X143192670Y-145548428D02*
X140192670Y-145548428D01*
X142335527Y-143691285D02*
X142906956Y-145119857D01*
X141621241Y-144834142D02*
X141621241Y-147119857D01*
X139049813Y-144691285D02*
X138478385Y-144977000D01*
X138906956Y-143834142D02*
X138335527Y-144119857D01*
X138192670Y-146977000D02*
X137049813Y-147119857D01*
X138049813Y-144977000D02*
X135478385Y-144977000D01*
X137764099Y-147119857D02*
X135478385Y-147119857D01*
X137764099Y-143977000D02*
X135764099Y-143977000D01*
X137049813Y-144977000D02*
X137621242Y-146405571D01*
X136335527Y-145548428D02*
X135764099Y-145977000D01*
X139192670Y-145548428D02*
X138478385Y-145548428D01*
X138478385Y-145548428D02*
X138478385Y-146548428D01*
X138478385Y-146548428D02*
X139192670Y-147119857D01*
X137906956Y-146405571D02*
X137192670Y-146405571D01*
X137192670Y-146405571D02*
X136764099Y-146262714D01*
X136764099Y-146262714D02*
X136335527Y-146262714D01*
X136335527Y-146262714D02*
X135764099Y-146119857D01*
X135764099Y-146119857D02*
X135621242Y-146548428D01*
X134764099Y-144977000D02*
X133049814Y-144977000D01*
X134621242Y-144119857D02*
X133049814Y-144119857D01*
X134192671Y-144977000D02*
X134621242Y-146548428D01*
X132192671Y-145834142D02*
X132764099Y-146977000D01*
X132049814Y-147119857D02*
X131335528Y-147119857D01*
X133478385Y-145548428D02*
X133049814Y-146405571D01*
X133049814Y-146405571D02*
X134764099Y-146548428D01*
X132049814Y-143834142D02*
X132049814Y-144977000D01*
X132049814Y-144977000D02*
X132335528Y-146405571D01*
X132764099Y-144691285D02*
X131049814Y-144691285D01*
X131049814Y-144691285D02*
X131049814Y-145977000D01*
X131049814Y-145977000D02*
X131335528Y-147119857D01*
X130335528Y-146834142D02*
X128906957Y-146834142D01*
X130335528Y-145548428D02*
X128906957Y-145548428D01*
X130335528Y-144405571D02*
X130335528Y-147119857D01*
X129621243Y-143691285D02*
X129906957Y-144405571D01*
X128049814Y-145262714D02*
X127335528Y-146119857D01*
X127906957Y-143691285D02*
X128621243Y-145119857D01*
X127764100Y-147119857D02*
X126906957Y-147119857D01*
X130335528Y-144405571D02*
X128906957Y-144405571D01*
X128906957Y-144405571D02*
X128906957Y-146834142D01*
X128192671Y-144405571D02*
X126621243Y-144405571D01*
X126621243Y-144405571D02*
X126621243Y-145834142D01*
X126621243Y-145834142D02*
X126906957Y-147119857D01*
X125906957Y-146548428D02*
X124049814Y-146548428D01*
X125906957Y-144691285D02*
X124192672Y-144691285D01*
X125621243Y-144262714D02*
X122335529Y-144262714D01*
X125621243Y-143834142D02*
X125621243Y-144262714D01*
X125621243Y-146119857D02*
X124335529Y-146119857D01*
X125621243Y-145834142D02*
X124335529Y-145834142D01*
X125621243Y-145405571D02*
X124335529Y-145405571D01*
X125621243Y-145119857D02*
X125621243Y-146548428D01*
X125335529Y-146691285D02*
X125764100Y-147119857D01*
X125049814Y-144405571D02*
X125049814Y-145119857D01*
X124621243Y-146691285D02*
X124335529Y-146977000D01*
X124049814Y-143691285D02*
X124049814Y-144262714D01*
X123906957Y-144548428D02*
X122192672Y-144548428D01*
X123764100Y-145119857D02*
X123764100Y-146548428D01*
X123192672Y-144548428D02*
X123192672Y-145119857D01*
X123049814Y-145548428D02*
X123192672Y-146691285D01*
X122764100Y-146691285D02*
X122335529Y-146977000D01*
X122335529Y-143834142D02*
X122335529Y-144262714D01*
X125621243Y-145119857D02*
X124335529Y-145119857D01*
X124335529Y-145119857D02*
X124335529Y-146548428D01*
X123764100Y-145119857D02*
X122335529Y-145119857D01*
X122335529Y-145119857D02*
X122335529Y-146548428D01*
X123192672Y-146548428D02*
X123478386Y-146977000D01*
X123478386Y-146977000D02*
X124049814Y-147119857D01*
X121478386Y-146262714D02*
X120478386Y-146262714D01*
X121478386Y-144548428D02*
X121478386Y-146691285D01*
X121049815Y-143691285D02*
X121049815Y-146262714D01*
X120478386Y-144548428D02*
X120478386Y-146548428D01*
X120049815Y-146548428D02*
X117764101Y-146548428D01*
X119906958Y-145691285D02*
X118049815Y-145691285D01*
X119764101Y-146119857D02*
X118049815Y-146119857D01*
X119192672Y-143834142D02*
X120049815Y-144691285D01*
X118906958Y-145262714D02*
X118906958Y-147119857D01*
X119478386Y-144119857D02*
X118906958Y-144834142D01*
X118906958Y-144834142D02*
X117906958Y-145262714D01*
X119478386Y-144119857D02*
X118192672Y-144119857D01*
X118192672Y-144119857D02*
X118906958Y-144834142D01*
X118906958Y-144834142D02*
X120192672Y-145405571D01*
D13*
X96578007Y-56093857D02*
X97578007Y-54665285D01*
X98292293Y-56093857D02*
X98292293Y-53093857D01*
X98292293Y-53093857D02*
X97149436Y-53093857D01*
X97149436Y-53093857D02*
X96863721Y-53236714D01*
X96863721Y-53236714D02*
X96720864Y-53379571D01*
X96720864Y-53379571D02*
X96578007Y-53665285D01*
X96578007Y-53665285D02*
X96578007Y-54093857D01*
X96578007Y-54093857D02*
X96720864Y-54379571D01*
X96720864Y-54379571D02*
X96863721Y-54522428D01*
X96863721Y-54522428D02*
X97149436Y-54665285D01*
X97149436Y-54665285D02*
X98292293Y-54665285D01*
X95292293Y-56093857D02*
X95292293Y-53093857D01*
X93863722Y-56093857D02*
X93863722Y-53093857D01*
X93863722Y-53093857D02*
X92720865Y-53093857D01*
X92720865Y-53093857D02*
X92435150Y-53236714D01*
X92435150Y-53236714D02*
X92292293Y-53379571D01*
X92292293Y-53379571D02*
X92149436Y-53665285D01*
X92149436Y-53665285D02*
X92149436Y-54093857D01*
X92149436Y-54093857D02*
X92292293Y-54379571D01*
X92292293Y-54379571D02*
X92435150Y-54522428D01*
X92435150Y-54522428D02*
X92720865Y-54665285D01*
X92720865Y-54665285D02*
X93863722Y-54665285D01*
X88578008Y-56093857D02*
X88578008Y-53093857D01*
X88578008Y-53093857D02*
X87863722Y-53093857D01*
X87863722Y-53093857D02*
X87435151Y-53236714D01*
X87435151Y-53236714D02*
X87149436Y-53522428D01*
X87149436Y-53522428D02*
X87006579Y-53808142D01*
X87006579Y-53808142D02*
X86863722Y-54379571D01*
X86863722Y-54379571D02*
X86863722Y-54808142D01*
X86863722Y-54808142D02*
X87006579Y-55379571D01*
X87006579Y-55379571D02*
X87149436Y-55665285D01*
X87149436Y-55665285D02*
X87435151Y-55951000D01*
X87435151Y-55951000D02*
X87863722Y-56093857D01*
X87863722Y-56093857D02*
X88578008Y-56093857D01*
X83863722Y-56093857D02*
X84863722Y-54665285D01*
X85578008Y-56093857D02*
X85578008Y-53093857D01*
X85578008Y-53093857D02*
X84435151Y-53093857D01*
X84435151Y-53093857D02*
X84149436Y-53236714D01*
X84149436Y-53236714D02*
X84006579Y-53379571D01*
X84006579Y-53379571D02*
X83863722Y-53665285D01*
X83863722Y-53665285D02*
X83863722Y-54093857D01*
X83863722Y-54093857D02*
X84006579Y-54379571D01*
X84006579Y-54379571D02*
X84149436Y-54522428D01*
X84149436Y-54522428D02*
X84435151Y-54665285D01*
X84435151Y-54665285D02*
X85578008Y-54665285D01*
X82720865Y-55951000D02*
X82292294Y-56093857D01*
X82292294Y-56093857D02*
X81578008Y-56093857D01*
X81578008Y-56093857D02*
X81292294Y-55951000D01*
X81292294Y-55951000D02*
X81149436Y-55808142D01*
X81149436Y-55808142D02*
X81006579Y-55522428D01*
X81006579Y-55522428D02*
X81006579Y-55236714D01*
X81006579Y-55236714D02*
X81149436Y-54951000D01*
X81149436Y-54951000D02*
X81292294Y-54808142D01*
X81292294Y-54808142D02*
X81578008Y-54665285D01*
X81578008Y-54665285D02*
X82149436Y-54522428D01*
X82149436Y-54522428D02*
X82435151Y-54379571D01*
X82435151Y-54379571D02*
X82578008Y-54236714D01*
X82578008Y-54236714D02*
X82720865Y-53951000D01*
X82720865Y-53951000D02*
X82720865Y-53665285D01*
X82720865Y-53665285D02*
X82578008Y-53379571D01*
X82578008Y-53379571D02*
X82435151Y-53236714D01*
X82435151Y-53236714D02*
X82149436Y-53093857D01*
X82149436Y-53093857D02*
X81435151Y-53093857D01*
X81435151Y-53093857D02*
X81006579Y-53236714D01*
X77578008Y-53379571D02*
X77435151Y-53236714D01*
X77435151Y-53236714D02*
X77149437Y-53093857D01*
X77149437Y-53093857D02*
X76435151Y-53093857D01*
X76435151Y-53093857D02*
X76149437Y-53236714D01*
X76149437Y-53236714D02*
X76006579Y-53379571D01*
X76006579Y-53379571D02*
X75863722Y-53665285D01*
X75863722Y-53665285D02*
X75863722Y-53951000D01*
X75863722Y-53951000D02*
X76006579Y-54379571D01*
X76006579Y-54379571D02*
X77720865Y-56093857D01*
X77720865Y-56093857D02*
X75863722Y-56093857D01*
X74006579Y-53093857D02*
X73720865Y-53093857D01*
X73720865Y-53093857D02*
X73435151Y-53236714D01*
X73435151Y-53236714D02*
X73292294Y-53379571D01*
X73292294Y-53379571D02*
X73149436Y-53665285D01*
X73149436Y-53665285D02*
X73006579Y-54236714D01*
X73006579Y-54236714D02*
X73006579Y-54951000D01*
X73006579Y-54951000D02*
X73149436Y-55522428D01*
X73149436Y-55522428D02*
X73292294Y-55808142D01*
X73292294Y-55808142D02*
X73435151Y-55951000D01*
X73435151Y-55951000D02*
X73720865Y-56093857D01*
X73720865Y-56093857D02*
X74006579Y-56093857D01*
X74006579Y-56093857D02*
X74292294Y-55951000D01*
X74292294Y-55951000D02*
X74435151Y-55808142D01*
X74435151Y-55808142D02*
X74578008Y-55522428D01*
X74578008Y-55522428D02*
X74720865Y-54951000D01*
X74720865Y-54951000D02*
X74720865Y-54236714D01*
X74720865Y-54236714D02*
X74578008Y-53665285D01*
X74578008Y-53665285D02*
X74435151Y-53379571D01*
X74435151Y-53379571D02*
X74292294Y-53236714D01*
X74292294Y-53236714D02*
X74006579Y-53093857D01*
X70149436Y-56093857D02*
X71863722Y-56093857D01*
X71006579Y-56093857D02*
X71006579Y-53093857D01*
X71006579Y-53093857D02*
X71292293Y-53522428D01*
X71292293Y-53522428D02*
X71578008Y-53808142D01*
X71578008Y-53808142D02*
X71863722Y-53951000D01*
X67292293Y-56093857D02*
X69006579Y-56093857D01*
X68149436Y-56093857D02*
X68149436Y-53093857D01*
X68149436Y-53093857D02*
X68435150Y-53522428D01*
X68435150Y-53522428D02*
X68720865Y-53808142D01*
X68720865Y-53808142D02*
X69006579Y-53951000D01*
X66292293Y-55093857D02*
X63720865Y-55093857D01*
X62720865Y-53379571D02*
X62578008Y-53236714D01*
X62578008Y-53236714D02*
X62292294Y-53093857D01*
X62292294Y-53093857D02*
X61578008Y-53093857D01*
X61578008Y-53093857D02*
X61292294Y-53236714D01*
X61292294Y-53236714D02*
X61149436Y-53379571D01*
X61149436Y-53379571D02*
X61006579Y-53665285D01*
X61006579Y-53665285D02*
X61006579Y-53951000D01*
X61006579Y-53951000D02*
X61149436Y-54379571D01*
X61149436Y-54379571D02*
X62863722Y-56093857D01*
X62863722Y-56093857D02*
X61006579Y-56093857D01*
X59149436Y-53093857D02*
X58863722Y-53093857D01*
X58863722Y-53093857D02*
X58578008Y-53236714D01*
X58578008Y-53236714D02*
X58435151Y-53379571D01*
X58435151Y-53379571D02*
X58292293Y-53665285D01*
X58292293Y-53665285D02*
X58149436Y-54236714D01*
X58149436Y-54236714D02*
X58149436Y-54951000D01*
X58149436Y-54951000D02*
X58292293Y-55522428D01*
X58292293Y-55522428D02*
X58435151Y-55808142D01*
X58435151Y-55808142D02*
X58578008Y-55951000D01*
X58578008Y-55951000D02*
X58863722Y-56093857D01*
X58863722Y-56093857D02*
X59149436Y-56093857D01*
X59149436Y-56093857D02*
X59435151Y-55951000D01*
X59435151Y-55951000D02*
X59578008Y-55808142D01*
X59578008Y-55808142D02*
X59720865Y-55522428D01*
X59720865Y-55522428D02*
X59863722Y-54951000D01*
X59863722Y-54951000D02*
X59863722Y-54236714D01*
X59863722Y-54236714D02*
X59720865Y-53665285D01*
X59720865Y-53665285D02*
X59578008Y-53379571D01*
X59578008Y-53379571D02*
X59435151Y-53236714D01*
X59435151Y-53236714D02*
X59149436Y-53093857D01*
X57006579Y-53379571D02*
X56863722Y-53236714D01*
X56863722Y-53236714D02*
X56578008Y-53093857D01*
X56578008Y-53093857D02*
X55863722Y-53093857D01*
X55863722Y-53093857D02*
X55578008Y-53236714D01*
X55578008Y-53236714D02*
X55435150Y-53379571D01*
X55435150Y-53379571D02*
X55292293Y-53665285D01*
X55292293Y-53665285D02*
X55292293Y-53951000D01*
X55292293Y-53951000D02*
X55435150Y-54379571D01*
X55435150Y-54379571D02*
X57149436Y-56093857D01*
X57149436Y-56093857D02*
X55292293Y-56093857D01*
X52578007Y-53093857D02*
X54006579Y-53093857D01*
X54006579Y-53093857D02*
X54149436Y-54522428D01*
X54149436Y-54522428D02*
X54006579Y-54379571D01*
X54006579Y-54379571D02*
X53720865Y-54236714D01*
X53720865Y-54236714D02*
X53006579Y-54236714D01*
X53006579Y-54236714D02*
X52720865Y-54379571D01*
X52720865Y-54379571D02*
X52578007Y-54522428D01*
X52578007Y-54522428D02*
X52435150Y-54808142D01*
X52435150Y-54808142D02*
X52435150Y-55522428D01*
X52435150Y-55522428D02*
X52578007Y-55808142D01*
X52578007Y-55808142D02*
X52720865Y-55951000D01*
X52720865Y-55951000D02*
X53006579Y-56093857D01*
X53006579Y-56093857D02*
X53720865Y-56093857D01*
X53720865Y-56093857D02*
X54006579Y-55951000D01*
X54006579Y-55951000D02*
X54149436Y-55808142D01*
M02*
