M48
; DRILL file KiCad 10.0.3 date 2026-06-19T22:09:58
; FORMAT={-:-/ absolute / metric / decimal}
; #@! TF.CreationDate,2026-06-19T22:09:58-04:00
; #@! TF.GenerationSoftware,Kicad,Pcbnew,10.0.3
; #@! TF.FileFunction,NonPlated,1,2,NPTH
FMAT,2
METRIC
; #@! TA.AperFunction,NonPlated,NPTH,ComponentDrill
T1C1.700
; #@! TA.AperFunction,NonPlated,NPTH,ComponentDrill
T2C2.000
; #@! TA.AperFunction,NonPlated,NPTH,ComponentDrill
T3C4.000
%
G90
G05
T1
X73.92Y-95.5
X73.92Y-116.58
X73.92Y-138.08
X84.08Y-95.5
X84.08Y-116.58
X84.08Y-138.08
X94.92Y-95.5
X94.92Y-116.5
X94.92Y-138.0
X105.08Y-95.5
X105.08Y-116.5
X105.08Y-138.0
X115.92Y-95.5
X115.92Y-116.5
X115.92Y-138.0
X126.08Y-95.5
X126.08Y-116.5
X126.08Y-138.0
T2
X54.0Y-54.0
X54.0Y-146.0
X146.0Y-54.0
X146.0Y-146.0
T3
X79.0Y-95.5
X79.0Y-116.58
X79.0Y-138.08
X100.0Y-95.5
X100.0Y-116.5
X100.0Y-138.0
X121.0Y-95.5
X121.0Y-116.5
X121.0Y-138.0
M30
