%TF.GenerationSoftware,KiCad,Pcbnew,10.0.3*%
%TF.CreationDate,2026-06-19T22:09:56-04:00*%
%TF.ProjectId,drspad,64727370-6164-42e6-9b69-6361645f7063,rev?*%
%TF.SameCoordinates,Original*%
%TF.FileFunction,Legend,Top*%
%TF.FilePolarity,Positive*%
%FSLAX46Y46*%
G04 Gerber Fmt 4.6, Leading zero omitted, Abs format (unit mm)*
G04 Created by KiCad (PCBNEW 10.0.3) date 2026-06-19 22:09:56*
%MOMM*%
%LPD*%
G01*
G04 APERTURE LIST*
%ADD10C,0.245112*%
%ADD11C,0.224395*%
%ADD12C,0.150000*%
%ADD13C,0.101600*%
%ADD14C,0.120000*%
%ADD15C,0.127000*%
%ADD16C,0.100000*%
%ADD17C,0.504000*%
G04 APERTURE END LIST*
D10*
X51706133Y-130893440D02*
G75*
G02*
X51720201Y-130833787I119767J3240D01*
G01*
X51718420Y-130974202D02*
G75*
G02*
X51706139Y-130893440I368180J97302D01*
G01*
X51720181Y-130833776D02*
G75*
G02*
X51964195Y-130486169I1513819J-803224D01*
G01*
X51760560Y-131102352D02*
G75*
G02*
X51718427Y-130974200I1037940J412252D01*
G01*
X51760560Y-131102352D02*
X51858865Y-131342825D01*
X51830772Y-118182178D02*
X51814966Y-118940520D01*
X51858865Y-131342825D02*
X51936108Y-131527156D01*
X51869374Y-119597066D02*
G75*
G02*
X51814971Y-118940520I5359926J774666D01*
G01*
X51869374Y-119597066D02*
X51972967Y-120181641D01*
X51909773Y-117399220D02*
X51830772Y-118182178D01*
X51909773Y-117399220D02*
G75*
G02*
X52050202Y-116667215I7598727J-1078280D01*
G01*
X51936108Y-131527156D02*
X52018594Y-131729023D01*
X51972967Y-120181641D02*
X52123934Y-120824136D01*
X52018594Y-131729023D02*
X52095855Y-131915108D01*
X52095855Y-131915108D02*
X52153767Y-132053813D01*
X52123934Y-120824136D02*
X52306519Y-121468379D01*
X52143253Y-116277474D02*
X52050203Y-116667215D01*
X52153767Y-132053813D02*
X52209948Y-132190733D01*
X52209948Y-132190733D02*
X52288960Y-132375044D01*
X52288960Y-132375044D02*
X52373213Y-132571654D01*
X52306519Y-121468379D02*
X52510138Y-122067000D01*
X52324063Y-116187979D02*
X52143253Y-116277474D01*
X52324063Y-116187979D02*
G75*
G02*
X52915655Y-115935177I2668737J-5426621D01*
G01*
X52373213Y-132571654D02*
X52452213Y-132754222D01*
X52452213Y-132754222D02*
X52531204Y-132935043D01*
X52504870Y-129910380D02*
X51964193Y-130486168D01*
X52510138Y-122067000D02*
X52671637Y-122479513D01*
X52531204Y-132935043D02*
X52613696Y-133128133D01*
X52613696Y-133128133D02*
X52692703Y-133307190D01*
X52671637Y-122479513D02*
X52822618Y-122797261D01*
X52692703Y-133307190D02*
X52748886Y-133437080D01*
X52748886Y-133437080D02*
X53343991Y-134743171D01*
X52915654Y-115935175D02*
G75*
G02*
X53561665Y-115729794I2581046J-6999825D01*
G01*
X52956018Y-124538681D02*
X52966557Y-124573791D01*
X52956018Y-124538681D02*
G75*
G02*
X52978798Y-124524670I12082J5881D01*
G01*
X52966557Y-124573791D02*
X52998161Y-124677350D01*
X52971812Y-123046522D02*
G75*
G02*
X52822616Y-122797262I2140388J1450422D01*
G01*
X52998161Y-124677350D02*
X53036778Y-124801977D01*
X53036778Y-124801977D02*
X53078911Y-124940677D01*
X53077143Y-118529740D02*
X53092947Y-118062777D01*
X53078911Y-124940677D02*
X53128071Y-125098672D01*
X53092947Y-118062777D02*
X53140352Y-117615155D01*
X53121044Y-119326723D02*
G75*
G02*
X53077138Y-118529740I7197756J796223D01*
G01*
X53126300Y-123236130D02*
G75*
G02*
X52971810Y-123046523I1025400J993230D01*
G01*
X53126300Y-123236130D02*
X53410681Y-123504719D01*
X53128071Y-125098672D02*
X53185990Y-125286496D01*
X53140352Y-117615155D02*
X53203539Y-117235960D01*
X53173698Y-129260854D02*
X52504870Y-129910380D01*
X53185990Y-125286496D02*
X53243906Y-125470838D01*
X53203539Y-117235960D02*
G75*
G02*
X53275516Y-117123622I177561J-34540D01*
G01*
X53243906Y-125470838D02*
X53291321Y-125623556D01*
X53252702Y-120135971D02*
G75*
G02*
X53121039Y-119326724I7219098J1589871D01*
G01*
X53275509Y-117123612D02*
G75*
G02*
X53556393Y-116995483I457591J-631188D01*
G01*
X53291321Y-125623556D02*
X53336966Y-125776273D01*
X53319392Y-124875729D02*
X52978865Y-124524619D01*
X53331673Y-131204165D02*
G75*
G02*
X53340495Y-131111131I253827J22865D01*
G01*
X53336966Y-125776273D02*
X53393133Y-125957089D01*
X53340482Y-131111127D02*
G75*
G02*
X53433511Y-130933813I410618J-102373D01*
G01*
X53343991Y-134743171D02*
X54072511Y-136189660D01*
X53352775Y-131311238D02*
G75*
G02*
X53331675Y-131204165I715625J196638D01*
G01*
X53393133Y-125957089D02*
X53449311Y-126137909D01*
X53407177Y-131467466D02*
G75*
G02*
X53352775Y-131311238I1381523J568666D01*
G01*
X53410681Y-123504719D02*
X53830223Y-123857552D01*
X53433519Y-130933820D02*
X53714395Y-130640656D01*
X53449311Y-126137909D02*
X53496700Y-126290626D01*
X53482652Y-120990893D02*
G75*
G02*
X53252699Y-120135972I8878148J2846393D01*
G01*
X53496700Y-126290626D02*
X53545875Y-126443350D01*
X53526552Y-131751857D02*
X53407177Y-131467466D01*
X53545875Y-126443350D02*
X53603792Y-126632934D01*
X53556395Y-116995490D02*
X54318257Y-116846258D01*
X53561665Y-115729793D02*
G75*
G02*
X54223450Y-115582332I1968535J-7275807D01*
G01*
X53596760Y-131913370D02*
X53526552Y-131751857D01*
X53603792Y-126632934D02*
X53661706Y-126826058D01*
X53661706Y-126826058D02*
X53712624Y-126991040D01*
X53672258Y-132090660D02*
X53596760Y-131913370D01*
X53698591Y-125284759D02*
X53319392Y-124875729D01*
X53712624Y-126991040D02*
X53763534Y-127154328D01*
X53714395Y-130640656D02*
X54147959Y-130243914D01*
X53744237Y-132259160D02*
X53672258Y-132090660D01*
X53763534Y-127154328D02*
X53819720Y-127342143D01*
X53798654Y-132385580D02*
X53744237Y-132259160D01*
X53819720Y-121928303D02*
X53482652Y-120990893D01*
X53819720Y-127342143D02*
X53875894Y-127526480D01*
X53830223Y-123857552D02*
X54272637Y-124212183D01*
X53865335Y-122049427D02*
X53819720Y-121928303D01*
X53875894Y-127526480D02*
X53921529Y-127673913D01*
X53895201Y-128620129D02*
X53173698Y-129260854D01*
X53910990Y-122182860D02*
X53865335Y-122049427D01*
X53921529Y-127673913D02*
X54009294Y-127963564D01*
X53951377Y-122307500D02*
X53910990Y-122182860D01*
X53975956Y-122400517D02*
X53951377Y-122307500D01*
X53986478Y-128541124D02*
X53895201Y-128620129D01*
X54009294Y-127963564D02*
X54076024Y-128188272D01*
X54035629Y-122683140D02*
X53975956Y-122400517D01*
X54063731Y-128472661D02*
X53986478Y-128541124D01*
X54072511Y-136189660D02*
X54841387Y-137608080D01*
X54076024Y-125711322D02*
X53698591Y-125284759D01*
X54076024Y-128188272D02*
X54128681Y-128369068D01*
X54126907Y-128411218D02*
X54063731Y-128472661D01*
X54128681Y-128369068D02*
G75*
G02*
X54132208Y-128398946I-86281J-25332D01*
G01*
X54132192Y-128398945D02*
G75*
G02*
X54126921Y-128411232I-17992J445D01*
G01*
X54147959Y-130243914D02*
X54815063Y-129678650D01*
X54163766Y-123364279D02*
X54035629Y-122683140D01*
X54172561Y-133219424D02*
X53798654Y-132385580D01*
X54223450Y-115582330D02*
G75*
G02*
X54867728Y-115501574I1122350J-6343770D01*
G01*
X54298957Y-124099812D02*
X54163766Y-123364279D01*
X54298957Y-124099812D02*
G75*
G02*
X54307727Y-124196351I-499957J-94088D01*
G01*
X54307719Y-124196351D02*
G75*
G02*
X54272656Y-124212161I-21119J51D01*
G01*
X54318257Y-116846258D02*
X55108233Y-116726880D01*
X54590366Y-126332746D02*
X54076024Y-125711322D01*
X54706223Y-134339412D02*
X54172561Y-133219424D01*
X54815063Y-129678650D02*
X55292542Y-129276667D01*
X54841387Y-137608080D02*
X55568145Y-138833370D01*
X54978319Y-126850619D02*
X54590366Y-126332746D01*
X55108233Y-116726880D02*
G75*
G02*
X55703314Y-116690032I607967J-4994820D01*
G01*
X55255671Y-135447114D02*
X54706223Y-134339412D01*
X55278511Y-127322836D02*
X54978319Y-126850619D01*
X55278511Y-127322836D02*
G75*
G02*
X55524259Y-127796810I-4631711J-2702164D01*
G01*
X55292542Y-129276667D02*
X55605009Y-128995783D01*
X55324146Y-115478756D02*
X54867728Y-115501574D01*
X55325895Y-113426619D02*
X55438246Y-113495084D01*
X55438246Y-113495084D02*
X55870100Y-113740858D01*
X55541801Y-113105374D02*
X55325895Y-113426619D01*
X55568145Y-138833370D02*
X56229972Y-139849796D01*
X55605009Y-128995783D02*
X55815665Y-128790389D01*
X55627829Y-128037295D02*
X55524260Y-127796809D01*
X55640122Y-112959678D02*
X55541801Y-113105374D01*
X55673464Y-136240584D02*
X55255671Y-135447114D01*
X55703314Y-116690034D02*
X56077240Y-116705817D01*
X55738420Y-128328724D02*
X55627829Y-128037295D01*
X55748959Y-136377481D02*
X55673464Y-136240584D01*
X55761263Y-112791147D02*
X55640122Y-112959678D01*
X55826200Y-136516160D02*
X55748959Y-136377481D01*
X55833226Y-128604331D02*
X55738420Y-128328724D01*
X55833226Y-128604331D02*
G75*
G02*
X55849025Y-128706128I-279926J-95569D01*
G01*
X55849007Y-128706128D02*
G75*
G02*
X55815676Y-128790399I-126807J1428D01*
G01*
X55870100Y-113740858D02*
X56307205Y-113963816D01*
X55882391Y-112622613D02*
X55761263Y-112791147D01*
X55892910Y-136637312D02*
X55826200Y-136516160D01*
X55896432Y-115469983D02*
X55324146Y-115478756D01*
X55933281Y-136712792D02*
X55892910Y-136637312D01*
X55985950Y-112485704D02*
X55882391Y-112622613D01*
X55985950Y-112485704D02*
G75*
G02*
X56976010Y-111327101I11291150J-8646296D01*
G01*
X56077240Y-116705817D02*
X56602115Y-116751463D01*
X56229972Y-139849796D02*
X56940905Y-140853923D01*
X56307205Y-113963816D02*
X56700408Y-114142848D01*
X56323001Y-137393880D02*
X55933281Y-136712792D01*
X56461684Y-115476996D02*
X55896432Y-115469983D01*
X56602115Y-116751463D02*
X57126994Y-116812906D01*
X56777655Y-138136454D02*
X56323001Y-137393880D01*
X56839089Y-114160405D02*
G75*
G02*
X56700401Y-114142865I-36989J264605D01*
G01*
X56882966Y-114135825D02*
G75*
G02*
X56839087Y-114160395I-54366J45625D01*
G01*
X56891760Y-115498078D02*
X56461684Y-115476996D01*
X56891760Y-115498078D02*
G75*
G02*
X57490372Y-115571774I-499360J-6524222D01*
G01*
X56939155Y-114056832D02*
G75*
G02*
X56882964Y-114135823I-526755J315232D01*
G01*
X56940905Y-140853923D02*
X57653627Y-141780777D01*
X56976006Y-111327097D02*
G75*
G02*
X58124090Y-110229935I12310794J-11732903D01*
G01*
X57011129Y-113925170D02*
G75*
G02*
X56939154Y-114056831I-1365129J660770D01*
G01*
X57011129Y-113925170D02*
X57112941Y-113705734D01*
X57095396Y-133173773D02*
G75*
G02*
X57126992Y-133057919I231604J-927D01*
G01*
X57112941Y-113705734D02*
X57311317Y-113298474D01*
X57121747Y-133307190D02*
G75*
G02*
X57095393Y-133173773I287953J126190D01*
G01*
X57121747Y-133307190D02*
X57242851Y-133565242D01*
X57126994Y-116812906D02*
X57513193Y-116877860D01*
X57126994Y-133057920D02*
G75*
G02*
X57246374Y-132889388I1164006J-697980D01*
G01*
X57242851Y-133565242D02*
X58057384Y-135087243D01*
X57246371Y-132889386D02*
G75*
G02*
X57874819Y-132220579I4526429J-3623614D01*
G01*
X57262187Y-138887804D02*
X56777655Y-138136454D01*
X57311317Y-113298474D02*
X57514934Y-112931580D01*
X57335896Y-124136680D02*
G75*
G02*
X57369257Y-123952364I1000004J-85820D01*
G01*
X57342914Y-124299917D02*
G75*
G02*
X57335899Y-124136680I613086J108117D01*
G01*
X57390322Y-124505323D02*
G75*
G02*
X57342916Y-124299917I1598178J477023D01*
G01*
X57460543Y-123655686D02*
X57369253Y-123952363D01*
X57513193Y-116877860D02*
X57686991Y-116911214D01*
X57514934Y-112931580D02*
X57764238Y-112534848D01*
X57653627Y-141780777D02*
X58318957Y-142567231D01*
X57674689Y-125196992D02*
G75*
G02*
X57390324Y-124505323I3372911J1790992D01*
G01*
X57686991Y-116911214D02*
X57862522Y-116944575D01*
X57741417Y-124215676D02*
G75*
G02*
X57839714Y-123787337I963783J4276D01*
G01*
X57746675Y-139597006D02*
X57262187Y-138887804D01*
X57764238Y-112534848D02*
X58106539Y-112031033D01*
X57778273Y-124438626D02*
G75*
G02*
X57741410Y-124215676I705827J231226D01*
G01*
X57839714Y-123787337D02*
X58332991Y-122828866D01*
X57862522Y-116944575D02*
X58015254Y-116970897D01*
X57874814Y-132220574D02*
G75*
G02*
X58729732Y-131527154I7507786J-8382626D01*
G01*
X57911694Y-122454950D02*
X57460543Y-123655686D01*
X57911694Y-122454950D02*
G75*
G02*
X58404966Y-121419248I10576106J-4401750D01*
G01*
X57920450Y-124830077D02*
X57778273Y-124438626D01*
X58015254Y-116970897D02*
X58108307Y-116986679D01*
X58057384Y-135087243D02*
X58940376Y-136565333D01*
X58104786Y-115698190D02*
X57490371Y-115571778D01*
X58104786Y-125258404D02*
X57920450Y-124830077D01*
X58106539Y-112031033D02*
G75*
G02*
X58852599Y-111067284I10115861J-7060267D01*
G01*
X58108307Y-116986679D02*
G75*
G02*
X58189037Y-117002487I-88307J-665021D01*
G01*
X58124090Y-110229935D02*
G75*
G02*
X59403826Y-109220536I11420710J-13163465D01*
G01*
X58125855Y-125921984D02*
G75*
G02*
X57674690Y-125196992I4758945J3464384D01*
G01*
X58189037Y-117002487D02*
X58285598Y-117028829D01*
X58222402Y-133273846D02*
X58376888Y-133149218D01*
X58243475Y-133468687D02*
X58222402Y-133273846D01*
X58261010Y-133568738D02*
G75*
G02*
X58243476Y-133468687I659490J167138D01*
G01*
X58285598Y-117028829D02*
X58383913Y-117060429D01*
X58301401Y-133710967D02*
X58261010Y-133568738D01*
X58308423Y-125646365D02*
X58104786Y-125258404D01*
X58318957Y-142567231D02*
X59277434Y-143587163D01*
X58332991Y-122828866D02*
X58924570Y-121807196D01*
X58350525Y-133867193D02*
X58301401Y-133710967D01*
X58376888Y-133149218D02*
X58457619Y-133087777D01*
X58383913Y-117060429D02*
X58466411Y-117095527D01*
X58404967Y-121419248D02*
G75*
G02*
X58977244Y-120478310I9202333J-4952352D01*
G01*
X58408479Y-134014642D02*
X58350525Y-133867193D01*
X58457619Y-133087777D02*
X58582266Y-132998221D01*
X58582266Y-117141184D02*
G75*
G02*
X58466410Y-117095529I367334J1101984D01*
G01*
X58582266Y-132998221D02*
X58724452Y-132899947D01*
X58671789Y-115863220D02*
X58104786Y-115698190D01*
X58671789Y-115863220D02*
G75*
G02*
X59124702Y-116051049I-1115789J-3330480D01*
G01*
X58687582Y-117165750D02*
G75*
G02*
X58582263Y-117141192I67118J525950D01*
G01*
X58699872Y-126241468D02*
G75*
G02*
X58308423Y-125646365I4568328J3431268D01*
G01*
X58706895Y-134685219D02*
X58408479Y-134014642D01*
X58724452Y-132899947D02*
X58863149Y-132806895D01*
X58729733Y-131527156D02*
G75*
G02*
X59682946Y-130898690I6664967J-9071844D01*
G01*
X58736759Y-126662785D02*
G75*
G02*
X58125853Y-125921986I5987441J5559885D01*
G01*
X58742013Y-140901306D02*
X57746675Y-139597006D01*
X58826283Y-117176293D02*
G75*
G02*
X58687581Y-117165754I7817J1020893D01*
G01*
X58826283Y-117176293D02*
X59079061Y-117176293D01*
X58852599Y-111067284D02*
X59777748Y-110063176D01*
X58863149Y-132806895D02*
X58996542Y-132717351D01*
X58924570Y-121807196D02*
X59523192Y-120929443D01*
X58940376Y-136565333D02*
X59856723Y-137939844D01*
X58977248Y-120478313D02*
G75*
G02*
X59665401Y-119563704I10081552J-6869187D01*
G01*
X58996542Y-132717351D02*
X59122950Y-132633084D01*
X59079061Y-117176293D02*
X59279183Y-117172783D01*
X59122950Y-132633084D02*
X59230032Y-132562878D01*
X59207204Y-126859380D02*
G75*
G02*
X58699872Y-126241468I6790696J6092680D01*
G01*
X59230032Y-132562878D02*
X59282682Y-132526024D01*
X59259882Y-135794679D02*
X58706895Y-134685219D01*
X59277434Y-143587163D02*
X60188501Y-144457894D01*
X59279183Y-117172783D02*
X59526714Y-117167516D01*
X59282682Y-132526024D02*
G75*
G02*
X59451219Y-132425956I812918J-1177176D01*
G01*
X59365216Y-116184455D02*
X59124705Y-116051043D01*
X59365216Y-116184455D02*
G75*
G02*
X59584651Y-116331906I-1442316J-2383445D01*
G01*
X59403827Y-109220538D02*
G75*
G02*
X60788881Y-108318234I10992473J-15359462D01*
G01*
X59451219Y-132425956D02*
X59840931Y-132220574D01*
X59495097Y-127407090D02*
G75*
G02*
X58736758Y-126662786I8014003J8923590D01*
G01*
X59495097Y-127407090D02*
X59851466Y-127710789D01*
X59523192Y-120929443D02*
G75*
G02*
X60378110Y-119899002I9918408J-7359057D01*
G01*
X59526714Y-117167516D02*
X59781251Y-117158731D01*
X59682947Y-130898692D02*
G75*
G02*
X60615093Y-130421215I4245153J-7138908D01*
G01*
X59739097Y-113440670D02*
G75*
G02*
X59746166Y-113396783I165403J-4130D01*
G01*
X59774225Y-113565307D02*
G75*
G02*
X59739110Y-113440670I185075J119407D01*
G01*
X59774225Y-113565307D02*
X60053339Y-113991894D01*
X59777748Y-110063176D02*
X60834544Y-109060786D01*
X59781251Y-113316031D02*
X59746152Y-113396779D01*
X59781251Y-117158731D02*
X59998931Y-117149958D01*
X59818100Y-127487839D02*
X59207204Y-126859380D01*
X59821620Y-116519751D02*
X59584653Y-116331904D01*
X59826903Y-113222995D02*
X59781251Y-113316031D01*
X59835662Y-136907644D02*
X59259882Y-135794679D01*
X59840931Y-132220574D02*
X60235910Y-132020450D01*
X59847955Y-142151191D02*
X58742013Y-140901306D01*
X59851466Y-127710789D02*
X60302604Y-128063649D01*
X59856723Y-137939844D02*
X60767815Y-139147614D01*
X59883062Y-113126448D02*
X59826903Y-113222995D01*
X59883062Y-113126448D02*
G75*
G02*
X61043417Y-111543011I9934838J-6063452D01*
G01*
X59998931Y-117149958D02*
X60486942Y-117127138D01*
X60053339Y-113991894D02*
X60437781Y-114550113D01*
X60118284Y-116786553D02*
X59821620Y-116519751D01*
X60188501Y-144457894D02*
X61062722Y-145186385D01*
X60230643Y-118933503D02*
X59665399Y-119563702D01*
X60235910Y-132020450D02*
X60474668Y-131911603D01*
X60246439Y-137641400D02*
X59835662Y-136907644D01*
X60302604Y-128063649D02*
X60739734Y-128386648D01*
X60378106Y-119898998D02*
G75*
G02*
X61312016Y-119007224I7833094J-7268302D01*
G01*
X60437781Y-114550113D02*
X60981979Y-115304953D01*
X60474668Y-131911603D02*
X60583482Y-131865971D01*
X60486942Y-117127138D02*
X60118284Y-116786553D01*
X60527325Y-128119802D02*
X59818100Y-127487839D01*
X60553654Y-138155779D02*
X60246439Y-137641400D01*
X60583482Y-131865971D02*
X60727442Y-131809783D01*
X60704615Y-130382585D02*
X60615092Y-130421214D01*
X60727442Y-131809783D02*
X60880165Y-131751857D01*
X60767815Y-138503343D02*
X60553654Y-138155779D01*
X60767815Y-139147614D02*
X61136473Y-139593506D01*
X60787134Y-130351014D02*
X60704615Y-130382585D01*
X60822247Y-128369068D02*
X60527325Y-128119802D01*
X60834544Y-109060786D02*
X61977321Y-108109318D01*
X60855594Y-130324670D02*
X60787134Y-130351014D01*
X60855594Y-130324670D02*
G75*
G02*
X60880165Y-130319425I35606J-106630D01*
G01*
X60880165Y-130319422D02*
G75*
G02*
X60899478Y-130329929I2135J-19078D01*
G01*
X60880165Y-131751857D02*
X61017096Y-131702710D01*
X60899488Y-130329924D02*
G75*
G02*
X60924046Y-130373812I-238688J-162376D01*
G01*
X60924045Y-130373813D02*
G75*
G02*
X60950371Y-130433497I-427445J-224187D01*
G01*
X60966183Y-108214684D02*
X60788881Y-108318233D01*
X60966183Y-138815815D02*
X60767815Y-138503343D01*
X60967945Y-128495480D02*
X60822247Y-128369068D01*
X60967945Y-128495480D02*
G75*
G02*
X61008313Y-128539354I-315745J-331020D01*
G01*
X60974977Y-130503705D02*
X60950369Y-130433498D01*
X60981979Y-115304953D02*
X61120667Y-115496300D01*
X60999534Y-128548155D02*
G75*
G02*
X60739733Y-128386649I1271366J2334855D01*
G01*
X61004786Y-130600286D02*
X60974977Y-130503705D01*
X61004786Y-143283449D02*
X59847955Y-142151191D01*
X61008311Y-128539355D02*
G75*
G02*
X60999484Y-128548230I-5311J-3545D01*
G01*
X61015338Y-118155830D02*
X60230643Y-118933503D01*
X61017096Y-131702710D02*
X61152255Y-131651790D01*
X61043416Y-111543010D02*
G75*
G02*
X62605775Y-109950822I14435984J-12602890D01*
G01*
X61057471Y-130751241D02*
X61004786Y-130600286D01*
X61115410Y-130921530D02*
X61057471Y-130751241D01*
X61120667Y-115496300D02*
X61250558Y-115673621D01*
X61134712Y-108114596D02*
X60966183Y-108214684D01*
X61136473Y-139593506D02*
X61543733Y-140060446D01*
X61175079Y-131090055D02*
X61115410Y-130921530D01*
X61220719Y-139200244D02*
X60966183Y-138815815D01*
X61231237Y-131248044D02*
X61175079Y-131090055D01*
X61248815Y-131606159D02*
G75*
G02*
X61152255Y-131651791I-884115J1745859D01*
G01*
X61250558Y-115673621D02*
X61357661Y-115822810D01*
X61276902Y-108028582D02*
X61134712Y-108114596D01*
X61280409Y-131388490D02*
X61231237Y-131248044D01*
X61312018Y-119007226D02*
G75*
G02*
X62314375Y-118264669I6401482J-7593374D01*
G01*
X61313758Y-131567527D02*
G75*
G02*
X61248815Y-131606158I-459358J698327D01*
G01*
X61319040Y-131507835D02*
X61280409Y-131388490D01*
X61319040Y-131507835D02*
G75*
G02*
X61326064Y-131541203I-140340J-46965D01*
G01*
X61326057Y-131541204D02*
G75*
G02*
X61313749Y-131567512I-26157J-3796D01*
G01*
X61350627Y-107984707D02*
X61276902Y-108028582D01*
X61357661Y-115822810D02*
X61403288Y-115884270D01*
X61378719Y-113535466D02*
X61443642Y-113416080D01*
X61403288Y-115884270D02*
X61447172Y-115947488D01*
X61443642Y-113416080D02*
G75*
G02*
X61682418Y-113079045I1504558J-812820D01*
G01*
X61447172Y-115947488D02*
X61554262Y-116094915D01*
X61543733Y-140060446D02*
X61954496Y-140509827D01*
X61554262Y-116094915D02*
X61680651Y-116270465D01*
X61566568Y-107863581D02*
X61350627Y-107984707D01*
X61654333Y-139832230D02*
X61220719Y-139200244D01*
X61680651Y-116270465D02*
X61817562Y-116460061D01*
X61682410Y-113079038D02*
X62298567Y-112436550D01*
X61808799Y-117413259D02*
X61015338Y-118155830D01*
X61808799Y-117413259D02*
G75*
G02*
X62093194Y-117242975I560001J-612641D01*
G01*
X61817562Y-116460061D02*
X61982592Y-116693531D01*
X61910599Y-145783229D02*
G75*
G02*
X61062724Y-145186382I6191201J9695829D01*
G01*
X61910599Y-145783229D02*
X62198517Y-145951766D01*
X61954496Y-140509827D02*
X62330176Y-140903063D01*
X61977321Y-108109318D02*
X62279267Y-107881135D01*
X61982592Y-116693531D02*
X62089673Y-116858540D01*
X62052797Y-114665983D02*
X61378719Y-113535466D01*
X62056324Y-140372911D02*
X61654333Y-139832230D01*
X62089673Y-107596733D02*
X61566568Y-107863581D01*
X62089673Y-116858540D02*
G75*
G02*
X62154613Y-116983188I-933273J-565460D01*
G01*
X62154617Y-116983186D02*
G75*
G02*
X62180979Y-117070953I-289217J-134714D01*
G01*
X62154617Y-117216659D02*
G75*
G02*
X62093198Y-117242988I-251017J500759D01*
G01*
X62156382Y-144233175D02*
G75*
G02*
X61004784Y-143283451I9729918J12971175D01*
G01*
X62179209Y-117190320D02*
G75*
G02*
X62154599Y-117216630I-60709J32120D01*
G01*
X62180970Y-117070954D02*
X62187987Y-117151684D01*
X62187987Y-117151684D02*
G75*
G02*
X62179225Y-117190329I-71887J-4016D01*
G01*
X62198517Y-145951766D02*
X62635619Y-146176472D01*
X62279267Y-107881135D02*
X62574175Y-107674002D01*
X62298567Y-112436550D02*
X62972653Y-111781764D01*
X62314372Y-118264664D02*
G75*
G02*
X63372916Y-117680116I4720728J-7297936D01*
G01*
X62316122Y-115108364D02*
X62052797Y-114665983D01*
X62330176Y-140903063D02*
X62677742Y-141243635D01*
X62433757Y-140836355D02*
X62056324Y-140372911D01*
X62551371Y-115499811D02*
X62316122Y-115108364D01*
X62574175Y-107674002D02*
X62942839Y-107431720D01*
X62605776Y-109950823D02*
G75*
G02*
X64361220Y-108534147I13164024J-14515977D01*
G01*
X62614542Y-107336947D02*
X62089673Y-107596733D01*
X62635619Y-146176472D02*
X63072753Y-146385361D01*
X62677742Y-141243635D02*
X62956861Y-141503435D01*
X62749728Y-115831600D02*
X62551371Y-115499811D01*
X62795377Y-141231330D02*
X62433757Y-140836355D01*
X62804153Y-115919391D02*
X62749728Y-115831600D01*
X62839264Y-107236883D02*
X62614542Y-107336947D01*
X62930533Y-107200021D02*
X62839264Y-107236883D01*
X62942839Y-107431720D02*
X63513356Y-107073617D01*
X62953352Y-141394576D02*
X62795377Y-141231330D01*
X62956861Y-141503435D02*
X63178062Y-141694759D01*
X62963900Y-116180932D02*
X62804153Y-115919391D01*
X62972653Y-111781764D02*
X63539686Y-111293734D01*
X63070966Y-107140335D02*
X62930533Y-107200021D01*
X63086783Y-141536776D02*
X62953352Y-141394576D01*
X63183324Y-144956435D02*
X62156382Y-144233175D01*
X63199125Y-141661442D02*
X63086783Y-141536776D01*
X63199125Y-141661442D02*
G75*
G02*
X63206161Y-141682488I-16925J-17358D01*
G01*
X63206147Y-141682486D02*
G75*
G02*
X63178020Y-141694801I-16447J-714D01*
G01*
X63228968Y-107073617D02*
X63070966Y-107140335D01*
X63307973Y-116763763D02*
X62963900Y-116180932D01*
X63327273Y-146487178D02*
G75*
G02*
X63072751Y-146385364I662127J2024278D01*
G01*
X63327273Y-146487178D02*
X63709978Y-146603031D01*
X63372914Y-117680112D02*
X63530903Y-117604631D01*
X63381701Y-107008667D02*
X63228968Y-107073617D01*
X63513356Y-107073617D02*
X63834602Y-106869977D01*
X63539686Y-111293734D02*
X64080375Y-110875946D01*
X63637985Y-117544932D02*
G75*
G02*
X63530904Y-117604633I-650985J1041732D01*
G01*
X63685399Y-117406240D02*
X63307973Y-116763763D01*
X63685399Y-117406240D02*
G75*
G02*
X63715225Y-117467687I-400499J-232360D01*
G01*
X63708219Y-117495779D02*
G75*
G02*
X63637986Y-117544934I-700119J925579D01*
G01*
X63715228Y-117467686D02*
G75*
G02*
X63708192Y-117495749I-24328J-8814D01*
G01*
X63778413Y-106840146D02*
X63381701Y-107008667D01*
X63778413Y-106840146D02*
G75*
G02*
X63832855Y-106841878I25487J-55354D01*
G01*
X63832854Y-106841880D02*
G75*
G02*
X63834630Y-106870016I-7854J-14620D01*
G01*
X64029465Y-146673251D02*
G75*
G02*
X63709977Y-146603035I675135J3833851D01*
G01*
X64080375Y-110875946D02*
X64526245Y-110549422D01*
X64206752Y-128216353D02*
X64210265Y-128706128D01*
X64210265Y-127726585D02*
X64206752Y-128216353D01*
X64210265Y-128706128D02*
X64222578Y-128990511D01*
X64222578Y-127440456D02*
X64210265Y-127726585D01*
X64222578Y-128990511D02*
X64248866Y-129236279D01*
X64248866Y-129236279D02*
X64303322Y-129554014D01*
X64250640Y-127192938D02*
X64222578Y-127440456D01*
X64301560Y-145649834D02*
X63183324Y-144956435D01*
X64303322Y-129554014D02*
X64347180Y-129776961D01*
X64305067Y-126868184D02*
X64250640Y-127192938D01*
X64305067Y-126868184D02*
G75*
G02*
X64510451Y-126004484I8887833J-1657216D01*
G01*
X64347180Y-129776961D02*
X64401609Y-130017453D01*
X64355962Y-146715379D02*
G75*
G02*
X64029466Y-146673248I228738J3058779D01*
G01*
X64355962Y-146715379D02*
X64764990Y-146736448D01*
X64361222Y-108534150D02*
G75*
G02*
X66109670Y-107477386I7668678J-10713250D01*
G01*
X64401609Y-130017453D02*
X64457775Y-130242155D01*
X64457775Y-130242155D02*
X64503431Y-130408921D01*
X64503431Y-130408921D02*
X64607020Y-130717887D01*
X64510455Y-126004485D02*
G75*
G02*
X64793080Y-125212784I6759145J-1966615D01*
G01*
X64526245Y-110549422D02*
X64959850Y-110258015D01*
X64607020Y-130717887D02*
X64722855Y-131028597D01*
X64722855Y-131028597D02*
X64894893Y-131451682D01*
X64764990Y-146736448D02*
X65037091Y-146741697D01*
X64773767Y-119828794D02*
G75*
G02*
X64798350Y-119793674I324833J-201206D01*
G01*
X64786048Y-112892953D02*
G75*
G02*
X64793083Y-112859632I12552J14753D01*
G01*
X64786048Y-112892953D02*
X69072884Y-117183285D01*
X64789586Y-119858630D02*
G75*
G02*
X64773745Y-119828779I-186J19030D01*
G01*
X64789586Y-119858630D02*
X65240732Y-119869156D01*
X64793079Y-125212784D02*
G75*
G02*
X65159967Y-124471951I6515821J-2765616D01*
G01*
X64810621Y-112852595D02*
X64793079Y-112859620D01*
X64822935Y-112845570D02*
X64810621Y-112852595D01*
X64835210Y-112838534D02*
G75*
G02*
X64836982Y-112838535I886J885D01*
G01*
X64835210Y-112840318D02*
X64822935Y-112845570D01*
X64835210Y-112840318D02*
G75*
G02*
X64835211Y-112838482I-10J918D01*
G01*
X64894893Y-131451682D02*
X65209129Y-132194230D01*
X64959850Y-110258015D02*
X65454893Y-109950823D01*
X65010755Y-112868389D02*
X64836981Y-112838534D01*
X65037091Y-146741697D02*
X65360092Y-146741697D01*
X65075703Y-119502265D02*
X64798348Y-119793672D01*
X65103788Y-127607223D02*
G75*
G02*
X65181026Y-127322832I852612J-78877D01*
G01*
X65119604Y-127921447D02*
G75*
G02*
X65103779Y-127607222I1136496J214747D01*
G01*
X65159972Y-124471954D02*
G75*
G02*
X65618145Y-123768034I6426928J-3682146D01*
G01*
X65181034Y-127322836D02*
G75*
G02*
X65307427Y-127103420I1324166J-616664D01*
G01*
X65203853Y-112901729D02*
X65010755Y-112868389D01*
X65209129Y-132194230D02*
X65439096Y-132798113D01*
X65210881Y-128167202D02*
G75*
G02*
X65119615Y-127921445I661819J385602D01*
G01*
X65228433Y-126122107D02*
X65249490Y-125813135D01*
X65240732Y-119869156D02*
X65953441Y-119876191D01*
X65249490Y-125813135D02*
G75*
G02*
X65339039Y-125288259I2677110J-186665D01*
G01*
X65307429Y-127103421D02*
X65546168Y-126771622D01*
X65312699Y-126097519D02*
X65228433Y-126122107D01*
X65339043Y-125288260D02*
G75*
G02*
X65563728Y-124614163I7452857J-2109640D01*
G01*
X65353072Y-146223846D02*
X64301560Y-145649834D01*
X65358340Y-128251456D02*
G75*
G02*
X65210887Y-128167198I460J171956D01*
G01*
X65360092Y-146741697D02*
X65683104Y-146736448D01*
X65367131Y-126076489D02*
G75*
G02*
X65312698Y-126097516I-202631J443589D01*
G01*
X65393434Y-119172251D02*
X65075703Y-119502265D01*
X65403986Y-128242716D02*
G75*
G02*
X65358340Y-128251443I-41786J94816D01*
G01*
X65432068Y-112942123D02*
X65203853Y-112901729D01*
X65439096Y-132798113D02*
X65646232Y-133491525D01*
X65454893Y-109950823D02*
X66209728Y-109529508D01*
X65461906Y-129629521D02*
G75*
G02*
X65465433Y-129436417I808194J81821D01*
G01*
X65465431Y-129436417D02*
G75*
G02*
X65514551Y-129260853I671369J-93183D01*
G01*
X65498797Y-129847177D02*
G75*
G02*
X65461899Y-129629522I1376903J345377D01*
G01*
X65511061Y-126008004D02*
X65367131Y-126076489D01*
X65512830Y-128193544D02*
X65403986Y-128242716D01*
X65514554Y-129260854D02*
G75*
G02*
X65628667Y-129062500I1053446J-474046D01*
G01*
X65546168Y-126771622D02*
X65811247Y-126436337D01*
X65563727Y-124614163D02*
G75*
G02*
X65856903Y-123945317I7088973J-2708637D01*
G01*
X65579531Y-130135094D02*
X65498797Y-129847177D01*
X65618142Y-123768032D02*
G75*
G02*
X65825292Y-123515225I2557658J-1884468D01*
G01*
X65628672Y-129062504D02*
X65842845Y-128779860D01*
X65642715Y-128130354D02*
X65512830Y-128193544D01*
X65646232Y-133491525D02*
X65867413Y-134400842D01*
X65683104Y-125927236D02*
X65511061Y-126008004D01*
X65683104Y-146736448D02*
X65953441Y-146725918D01*
X65690114Y-112987778D02*
X65432068Y-112942123D01*
X65691884Y-130466859D02*
X65579531Y-130135094D01*
X65763844Y-118787794D02*
X65393434Y-119172251D01*
X65781410Y-128054846D02*
X65642715Y-128130354D01*
X65811247Y-126436337D02*
G75*
G02*
X66041207Y-126183540I2730953J-2253263D01*
G01*
X65834079Y-130826740D02*
X65691884Y-130466859D01*
X65842845Y-128779860D02*
X65937637Y-128662248D01*
X65856902Y-123945317D02*
G75*
G02*
X66162333Y-123430981I3474598J-1715483D01*
G01*
X65867413Y-134400842D02*
X66146552Y-135713938D01*
X65869184Y-125834188D02*
X65683104Y-125927236D01*
X65899025Y-130982954D02*
X65834079Y-130826740D01*
X65937637Y-128662248D02*
X66020140Y-128556913D01*
X65953441Y-119876191D02*
X67466634Y-119877932D01*
X65953441Y-146725918D02*
X66545042Y-146697842D01*
X65972777Y-131163775D02*
X65899025Y-130982954D01*
X65976264Y-113036896D02*
X65690114Y-112987778D01*
X66020140Y-128556913D02*
X66090366Y-128469147D01*
X66041206Y-126183539D02*
X66227303Y-126006234D01*
X66044716Y-131341096D02*
X65972777Y-131163775D01*
X66090366Y-128469147D02*
X66107906Y-128444570D01*
X66102665Y-131483266D02*
X66044716Y-131341096D01*
X66107906Y-128444570D02*
G75*
G02*
X66129006Y-128419998I115494J-77830D01*
G01*
X66129002Y-128419993D02*
X66243071Y-128311169D01*
X66146552Y-135713938D02*
X66276458Y-136370476D01*
X66146552Y-146560908D02*
G75*
G02*
X65353070Y-146223850I1987048J5780308D01*
G01*
X66151812Y-131600886D02*
X66102665Y-131483266D01*
X66162332Y-118378788D02*
X65763844Y-118787794D01*
X66162332Y-123430980D02*
X66250098Y-123308118D01*
X66197451Y-131700947D02*
X66151812Y-131600886D01*
X66200972Y-123118534D02*
X65825292Y-123515225D01*
X66209728Y-109529508D02*
G75*
G02*
X66911911Y-109206491I3878372J-7506192D01*
G01*
X66227303Y-126006234D02*
X66443223Y-125823672D01*
X66237799Y-131781712D02*
X66197451Y-131700947D01*
X66243071Y-128311169D02*
X66378253Y-128184782D01*
X66244851Y-113082550D02*
X65976264Y-113036896D01*
X66250098Y-123308118D02*
X66348434Y-123169418D01*
X66253610Y-131790492D02*
G75*
G02*
X66237785Y-131781722I1790J21892D01*
G01*
X66274694Y-125639335D02*
X65869184Y-125834188D01*
X66276458Y-136370476D02*
X66443223Y-137263994D01*
X66308040Y-127761697D02*
X65781410Y-128054846D01*
X66318585Y-131767653D02*
G75*
G02*
X66253610Y-131790486I-68285J90453D01*
G01*
X66348434Y-123169418D02*
X66444961Y-123036010D01*
X66378253Y-128184782D02*
X66534494Y-128040803D01*
X66443223Y-125823672D02*
X66662655Y-125656906D01*
X66443223Y-137263994D02*
X66601205Y-138131206D01*
X66444961Y-123036010D02*
X66518692Y-122930669D01*
X66448491Y-113117661D02*
X66244851Y-113082550D01*
X66506405Y-107282511D02*
X66109669Y-107477384D01*
X66509916Y-131613168D02*
X66318585Y-131767653D01*
X66518692Y-122930669D02*
X66580138Y-122844656D01*
X66534494Y-128040803D02*
X66987403Y-127626528D01*
X66545042Y-146697842D02*
X66146552Y-146560908D01*
X66557315Y-117969746D02*
X66162332Y-118378788D01*
X66569614Y-127621270D02*
X66308040Y-127761697D01*
X66573128Y-125511185D02*
X66274694Y-125639335D01*
X66580138Y-122844656D02*
X66627528Y-122769169D01*
X66601205Y-138131206D02*
X66674926Y-138570071D01*
X66616999Y-122691940D02*
X66200972Y-123118534D01*
X66616999Y-122691940D02*
G75*
G02*
X66662655Y-122691940I22828J-21031D01*
G01*
X66627528Y-122769169D02*
X66664400Y-122704212D01*
X66643331Y-113151024D02*
X66448491Y-113117661D01*
X66662655Y-122691940D02*
G75*
G02*
X66664387Y-122704207I-10655J-7760D01*
G01*
X66662655Y-125656906D02*
X66868039Y-125518231D01*
X66674926Y-138570071D02*
X66694239Y-138696472D01*
X66692489Y-132870087D02*
G75*
G02*
X66701280Y-132805144I186011J7887D01*
G01*
X66694239Y-138696472D02*
X66725845Y-138887804D01*
X66701268Y-132805140D02*
G75*
G02*
X66731096Y-132727905I596432J-185960D01*
G01*
X66702997Y-132959612D02*
G75*
G02*
X66692487Y-132870087I436403J96612D01*
G01*
X66725845Y-138887804D02*
X66760967Y-139100215D01*
X66731096Y-132727905D02*
G75*
G02*
X66929471Y-132429457I1374704J-698595D01*
G01*
X66743398Y-127536991D02*
X66569614Y-127621270D01*
X66743398Y-127536991D02*
G75*
G02*
X66899623Y-127477300I733402J-1685209D01*
G01*
X66745143Y-133147467D02*
X66702997Y-132959612D01*
X66760967Y-139100215D02*
X66796060Y-139305593D01*
X66769732Y-131386713D02*
X66509916Y-131613168D01*
X66792564Y-125432227D02*
X66573128Y-125511185D01*
X66792564Y-125432227D02*
G75*
G02*
X66913670Y-125419928I91336J-296973D01*
G01*
X66796060Y-139305593D02*
X66836439Y-139539089D01*
X66825902Y-133505559D02*
X66745143Y-133147467D01*
X66831172Y-107136825D02*
X66506405Y-107282511D01*
X66836439Y-139539089D02*
X66889112Y-139842758D01*
X66868039Y-125518231D02*
X66962844Y-125458536D01*
X66889112Y-113191390D02*
X66643331Y-113151024D01*
X66889112Y-139842758D02*
X66943523Y-140160494D01*
X66904882Y-117613400D02*
X66557315Y-117969746D01*
X66911910Y-109206490D02*
G75*
G02*
X67619366Y-108955466I3181490J-7843910D01*
G01*
X66929473Y-132429459D02*
X67273558Y-132055570D01*
X66943523Y-140160494D02*
X66992671Y-140444883D01*
X66947022Y-134104172D02*
X66825902Y-133505559D01*
X66971603Y-125428692D02*
X66913671Y-125419915D01*
X66971603Y-125428692D02*
G75*
G02*
X66978620Y-125440990I-2203J-9408D01*
G01*
X66978636Y-125440995D02*
G75*
G02*
X66962848Y-125458544I-33536J14295D01*
G01*
X66982133Y-127452727D02*
X66899624Y-127477304D01*
X66987403Y-127626528D02*
X67126071Y-127494876D01*
X66992671Y-140444883D02*
X67184009Y-141563121D01*
X67061143Y-127431692D02*
X66982133Y-127452727D01*
X67078684Y-134774741D02*
X66947022Y-134104172D01*
X67113800Y-117397488D02*
X66904882Y-117613400D01*
X67117309Y-107024467D02*
X66831172Y-107136825D01*
X67127856Y-127414128D02*
X67061143Y-127431692D01*
X67127856Y-127414128D02*
G75*
G02*
X67161209Y-127410607I30944J-133372D01*
G01*
X67140136Y-113235298D02*
X66889112Y-113191390D01*
X67141883Y-131046149D02*
X66769732Y-131386713D01*
X67161209Y-127410597D02*
G75*
G02*
X67173440Y-127433398I891J-14203D01*
G01*
X67173472Y-127433423D02*
G75*
G02*
X67126071Y-127494876I-393772J254723D01*
G01*
X67184009Y-141563121D02*
X67363082Y-142554955D01*
X67199819Y-135417230D02*
X67078684Y-134774741D01*
X67273558Y-132055570D02*
X67633420Y-131716750D01*
X67336743Y-136152784D02*
X67199819Y-135417230D01*
X67359557Y-113272143D02*
X67140136Y-113235298D01*
X67363082Y-142554955D02*
X67535120Y-143467788D01*
X67392894Y-106931428D02*
X67117309Y-107024467D01*
X67438537Y-136719804D02*
X67336743Y-136152784D01*
X67466634Y-119877932D02*
X69172956Y-119876191D01*
X67498244Y-116998981D02*
X67113800Y-117397488D01*
X67508798Y-130717887D02*
X67141883Y-131046149D01*
X67517552Y-137153393D02*
X67438537Y-136719804D01*
X67531590Y-106891058D02*
X67392894Y-106931428D01*
X67535120Y-143467788D02*
X67712394Y-144345546D01*
X67561440Y-113307257D02*
X67359557Y-113272143D01*
X67568479Y-137448325D02*
X67517552Y-137153393D01*
X67594784Y-137599274D02*
X67568479Y-137448325D01*
X67619367Y-108955468D02*
X68391752Y-108755339D01*
X67626390Y-137795896D02*
X67594784Y-137599274D01*
X67633420Y-131716750D02*
G75*
G02*
X67810720Y-131650089I175080J-196550D01*
G01*
X67661503Y-138001294D02*
X67626390Y-137795896D01*
X67682567Y-106845407D02*
X67531590Y-106891058D01*
X67693109Y-138183867D02*
X67661503Y-138001294D01*
X67708903Y-117225442D02*
X67498244Y-116998981D01*
X67761568Y-113338845D02*
X67561440Y-113307257D01*
X67810720Y-131650051D02*
G75*
G02*
X67835287Y-131658815I-120J-39149D01*
G01*
X67812475Y-130468621D02*
X67508798Y-130717887D01*
X67826516Y-106801532D02*
X67682567Y-106845407D01*
X67835301Y-131658798D02*
G75*
G02*
X67858113Y-131686894I-46301J-60902D01*
G01*
X67844053Y-117369401D02*
X67708903Y-117225442D01*
X67858094Y-131686903D02*
G75*
G02*
X67880939Y-131727294I-295694J-193897D01*
G01*
X67880944Y-131727292D02*
G75*
G02*
X67900245Y-131781711I-771344J-304208D01*
G01*
X67884441Y-105086420D02*
X67961649Y-105309397D01*
X67884441Y-139282760D02*
X67693109Y-138183867D01*
X67900243Y-131781712D02*
X67963439Y-132018693D01*
X67937094Y-106768187D02*
X67826516Y-106801532D01*
X67937094Y-113365167D02*
X67761568Y-113338845D01*
X67959948Y-145307511D02*
G75*
G02*
X67712392Y-144345547I9365552J2923011D01*
G01*
X67961649Y-105309397D02*
X68002090Y-105421751D01*
X67963439Y-132018693D02*
X68035416Y-132294290D01*
X67996786Y-104986399D02*
X67884441Y-105086420D01*
X67996786Y-104986399D02*
G75*
G02*
X68154793Y-104868763I715714J-796401D01*
G01*
X68002090Y-105421751D02*
X68058243Y-105583241D01*
X68035416Y-132294290D02*
X68112672Y-132583942D01*
X68042455Y-113379229D02*
X67937094Y-113365167D01*
X68058243Y-105583241D02*
X68119687Y-105764048D01*
X68112672Y-132583942D02*
X68184641Y-132868330D01*
X68119687Y-105764048D02*
X68179381Y-105934331D01*
X68121423Y-140578313D02*
X67884441Y-139282760D01*
X68140743Y-130231634D02*
X67812475Y-130468621D01*
X68144260Y-113393266D02*
X68042455Y-113379229D01*
X68145983Y-106697973D02*
X67937094Y-106768187D01*
X68175840Y-117723994D02*
X67844053Y-117369401D01*
X68179381Y-105934331D02*
X68233769Y-106097585D01*
X68184641Y-132868330D02*
X68232034Y-133047394D01*
X68232034Y-133047394D02*
X68288203Y-133265069D01*
X68233769Y-106097585D02*
X68279407Y-106257338D01*
X68253099Y-106640001D02*
G75*
G02*
X68145979Y-106697960I-210999J262001D01*
G01*
X68279407Y-106257338D02*
X68312771Y-106392516D01*
X68279407Y-146120297D02*
G75*
G02*
X67959945Y-145307512I5395093J2589697D01*
G01*
X68288203Y-133265069D02*
X68344357Y-133482753D01*
X68302253Y-113416080D02*
X68144260Y-113393266D01*
X68304000Y-106568042D02*
G75*
G02*
X68253105Y-106640009I-150200J52242D01*
G01*
X68312771Y-106392516D02*
G75*
G02*
X68321561Y-106467998I-358371J-79984D01*
G01*
X68321552Y-106467998D02*
G75*
G02*
X68304006Y-106568044I-277452J-2902D01*
G01*
X68344357Y-133482753D02*
X68391752Y-133665304D01*
X68351388Y-141784304D02*
X68121423Y-140578313D01*
X68391752Y-108755339D02*
X68490079Y-108732521D01*
X68391752Y-133665304D02*
X68551508Y-134272688D01*
X68479564Y-113442435D02*
X68302253Y-113416080D01*
X68481299Y-142405725D02*
X68351388Y-141784304D01*
X68490079Y-108732521D02*
X68597172Y-108704420D01*
X68551508Y-134272688D02*
X68653337Y-134667669D01*
X68560293Y-104621240D02*
X68154791Y-104868760D01*
X68574349Y-118145303D02*
X68175840Y-117723994D01*
X68584886Y-129938475D02*
X68140743Y-130231634D01*
X68584886Y-129938475D02*
G75*
G02*
X68863980Y-129776959I1960814J-3066325D01*
G01*
X68597172Y-108704420D02*
X68695479Y-108676349D01*
X68609432Y-142974493D02*
X68481299Y-142405725D01*
X68653337Y-134667669D02*
X68732324Y-134971351D01*
X68655085Y-113468765D02*
X68479564Y-113442435D01*
X68684928Y-146815442D02*
G75*
G02*
X68279408Y-146120296I4226872J2931642D01*
G01*
X68695479Y-108676349D02*
X68769190Y-108651770D01*
X68698997Y-143376502D02*
X68609432Y-142974493D01*
X68732324Y-134971351D02*
X68809574Y-135271555D01*
X68762188Y-143681949D02*
X68698997Y-143376502D01*
X68769190Y-108651770D02*
X68830639Y-108634225D01*
X68809574Y-135271555D02*
X68853448Y-135433053D01*
X68809574Y-143931231D02*
X68762188Y-143681949D01*
X68830639Y-108634225D02*
G75*
G02*
X68888558Y-108620187I1721561J-6976375D01*
G01*
X68842911Y-144108534D02*
X68809574Y-143931231D01*
X68848191Y-113498589D02*
X68655085Y-113468765D01*
X68853448Y-135433053D02*
X68892083Y-135575247D01*
X68867490Y-144191032D02*
G75*
G02*
X68842911Y-144108534I432710J173832D01*
G01*
X68888558Y-108620187D02*
G75*
G02*
X68939480Y-108613154I169042J-1036113D01*
G01*
X68892083Y-135575247D02*
X68927198Y-135694600D01*
X68895589Y-144231403D02*
G75*
G02*
X68867507Y-144191026I68511J77603D01*
G01*
X68934212Y-144245447D02*
G75*
G02*
X68895582Y-144231411I788J62347D01*
G01*
X68939480Y-108613152D02*
G75*
G02*
X68967572Y-108618426I5820J-46448D01*
G01*
X68939480Y-135720941D02*
G75*
G02*
X68927191Y-135694603I134820J78941D01*
G01*
X68960542Y-135719205D02*
G75*
G02*
X68939482Y-135720940I-10742J1705D01*
G01*
X68960542Y-135719205D02*
X69041286Y-135447114D01*
X68965795Y-104382496D02*
X68560293Y-104621240D01*
X68965795Y-104382496D02*
G75*
G02*
X69179977Y-104278916I786705J-1353504D01*
G01*
X68967574Y-108618422D02*
G75*
G02*
X69020204Y-108664073I-40174J-99478D01*
G01*
X69006182Y-118603500D02*
X68574349Y-118145303D01*
X69006182Y-144205080D02*
G75*
G02*
X68934211Y-144245465I-69582J39680D01*
G01*
X69020232Y-108664057D02*
X69088692Y-108809757D01*
X69041286Y-135447114D02*
X69127333Y-135129354D01*
X69072884Y-117183285D02*
X73333383Y-121450828D01*
X69081681Y-144052367D02*
G75*
G02*
X69006181Y-144205079I-1080281J439067D01*
G01*
X69083401Y-113530204D02*
X68848191Y-113498589D01*
X69088692Y-108809757D02*
G75*
G02*
X69155406Y-108985320I-2378392J-1004243D01*
G01*
X69127333Y-135129354D02*
X69215079Y-134767735D01*
X69150126Y-143841697D02*
G75*
G02*
X69081680Y-144052366I-1457226J356997D01*
G01*
X69155406Y-108985320D02*
G75*
G02*
X69202779Y-109162629I-1901706J-603080D01*
G01*
X69172956Y-119876191D02*
X69789126Y-119869156D01*
X69190503Y-147429858D02*
G75*
G02*
X68684924Y-146815445I3320397J3247458D01*
G01*
X69199286Y-143594199D02*
G75*
G02*
X69150130Y-143841698I-2412886J350599D01*
G01*
X69215079Y-134767735D02*
X69241415Y-134660660D01*
X69220372Y-143473045D02*
X69199286Y-143594199D01*
X69241415Y-134660660D02*
X69288809Y-134472801D01*
X69255451Y-143322084D02*
X69220372Y-143473045D01*
X69288809Y-134472801D02*
X69344967Y-134255144D01*
X69295838Y-109436451D02*
G75*
G02*
X69202773Y-109162630I1030162J502851D01*
G01*
X69295838Y-109436451D02*
X69517024Y-109863042D01*
X69295838Y-143167608D02*
X69255451Y-143322084D01*
X69320407Y-113561796D02*
X69083401Y-113530204D01*
X69337961Y-143032432D02*
X69295838Y-143167608D01*
X69344967Y-134255144D02*
X69402915Y-134032208D01*
X69362538Y-129529458D02*
X68863981Y-129776961D01*
X69385354Y-142881451D02*
X69337961Y-143032432D01*
X69402915Y-134032208D02*
X69590755Y-133310703D01*
X69415202Y-105641172D02*
G75*
G02*
X69418704Y-105606043I70898J10672D01*
G01*
X69418713Y-105606046D02*
G75*
G02*
X69476631Y-105541059I109687J-39454D01*
G01*
X69425720Y-119049371D02*
X69006182Y-118603500D01*
X69434519Y-105737718D02*
X69415202Y-105641172D01*
X69441555Y-142667292D02*
X69385354Y-142881451D01*
X69464362Y-105853568D02*
X69434519Y-105737718D01*
X69476646Y-105541089D02*
X69768050Y-105395396D01*
X69499471Y-142432071D02*
X69441555Y-142667292D01*
X69502969Y-105981709D02*
X69464362Y-105853568D01*
X69517024Y-109863042D02*
X69859333Y-110445849D01*
X69522289Y-113584618D02*
X69320407Y-113561796D01*
X69546873Y-142210885D02*
X69499471Y-142432071D01*
X69564413Y-106166040D02*
X69502969Y-105981709D01*
X69590755Y-133310703D02*
X69729445Y-132773542D01*
X69590755Y-142010754D02*
X69546873Y-142210885D01*
X69627604Y-141840474D02*
X69590755Y-142010754D01*
X69660970Y-141691256D02*
X69627604Y-141840474D01*
X69660970Y-141691256D02*
G75*
G02*
X69668014Y-141680757I16330J-3344D01*
G01*
X69667995Y-141680728D02*
G75*
G02*
X69673312Y-141682459I2005J-2872D01*
G01*
X69678515Y-106515375D02*
X69564413Y-106166040D01*
X69703101Y-141773775D02*
X69673234Y-141682486D01*
X69729445Y-132773542D02*
X69852312Y-132294290D01*
X69734707Y-141880868D02*
X69703101Y-141773775D01*
X69768050Y-105395396D02*
X70103368Y-105244435D01*
X69771560Y-142010754D02*
X69734707Y-141880868D01*
X69787358Y-119435573D02*
X69425720Y-119049371D01*
X69789126Y-119869156D02*
X70122650Y-119856869D01*
X69810182Y-106926156D02*
X69678515Y-106515375D01*
X69852312Y-132294290D02*
X69985712Y-131772905D01*
X69859333Y-110445849D02*
X70371930Y-111258639D01*
X69873398Y-129290727D02*
X69362538Y-129529458D01*
X69889179Y-103996296D02*
X69179979Y-104278922D01*
X69899706Y-142482979D02*
X69771560Y-142010754D01*
X69948865Y-107352744D02*
X69810182Y-106926156D01*
X69969921Y-113633767D02*
X69522289Y-113584618D01*
X69985712Y-131772905D02*
X70313994Y-130496708D01*
X69992746Y-142823523D02*
X69899706Y-142482979D01*
X70071749Y-143120209D02*
X69992746Y-142823523D01*
X70084040Y-107774048D02*
X69948865Y-107352744D01*
X70098081Y-148133797D02*
G75*
G02*
X69190495Y-147429866I2133119J3687297D01*
G01*
X70101592Y-119772615D02*
X69787358Y-119435573D01*
X70103368Y-105244435D02*
X70443905Y-105111015D01*
X70140206Y-119816499D02*
X70101592Y-119772615D01*
X70140206Y-119816499D02*
G75*
G02*
X70122647Y-119856810I-19006J-15701D01*
G01*
X70156019Y-143439705D02*
X70071749Y-143120209D01*
X70213932Y-108169030D02*
X70084040Y-107774048D01*
X70213932Y-113863750D02*
X69969921Y-113633767D01*
X70226229Y-129144999D02*
X69873398Y-129290727D01*
X70289415Y-143941774D02*
X70156019Y-143439705D01*
X70313994Y-130496708D02*
X70422824Y-130128053D01*
X70324535Y-108502563D02*
X70213932Y-108169030D01*
X70371930Y-111258639D02*
X70410555Y-111321819D01*
X70373678Y-114018207D02*
X70213932Y-113863750D01*
X70377199Y-108657024D02*
X70324535Y-108502563D01*
X70377199Y-108657024D02*
G75*
G02*
X70436879Y-108872972I-1434899J-512776D01*
G01*
X70407026Y-144387633D02*
X70289415Y-143941774D01*
X70410555Y-103815496D02*
X69889179Y-103996296D01*
X70410555Y-111321819D02*
X70466728Y-111409613D01*
X70422824Y-130128053D02*
G75*
G02*
X70508862Y-129952532I671776J-220447D01*
G01*
X70443905Y-105111015D02*
G75*
G02*
X71170663Y-104888089I2654595J-7358085D01*
G01*
X70466728Y-111409613D02*
X70526403Y-111507919D01*
X70489562Y-109153829D02*
X70436878Y-108872972D01*
X70508853Y-129952526D02*
G75*
G02*
X70621187Y-129861225I205247J-137774D01*
G01*
X70512367Y-144780877D02*
X70407026Y-144387633D01*
X70526403Y-111507919D02*
X70582580Y-111600945D01*
X70542215Y-109566385D02*
X70489562Y-109153829D01*
X70566789Y-123178191D02*
X70568547Y-123380058D01*
X70568547Y-123011449D02*
X70566789Y-123178191D01*
X70568547Y-123011449D02*
G75*
G02*
X70577316Y-122950001I231953J-1751D01*
G01*
X70568547Y-123380058D02*
X70575549Y-123599499D01*
X70575549Y-123599499D02*
X70600147Y-124017309D01*
X70577308Y-122949999D02*
G75*
G02*
X70635224Y-122872730I115992J-26601D01*
G01*
X70582580Y-111600945D02*
X70633516Y-111685192D01*
X70603648Y-129011586D02*
X70226229Y-129144999D01*
X70603648Y-145121419D02*
X70512367Y-144780877D01*
X70615946Y-110261539D02*
X70542215Y-109566385D01*
X70621190Y-129861232D02*
G75*
G02*
X70821338Y-129836625I148510J-381668D01*
G01*
X70633516Y-111685192D02*
X70679135Y-111753681D01*
X70635235Y-122872751D02*
G75*
G02*
X70731802Y-122853397I75265J-124949D01*
G01*
X70649288Y-124233245D02*
G75*
G02*
X70600141Y-124017310I775412J290045D01*
G01*
X70649288Y-145291701D02*
X70603648Y-145121419D01*
X70654573Y-110682841D02*
X70615946Y-110261539D01*
X70679135Y-111753681D02*
X70717748Y-111811584D01*
X70694941Y-111214733D02*
X70654573Y-110682841D01*
X70701947Y-145486569D02*
X70649288Y-145291701D01*
X70723035Y-111811584D02*
G75*
G02*
X70717747Y-111811584I-2644J536D01*
G01*
X70731798Y-111778257D02*
X70694941Y-111214733D01*
X70731798Y-111778257D02*
G75*
G02*
X70723009Y-111811568I-59398J-2143D01*
G01*
X70731798Y-122853422D02*
G75*
G02*
X70877486Y-122906089I-63098J-402378D01*
G01*
X70751127Y-124414040D02*
G75*
G02*
X70649292Y-124233243I507873J405140D01*
G01*
X70751127Y-124414040D02*
X70979322Y-124682640D01*
X70751127Y-145674387D02*
X70701947Y-145486569D01*
X70791468Y-145821854D02*
X70751127Y-145674387D01*
X70809030Y-114446545D02*
X70373678Y-114018207D01*
X70821337Y-129836634D02*
G75*
G02*
X70995137Y-129906858I-42337J-354966D01*
G01*
X70877493Y-122906077D02*
G75*
G02*
X71074111Y-123032480I-1030293J-1818723D01*
G01*
X70924891Y-103678548D02*
X70410555Y-103815496D01*
X70967022Y-128901000D02*
X70603648Y-129011586D01*
X70995124Y-129906876D02*
G75*
G02*
X71153117Y-130091184I-396224J-499524D01*
G01*
X71040775Y-146757527D02*
X70791468Y-145821854D01*
X71123257Y-147017322D02*
X71040775Y-146757527D01*
X71153109Y-130091188D02*
G75*
G02*
X71309349Y-130408919I-2284009J-1320412D01*
G01*
X71163638Y-124858156D02*
G75*
G02*
X70979320Y-124682642I1510362J1770656D01*
G01*
X71170662Y-104888085D02*
G75*
G02*
X71927251Y-104738848I1821638J-7242715D01*
G01*
X71188231Y-147131429D02*
G75*
G02*
X71123245Y-147017326I269469J229029D01*
G01*
X71204004Y-148606028D02*
G75*
G02*
X70098082Y-148133796I1432096J4884928D01*
G01*
X71272469Y-147170058D02*
G75*
G02*
X71188235Y-147131426I3031J117758D01*
G01*
X71300585Y-147164779D02*
G75*
G02*
X71272465Y-147170086I-21785J38279D01*
G01*
X71309344Y-130408921D02*
X71418198Y-130658200D01*
X71323389Y-147145453D02*
G75*
G02*
X71300594Y-147164793I-83789J75653D01*
G01*
X71328639Y-114959145D02*
X70809030Y-114446545D01*
X71328639Y-128804414D02*
X70967022Y-128901000D01*
X71342692Y-147115631D02*
G75*
G02*
X71323407Y-147145470I-87392J35331D01*
G01*
X71354975Y-147075258D02*
G75*
G02*
X71342690Y-147115630I-249475J53858D01*
G01*
X71354975Y-147075258D02*
G75*
G02*
X71372533Y-147015567I422825J-91942D01*
G01*
X71367276Y-125010907D02*
G75*
G02*
X71163634Y-124858161I925424J1445907D01*
G01*
X71367276Y-125010907D02*
X71663940Y-125186439D01*
X71425224Y-146882165D02*
X71372525Y-147015564D01*
X71449788Y-123292316D02*
X71074110Y-123032481D01*
X71491913Y-146724181D02*
X71425224Y-146882165D01*
X71504207Y-130823226D02*
G75*
G02*
X71418201Y-130658199I1595093J936226D01*
G01*
X71565630Y-146553859D02*
X71491913Y-146724181D01*
X71574415Y-130926788D02*
G75*
G02*
X71504211Y-130823223I745585J580988D01*
G01*
X71597224Y-103534613D02*
X70924891Y-103678548D01*
X71623582Y-130940827D02*
G75*
G02*
X71574455Y-130926754I-14082J43627D01*
G01*
X71637608Y-146387121D02*
X71565630Y-146553859D01*
X71644621Y-130925028D02*
G75*
G02*
X71623590Y-130940869I-26821J13728D01*
G01*
X71644621Y-130925028D02*
X71686770Y-130844280D01*
X71663940Y-125186439D02*
X72188819Y-125465570D01*
X71686770Y-130844280D02*
X71734149Y-130745981D01*
X71700809Y-146236138D02*
X71637608Y-146387121D01*
X71702591Y-128721923D02*
X71328639Y-128804414D01*
X71734149Y-130745981D02*
X71781547Y-130631889D01*
X71748194Y-146108000D02*
X71700809Y-146236138D01*
X71756980Y-146064104D02*
G75*
G02*
X71748188Y-146107997I-113980J4D01*
G01*
X71758750Y-146023736D02*
X71756980Y-146064104D01*
X71758750Y-146023736D02*
G75*
G02*
X71765777Y-146016650I7050J36D01*
G01*
X71765777Y-146016704D02*
G75*
G02*
X71776277Y-146021988I-2477J-17996D01*
G01*
X71781547Y-130631889D02*
X71932534Y-130275522D01*
X71813168Y-146067628D02*
X71776283Y-146021982D01*
X71813168Y-146067628D02*
G75*
G02*
X71885138Y-146179988I-562568J-439572D01*
G01*
X71828948Y-103499516D02*
X71597224Y-103534613D01*
X71851793Y-123548594D02*
X71449788Y-123292316D01*
X71897429Y-115522630D02*
X71328639Y-114959145D01*
X71927251Y-104738851D02*
G75*
G02*
X72724234Y-104659867I1212149J-8170649D01*
G01*
X71932534Y-130275522D02*
X72092290Y-129934956D01*
X71962383Y-128672785D02*
X71702591Y-128721923D01*
X71988720Y-146401162D02*
X71885143Y-146179985D01*
X72092290Y-129934956D02*
X72241484Y-129648825D01*
X72094027Y-146648679D02*
X71988720Y-146401162D01*
X72137916Y-128649948D02*
X71962383Y-128672785D01*
X72137916Y-128649948D02*
G75*
G02*
X72297666Y-128644692I129084J-1492952D01*
G01*
X72176543Y-146873362D02*
X72094027Y-146648679D01*
X72188819Y-125465570D02*
X72645252Y-125704315D01*
X72215169Y-103457388D02*
X71828948Y-103499516D01*
X72241484Y-129648825D02*
G75*
G02*
X72329253Y-129531200I451816J-245575D01*
G01*
X72266058Y-123794373D02*
X71851793Y-123548594D01*
X72311697Y-147240270D02*
X72176543Y-146873362D01*
X72329245Y-129531192D02*
G75*
G02*
X72380178Y-129489050I229155J-225108D01*
G01*
X72380182Y-129489056D02*
G75*
G02*
X72432843Y-129462731I104418J-143044D01*
G01*
X72432842Y-129462726D02*
G75*
G02*
X72494271Y-129446966I147458J-447174D01*
G01*
X72453917Y-147528162D02*
G75*
G02*
X72311700Y-147240269I2073283J1203262D01*
G01*
X72494270Y-129446961D02*
G75*
G02*
X72575034Y-129443416I63630J-527839D01*
G01*
X72497800Y-128653472D02*
X72297666Y-128644693D01*
X72525879Y-148848264D02*
G75*
G02*
X71204005Y-148606024I467521J6278964D01*
G01*
X72575034Y-129443422D02*
G75*
G02*
X72639982Y-129446961I-734J-611278D01*
G01*
X72589062Y-147723008D02*
G75*
G02*
X72453913Y-147528164I1474738J1167208D01*
G01*
X72632954Y-103422269D02*
X72215169Y-103457388D01*
X72639982Y-129446961D02*
G75*
G02*
X72701409Y-129457469I-64382J-561139D01*
G01*
X72645252Y-125704315D02*
X72876979Y-125837734D01*
X72666305Y-116282751D02*
X71897429Y-115522630D01*
X72683870Y-124022560D02*
X72266058Y-123794373D01*
X72683870Y-128664006D02*
X72497800Y-128653472D01*
X72690904Y-147759890D02*
G75*
G02*
X72589051Y-147723017I-21004J101090D01*
G01*
X72701410Y-129457466D02*
G75*
G02*
X72750562Y-129473263I-74710J-316834D01*
G01*
X72719002Y-147737076D02*
G75*
G02*
X72690909Y-147759906I-43702J25076D01*
G01*
X72724234Y-104659870D02*
X73577384Y-104647586D01*
X72750562Y-129473263D02*
G75*
G02*
X72782167Y-129492592I-39162J-99537D01*
G01*
X72782165Y-129492594D02*
G75*
G02*
X72808507Y-129531187I-76065J-80206D01*
G01*
X72797971Y-128662248D02*
G75*
G02*
X72683870Y-128664010I-70671J881248D01*
G01*
X72808496Y-129531192D02*
X72876979Y-129669893D01*
X72829584Y-147533423D02*
X72719002Y-147737076D01*
X72876979Y-125837734D02*
G75*
G02*
X73013894Y-125932512I-768379J-1256266D01*
G01*
X72876979Y-129669893D02*
X72952458Y-129838415D01*
X72883998Y-128646456D02*
G75*
G02*
X72797971Y-128662251I-145698J551356D01*
G01*
X72952458Y-129838415D02*
X73033196Y-130026243D01*
X72954197Y-147284160D02*
X72829584Y-147533423D01*
X72966490Y-128616612D02*
G75*
G02*
X72883997Y-128646453I-189390J394612D01*
G01*
X72999839Y-103399432D02*
X72632954Y-103422269D01*
X73013892Y-125932514D02*
G75*
G02*
X73101688Y-126020286I-347892J-435786D01*
G01*
X73033196Y-130026243D02*
X73115724Y-130222844D01*
X73078840Y-116677728D02*
X72666305Y-116282751D01*
X73084114Y-103395942D02*
X72999839Y-103399432D01*
X73096385Y-146982225D02*
X72954197Y-147284160D01*
X73098160Y-128506030D02*
G75*
G02*
X72966484Y-128616599I-284760J205430D01*
G01*
X73101684Y-126020289D02*
G75*
G02*
X73143779Y-126115090I-176484J-135111D01*
G01*
X73105180Y-124199867D02*
G75*
G02*
X72683873Y-124022555I847820J2603667D01*
G01*
X73115724Y-130222844D02*
X73196453Y-130412440D01*
X73143799Y-126115086D02*
G75*
G02*
X73166628Y-126260791I-1209299J-264114D01*
G01*
X73163108Y-103390692D02*
X73084114Y-103395942D01*
X73164872Y-128340999D02*
G75*
G02*
X73098167Y-128506035I-398572J65099D01*
G01*
X73166630Y-126260791D02*
X73177165Y-126525872D01*
X73177165Y-126525872D02*
X73185936Y-127215751D01*
X73185936Y-127215751D02*
X73189447Y-128032045D01*
X73189447Y-128032045D02*
G75*
G02*
X73164868Y-128340998I-1942047J-955D01*
G01*
X73196453Y-130412440D02*
X73263174Y-130573957D01*
X73229820Y-103387152D02*
X73163108Y-103390692D01*
X73261425Y-103383646D02*
X73229820Y-103387152D01*
X73261425Y-103383646D02*
G75*
G02*
X73403608Y-103380143I90375J-780854D01*
G01*
X73263174Y-130573957D02*
X73300049Y-130659955D01*
X73328127Y-130717887D02*
G75*
G02*
X73300052Y-130659954I420173J239387D01*
G01*
X73349179Y-116921730D02*
X73078840Y-116677728D01*
X73359735Y-130765299D02*
G75*
G02*
X73328129Y-130717886I343765J263399D01*
G01*
X73391303Y-130800389D02*
G75*
G02*
X73359736Y-130765298I192697J205089D01*
G01*
X73414152Y-130809170D02*
G75*
G02*
X73391291Y-130800402I-352J33270D01*
G01*
X73442246Y-121519276D02*
G75*
G02*
X73333385Y-121450826I105754J288976D01*
G01*
X73443978Y-116963884D02*
G75*
G02*
X73349200Y-116921707I15622J162684D01*
G01*
X73443978Y-130793386D02*
G75*
G02*
X73414153Y-130809144I-28578J17986D01*
G01*
X73443978Y-130793386D02*
X73503648Y-130702103D01*
X73449253Y-124245526D02*
G75*
G02*
X73105177Y-124199876I-49353J947526D01*
G01*
X73450993Y-146216824D02*
X73096385Y-146982225D01*
X73480834Y-121510520D02*
G75*
G02*
X73442239Y-121519295I-26234J26120D01*
G01*
X73480834Y-121510520D02*
X77799288Y-117214928D01*
X73503648Y-130702103D02*
X73573863Y-130577460D01*
X73510679Y-116958599D02*
G75*
G02*
X73443981Y-116963864I-45279J148499D01*
G01*
X73547559Y-146422189D02*
X73450993Y-146216824D01*
X73573863Y-116926999D02*
G75*
G02*
X73510674Y-116958585I-137563J196199D01*
G01*
X73573863Y-130577460D02*
X73652892Y-130415962D01*
X73577384Y-104647586D02*
X74135636Y-104672162D01*
X73589681Y-146518766D02*
X73547559Y-146422189D01*
X73642340Y-146639911D02*
X73589681Y-146518766D01*
X73647621Y-127224531D02*
X73649365Y-126557452D01*
X73649365Y-126557452D02*
X73658140Y-126299387D01*
X73651139Y-127967089D02*
X73647621Y-127224531D01*
X73652892Y-130415962D02*
X73735411Y-130243914D01*
X73654633Y-116856793D02*
G75*
G02*
X73573861Y-116926997I-531633J530093D01*
G01*
X73658140Y-126299387D02*
G75*
G02*
X73677464Y-126157219I951360J-56913D01*
G01*
X73673954Y-128274281D02*
G75*
G02*
X73651141Y-127967089I3226946J394081D01*
G01*
X73677464Y-126157219D02*
G75*
G02*
X73717844Y-126069441I221636J-48781D01*
G01*
X73693249Y-146764557D02*
X73642340Y-146639911D01*
X73717828Y-126069429D02*
G75*
G02*
X73819652Y-125972891I370172J-288471D01*
G01*
X73723084Y-128451590D02*
G75*
G02*
X73673956Y-128274281I509716J236690D01*
G01*
X73735411Y-130243914D02*
X73828462Y-130054350D01*
X73735411Y-146873362D02*
X73693249Y-146764557D01*
X73779266Y-146989215D02*
X73735411Y-146873362D01*
X73800346Y-116707586D02*
X73654633Y-116856793D01*
X73814375Y-124166523D02*
G75*
G02*
X73449253Y-124245527I-425775J1084523D01*
G01*
X73819655Y-125972895D02*
X74018022Y-125839473D01*
X73821416Y-128584987D02*
G75*
G02*
X73723084Y-128451590I263784J297387D01*
G01*
X73828462Y-130054350D02*
X73916209Y-129875257D01*
X73842474Y-147136699D02*
X73779266Y-146989215D01*
X73879320Y-128621882D02*
G75*
G02*
X73821418Y-128584985I104380J227682D01*
G01*
X73910928Y-147289426D02*
X73842474Y-147136699D01*
X73916209Y-129875257D02*
X73984662Y-129740126D01*
X73947789Y-128641186D02*
G75*
G02*
X73879320Y-128621882I33411J249586D01*
G01*
X73972380Y-147426331D02*
X73910928Y-147289426D01*
X73981138Y-103415251D02*
X73403607Y-103380151D01*
X73984662Y-129740126D02*
X74128617Y-129460985D01*
X74018022Y-125839473D02*
X74307683Y-125665688D01*
X74051370Y-128648200D02*
G75*
G02*
X73947789Y-128641184I-4470J702100D01*
G01*
X74075927Y-148858786D02*
G75*
G02*
X72525879Y-148848265I-697227J11467086D01*
G01*
X74105787Y-116389838D02*
X73800346Y-116707586D01*
X74128617Y-129460985D02*
X74295357Y-129450448D01*
X74135636Y-104672162D02*
X74588557Y-104712544D01*
X74140888Y-147691417D02*
G75*
G02*
X73972391Y-147426326I1189112J941917D01*
G01*
X74255006Y-128644693D02*
X74051370Y-128648200D01*
X74255006Y-128644693D02*
G75*
G02*
X74597320Y-128656979I75794J-2663107D01*
G01*
X74276062Y-147705470D02*
G75*
G02*
X74140870Y-147691431I-60862J71870D01*
G01*
X74295357Y-129450448D02*
G75*
G02*
X74470937Y-129475013I27243J-445052D01*
G01*
X74307683Y-125665688D02*
X74734239Y-125432227D01*
X74312924Y-123938302D02*
G75*
G02*
X73814375Y-124166524I-2476024J4750202D01*
G01*
X74425285Y-147508848D02*
G75*
G02*
X74276063Y-147705471I-478285J208048D01*
G01*
X74470938Y-129475011D02*
G75*
G02*
X74600853Y-129569834I-106038J-281689D01*
G01*
X74535881Y-103453864D02*
X73981138Y-103415251D01*
X74588557Y-104712544D02*
X75011609Y-104779251D01*
X74600841Y-129569843D02*
G75*
G02*
X74727220Y-129783985I-759441J-592557D01*
G01*
X74716682Y-146818950D02*
X74425285Y-147508848D01*
X74727224Y-129783983D02*
X74941391Y-130284301D01*
X74734239Y-125432227D02*
X75382012Y-125060047D01*
X74769354Y-123689027D02*
X74312924Y-123938302D01*
X74822020Y-103483705D02*
X74535881Y-103453864D01*
X74822020Y-146567937D02*
X74716682Y-146818950D01*
X74922078Y-146344974D02*
X74822020Y-146567937D01*
X74941391Y-130284301D02*
X75009841Y-130452803D01*
X75009841Y-130452803D02*
X75066035Y-130598500D01*
X75009841Y-146160657D02*
X74922078Y-146344974D01*
X75009841Y-146160657D02*
G75*
G02*
X75046716Y-146106252I242759J-124843D01*
G01*
X75011609Y-104779251D02*
X75469770Y-104879300D01*
X75011609Y-128711385D02*
X74597320Y-128656975D01*
X75027399Y-115471722D02*
X74105787Y-116389838D01*
X75066035Y-130598500D02*
X75115183Y-130726678D01*
X75092348Y-146062360D02*
X75046716Y-146106252D01*
X75092348Y-146062360D02*
G75*
G02*
X75109927Y-146055316I18552J-20840D01*
G01*
X75109928Y-146055335D02*
G75*
G02*
X75122196Y-146064108I572J-12165D01*
G01*
X75115183Y-130726678D02*
G75*
G02*
X75118687Y-130747746I-48083J-18822D01*
G01*
X75122209Y-130765299D02*
G75*
G02*
X75118692Y-130747746I191491J47499D01*
G01*
X75122209Y-130765299D02*
X75134495Y-130805668D01*
X75134495Y-130805668D02*
X75152044Y-130853071D01*
X75138012Y-146104483D02*
X75122209Y-146064104D01*
X75152044Y-130853071D02*
X75173095Y-130903982D01*
X75153815Y-146148377D02*
X75138012Y-146104483D01*
X75173095Y-130903982D02*
X75206467Y-130984730D01*
X75194178Y-146250197D02*
X75153815Y-146148377D01*
X75225757Y-131004030D02*
G75*
G02*
X75206463Y-130984733I38343J57630D01*
G01*
X75241576Y-146371311D02*
X75194178Y-146250197D01*
X75243333Y-131000510D02*
G75*
G02*
X75225785Y-131003974I-11033J9710D01*
G01*
X75273173Y-130965397D02*
G75*
G02*
X75243329Y-131000506I-148273J95797D01*
G01*
X75294223Y-146502959D02*
X75241576Y-146371311D01*
X75301270Y-130918018D02*
G75*
G02*
X75273172Y-130965396I-1423370J812118D01*
G01*
X75301270Y-130918018D02*
X75380249Y-130772313D01*
X75345130Y-123350227D02*
X74769354Y-123689027D01*
X75380249Y-130772313D02*
X75473295Y-130600286D01*
X75399564Y-146741697D02*
X75294223Y-146502959D01*
X75461005Y-128800926D02*
X75011609Y-128711385D01*
X75462764Y-148665709D02*
G75*
G02*
X74075927Y-148858781I-1961364J9011109D01*
G01*
X75469770Y-104879300D02*
X75866517Y-104984626D01*
X75473295Y-130600286D02*
X75575111Y-130407186D01*
X75487349Y-103603082D02*
X74822020Y-103483705D01*
X75503115Y-146920773D02*
G75*
G02*
X75399571Y-146741693I1285885J862973D01*
G01*
X75575111Y-130407186D02*
X75675145Y-130215839D01*
X75596181Y-147036648D02*
G75*
G02*
X75503112Y-146920775I587319J567048D01*
G01*
X75668160Y-147059454D02*
G75*
G02*
X75596155Y-147036672I-15860J75054D01*
G01*
X75675145Y-130215839D02*
X75769967Y-130047312D01*
X75710283Y-147020824D02*
G75*
G02*
X75668152Y-147059423I-58283J21324D01*
G01*
X75769967Y-130047312D02*
X75852466Y-129908621D01*
X75775241Y-146806676D02*
X75710283Y-147020824D01*
X75806830Y-124761626D02*
G75*
G02*
X75382011Y-125060046I-2312730J2840726D01*
G01*
X75852466Y-129908621D02*
G75*
G02*
X75884072Y-129871753I123834J-74179D01*
G01*
X75866517Y-104984626D02*
X76210590Y-105093452D01*
X75873538Y-146434516D02*
X75775241Y-146806676D01*
X75884076Y-129871758D02*
G75*
G02*
X75957793Y-129836632I113624J-143542D01*
G01*
X75899850Y-123013179D02*
X75345130Y-123350227D01*
X75905125Y-128918556D02*
X75461005Y-128800926D01*
X75905125Y-128918556D02*
G75*
G02*
X76700357Y-129201168I-2336825J-7835644D01*
G01*
X75938481Y-111894110D02*
G75*
G02*
X75938486Y-111794050I437119J50010D01*
G01*
X75947250Y-114562410D02*
X75027399Y-115471722D01*
X75957793Y-111604456D02*
X75938481Y-111794049D01*
X75957793Y-111902883D02*
G75*
G02*
X75938457Y-111894113I-6993J10283D01*
G01*
X75957793Y-129836634D02*
G75*
G02*
X76049072Y-129834894I50007J-228266D01*
G01*
X75975357Y-111441195D02*
X75957793Y-111604456D01*
X75985884Y-111869537D02*
G75*
G02*
X75957801Y-111902897I-62884J24437D01*
G01*
X75985884Y-111869537D02*
G75*
G02*
X76005180Y-111827400I1060116J-459963D01*
G01*
X75998168Y-111153326D02*
X75975357Y-111441195D01*
X76005178Y-111827399D02*
X76064881Y-111729094D01*
X76024489Y-110818015D02*
X75998168Y-111153326D01*
X76047331Y-110475698D02*
X76024489Y-110818015D01*
X76049070Y-129834904D02*
G75*
G02*
X76161438Y-129866507I-65370J-447996D01*
G01*
X76064881Y-111729094D02*
X76138610Y-111613240D01*
X76070158Y-122885027D02*
G75*
G02*
X75899854Y-123013185I-726458J788127D01*
G01*
X76077153Y-124491273D02*
G75*
G02*
X75806830Y-124761626I-1444653J1174173D01*
G01*
X76082455Y-145577846D02*
X75873538Y-146434516D01*
X76098245Y-109796331D02*
X76047331Y-110475698D01*
X76138610Y-111613240D02*
X76219365Y-111486832D01*
X76152651Y-109322361D02*
X76098245Y-109796331D01*
X76161442Y-129866498D02*
G75*
G02*
X76310632Y-129936690I-713142J-1709402D01*
G01*
X76173708Y-122790261D02*
X76070158Y-122885027D01*
X76208831Y-122883270D02*
X76173708Y-122790261D01*
X76208831Y-122883270D02*
G75*
G02*
X76279058Y-123164148I-1144731J-435430D01*
G01*
X76210590Y-105093452D02*
X76537108Y-105218102D01*
X76219365Y-111486832D02*
X76307142Y-111351671D01*
X76221117Y-103792673D02*
X75487349Y-103603082D01*
X76224629Y-108936166D02*
X76152651Y-109322361D01*
X76224629Y-124219185D02*
G75*
G02*
X76077139Y-124491262I-782529J248185D01*
G01*
X76238680Y-144933595D02*
X76082455Y-145577846D01*
X76279051Y-123164149D02*
G75*
G02*
X76305384Y-123536307I-3458851J-431751D01*
G01*
X76287829Y-123915503D02*
G75*
G02*
X76224621Y-124219183I-1495729J152903D01*
G01*
X76305385Y-123536307D02*
G75*
G02*
X76287834Y-123915504I-3236785J-40193D01*
G01*
X76307142Y-111351671D02*
X76400185Y-111207727D01*
X76310630Y-129936694D02*
X76512528Y-130043809D01*
X76326433Y-108551726D02*
X76224629Y-108936166D01*
X76349264Y-144475445D02*
X76238680Y-144933595D01*
X76400185Y-111207727D02*
X76486205Y-111074319D01*
X76410708Y-108283123D02*
X76326433Y-108551726D01*
X76437019Y-144110292D02*
X76349264Y-144475445D01*
X76486205Y-111074319D02*
X76547617Y-110979518D01*
X76496722Y-108025076D02*
X76410708Y-108283123D01*
X76512528Y-130043809D02*
X76624877Y-130487928D01*
X76517799Y-143773239D02*
X76437019Y-144110292D01*
X76537108Y-105218102D02*
X76882906Y-105369069D01*
X76547617Y-110979518D02*
X76600308Y-110896988D01*
X76558168Y-113963816D02*
X75947250Y-114562410D01*
X76572226Y-143546785D02*
X76517799Y-143773239D01*
X76596785Y-148270702D02*
G75*
G02*
X75462762Y-148665702I-2191285J4465702D01*
G01*
X76600308Y-110896988D02*
X76658242Y-110807461D01*
X76619590Y-107675751D02*
X76496722Y-108025076D01*
X76624877Y-130487928D02*
X76672256Y-130677506D01*
X76652962Y-143211496D02*
X76572226Y-143546785D01*
X76658242Y-110807461D02*
X76710897Y-110723202D01*
X76672256Y-130677506D02*
X76723180Y-130879390D01*
X76700356Y-129201170D02*
G75*
G02*
X77499087Y-129571551I-3889056J-9433230D01*
G01*
X76703869Y-119860388D02*
X78066097Y-119869156D01*
X76710897Y-110723202D02*
X76749491Y-110663542D01*
X76723180Y-130879390D02*
X76768820Y-131063722D01*
X76744234Y-142837571D02*
X76652962Y-143211496D01*
X76749491Y-110663542D02*
X76903979Y-110405482D01*
X76768820Y-131063722D02*
X76800424Y-131195368D01*
X76800424Y-131195368D02*
X76839033Y-131351633D01*
X76830262Y-142475933D02*
X76744234Y-142837571D01*
X76839033Y-131351633D02*
X76919788Y-131669356D01*
X76847823Y-107038514D02*
X76619590Y-107675751D01*
X76882906Y-105369069D02*
X77262092Y-105548131D01*
X76895218Y-113639058D02*
X76558168Y-113963816D01*
X76903979Y-110405482D02*
X77130460Y-109982428D01*
X76912769Y-142137137D02*
X76830262Y-142475933D01*
X76919788Y-131669356D02*
X77016337Y-132043268D01*
X76925066Y-104022644D02*
X76221117Y-103792673D01*
X76925066Y-104022644D02*
G75*
G02*
X77497350Y-104264894I-1950566J-5405056D01*
G01*
X76961909Y-106697973D02*
X76847823Y-107038514D01*
X76988267Y-141829943D02*
X76912769Y-142137137D01*
X77016337Y-132043268D02*
X77118152Y-132438248D01*
X77049683Y-141570115D02*
X76988267Y-141829943D01*
X77072513Y-141478854D02*
X77049683Y-141570115D01*
X77086579Y-106294191D02*
X76961909Y-106697973D01*
X77105858Y-141338421D02*
X77072513Y-141478854D01*
X77118152Y-132438248D02*
X77219969Y-132833211D01*
X77130460Y-109982428D02*
X77348129Y-109557583D01*
X77162051Y-141463066D02*
X77105858Y-141338421D01*
X77162051Y-141463066D02*
G75*
G02*
X77223482Y-141633329I-1210151J-532834D01*
G01*
X77191891Y-105913249D02*
X77086579Y-106294191D01*
X77219969Y-132833211D02*
X77314756Y-133208891D01*
X77239294Y-105697334D02*
G75*
G02*
X77191890Y-105913249I-1779994J277634D01*
G01*
X77262092Y-105548131D02*
X77239294Y-105697334D01*
X77269108Y-119263526D02*
X76703869Y-119860388D01*
X77305991Y-141944040D02*
X77223483Y-141633329D01*
X77314756Y-133208891D02*
X77395529Y-133526632D01*
X77363929Y-113588113D02*
X76895218Y-113639058D01*
X77386738Y-142288120D02*
X77305991Y-141944040D01*
X77395529Y-133526632D02*
X77434150Y-133682869D01*
X77434150Y-133682869D02*
X77467477Y-133823301D01*
X77446417Y-109332882D02*
G75*
G02*
X77348126Y-109557581I-1862517J680882D01*
G01*
X77446417Y-109332882D02*
X77479782Y-109234583D01*
X77446417Y-142604092D02*
X77386738Y-142288120D01*
X77467477Y-133823301D02*
X77527177Y-134053251D01*
X77479782Y-109234583D02*
X77511363Y-109125749D01*
X77511363Y-109125749D02*
X77537713Y-109025687D01*
X77513136Y-147656290D02*
G75*
G02*
X76596790Y-148270712I-2711836J3053890D01*
G01*
X77525428Y-143000836D02*
X77446417Y-142604092D01*
X77527177Y-134053251D02*
X77593904Y-134314816D01*
X77541224Y-118975644D02*
X77269108Y-119263526D01*
X77551758Y-108951976D02*
G75*
G02*
X77537708Y-109025686I-815658J117276D01*
G01*
X77551758Y-108951976D02*
G75*
G02*
X77597418Y-108757098I1130642J-162124D01*
G01*
X77572818Y-113563546D02*
X77363929Y-113588113D01*
X77593904Y-134314816D02*
X77662337Y-134576380D01*
X77597411Y-108757096D02*
G75*
G02*
X77672856Y-108637711I274289J-89804D01*
G01*
X77634262Y-143443200D02*
X77525428Y-143000836D01*
X77662337Y-134576380D02*
X77729048Y-134832675D01*
X77672871Y-108637727D02*
G75*
G02*
X77783468Y-108583353I140529J-146173D01*
G01*
X77729048Y-134832675D02*
X77790508Y-135085471D01*
X77748357Y-143843471D02*
X77634262Y-143443200D01*
X77783463Y-108583322D02*
G75*
G02*
X77936220Y-108585087I71437J-428578D01*
G01*
X77790508Y-135085471D02*
X77841401Y-135303133D01*
X77799288Y-117214928D02*
X82117700Y-112915781D01*
X77813313Y-113531967D02*
X77572818Y-113563546D01*
X77825591Y-104438665D02*
X77497352Y-104264891D01*
X77825591Y-144029532D02*
G75*
G02*
X77748356Y-143843471I757809J423632D01*
G01*
X77841401Y-135303133D02*
X77867735Y-135427781D01*
X77867735Y-135427781D02*
X77906364Y-135647214D01*
X77899330Y-118596457D02*
X77541224Y-118975644D01*
X77906364Y-135647214D02*
X78074889Y-134988929D01*
X77915132Y-144161208D02*
G75*
G02*
X77825587Y-144029534I596168J501708D01*
G01*
X77936221Y-108585080D02*
X78657702Y-108734285D01*
X77985339Y-144175230D02*
G75*
G02*
X77915107Y-144161229I-26339J51030D01*
G01*
X78048535Y-113498589D02*
X77813313Y-113531967D01*
X78048535Y-144101523D02*
G75*
G02*
X77985341Y-144175234I-132235J49423D01*
G01*
X78066097Y-119869156D02*
X78687528Y-119872673D01*
X78074889Y-134988929D02*
X78143349Y-134722081D01*
X78120513Y-143878561D02*
X78048535Y-144101523D01*
X78143349Y-134722081D02*
X78208294Y-134467559D01*
X78155627Y-143745158D02*
X78120513Y-143878561D01*
X78196023Y-143590675D02*
X78155627Y-143745158D01*
X78208294Y-134467559D02*
X78262692Y-134249886D01*
X78231109Y-143439705D02*
X78196023Y-143590675D01*
X78232867Y-104677418D02*
X77825591Y-104438665D01*
X78236408Y-113468765D02*
X78048535Y-113498589D01*
X78248676Y-146811932D02*
G75*
G02*
X77513142Y-147656297I-3645676J2433232D01*
G01*
X78257446Y-143316844D02*
X78231109Y-143439705D01*
X78262692Y-134249886D02*
X78289055Y-134137531D01*
X78278521Y-118194437D02*
X77899330Y-118596457D01*
X78280270Y-130020966D02*
X77499085Y-129571554D01*
X78283804Y-143190429D02*
X78257446Y-143316844D01*
X78289055Y-134137531D02*
X78348739Y-133895278D01*
X78320650Y-143018372D02*
X78283804Y-143190429D01*
X78329436Y-106404780D02*
G75*
G02*
X78336450Y-106360930I166964J-4220D01*
G01*
X78336449Y-106360930D02*
X78366293Y-106287171D01*
X78336449Y-106441659D02*
G75*
G02*
X78329442Y-106404780I75551J33459D01*
G01*
X78348739Y-133895278D02*
X78589240Y-132956094D01*
X78359260Y-142835812D02*
X78320650Y-143018372D01*
X78362775Y-106487297D02*
G75*
G02*
X78336444Y-106441661I231525J163997D01*
G01*
X78366293Y-106287171D02*
X78464585Y-106043153D01*
X78389091Y-106515375D02*
G75*
G02*
X78362768Y-106487302I88409J109275D01*
G01*
X78396136Y-142669050D02*
X78359260Y-142835812D01*
X78404899Y-113440670D02*
X78236408Y-113468765D01*
X78431238Y-106545242D02*
G75*
G02*
X78389089Y-106515378I135662J236142D01*
G01*
X78438280Y-142475933D02*
X78396136Y-142669050D01*
X78464585Y-106043153D02*
X78571666Y-105750015D01*
X78478632Y-106568042D02*
G75*
G02*
X78431237Y-106545244I227468J533542D01*
G01*
X78492660Y-142202101D02*
X78438280Y-142475933D01*
X78526055Y-106583849D02*
G75*
G02*
X78478626Y-106568054I36345J188249D01*
G01*
X78526055Y-106583849D02*
G75*
G02*
X78998253Y-106711989I-943455J-4410751D01*
G01*
X78552357Y-141901911D02*
X78492660Y-142202101D01*
X78552357Y-146288807D02*
G75*
G02*
X78248672Y-146811929I-4367457J2185707D01*
G01*
X78571666Y-105750015D02*
X78664712Y-105469141D01*
X78578715Y-113414338D02*
X78404899Y-113440670D01*
X78589240Y-132956094D02*
X78833228Y-132004641D01*
X78606780Y-141617540D02*
X78552357Y-141901911D01*
X78620820Y-117832830D02*
X78278521Y-118194437D01*
X78629611Y-104921418D02*
X78232867Y-104677418D01*
X78629611Y-104921418D02*
G75*
G02*
X78713907Y-105005667I-135811J-220182D01*
G01*
X78657702Y-108734285D02*
X79319502Y-108925631D01*
X78659450Y-141338421D02*
X78606780Y-141617540D01*
X78687528Y-119872673D02*
X79430082Y-119874421D01*
X78713880Y-105005684D02*
G75*
G02*
X78734917Y-105051332I-136580J-90616D01*
G01*
X78713880Y-105286567D02*
G75*
G02*
X78664714Y-105469142I-1955780J428767D01*
G01*
X78713880Y-105286567D02*
X78736672Y-105172470D01*
X78713880Y-141045259D02*
X78659450Y-141338421D01*
X78733184Y-113393266D02*
X78578715Y-113414338D01*
X78734931Y-105051328D02*
G75*
G02*
X78741961Y-105102240I-161731J-48272D01*
G01*
X78741969Y-105102240D02*
G75*
G02*
X78736671Y-105172470I-560169J6940D01*
G01*
X78764768Y-140781933D02*
X78713880Y-141045259D01*
X78798146Y-140602873D02*
X78764768Y-140781933D01*
X78799879Y-145713026D02*
G75*
G02*
X78552354Y-146288805I-5489979J2019026D01*
G01*
X78833228Y-113379229D02*
X78733184Y-113393266D01*
X78833228Y-132004641D02*
X78889405Y-131799261D01*
X78847281Y-140344829D02*
X78798146Y-140602873D01*
X78889405Y-131799261D02*
G75*
G02*
X78906970Y-131760632I143495J-41939D01*
G01*
X78899944Y-140041153D02*
X78847281Y-140344829D01*
X78906969Y-131760631D02*
G75*
G02*
X78931551Y-131736055I76231J-51669D01*
G01*
X78931550Y-131736053D02*
G75*
G02*
X78971948Y-131723790I49850J-91547D01*
G01*
X78938555Y-113365167D02*
X78833228Y-113379229D01*
X78971949Y-131723798D02*
G75*
G02*
X79038628Y-131720254I64151J-577902D01*
G01*
X78973679Y-139605806D02*
X78899944Y-140041153D01*
X79010555Y-145040689D02*
G75*
G02*
X78799877Y-145713025I-6580355J1692789D01*
G01*
X79010555Y-145040689D02*
X79198383Y-144219133D01*
X79026341Y-130538824D02*
X78280270Y-130020966D01*
X79038628Y-131720258D02*
G75*
G02*
X79119377Y-131734304I2172J-226642D01*
G01*
X79096560Y-138868478D02*
X78973679Y-139605806D01*
X79112345Y-113338845D02*
X78938555Y-113365167D01*
X79119373Y-131734315D02*
G75*
G02*
X79196619Y-131772903I-125273J-347385D01*
G01*
X79122879Y-138712226D02*
X79096560Y-138868478D01*
X79154479Y-138519134D02*
X79122879Y-138712226D01*
X79189605Y-138320794D02*
X79154479Y-138519134D01*
X79196617Y-131772905D02*
G75*
G02*
X79294923Y-131857175I-443117J-616395D01*
G01*
X79198383Y-144219133D02*
X79384443Y-143257137D01*
X79219421Y-138150509D02*
X79189605Y-138320794D01*
X79249279Y-137978470D02*
X79219421Y-138150509D01*
X79282648Y-137780098D02*
X79249279Y-137978470D01*
X79294918Y-131857180D02*
X79482754Y-132045018D01*
X79314229Y-113307257D02*
X79112345Y-113338845D01*
X79314229Y-137587008D02*
X79282648Y-137780098D01*
X79319502Y-108925631D02*
X79983061Y-109174903D01*
X79338801Y-137430778D02*
X79314229Y-137587008D01*
X79363392Y-137267514D02*
X79338801Y-137430778D01*
X79379181Y-130823226D02*
X79026341Y-130538824D01*
X79384443Y-143257137D02*
X79624949Y-141952834D01*
X79400245Y-137046311D02*
X79363392Y-137267514D01*
X79409044Y-116998981D02*
X78620820Y-117832830D01*
X79430082Y-119874421D02*
X80174416Y-119872673D01*
X79440605Y-136809334D02*
X79400245Y-137046311D01*
X79479246Y-136589903D02*
X79440605Y-136809334D01*
X79482754Y-132045018D02*
X79617940Y-132187197D01*
X79516102Y-113273883D02*
X79314229Y-113307257D01*
X79516102Y-136381003D02*
X79479246Y-136589903D01*
X79552980Y-136170337D02*
X79516102Y-136381003D01*
X79584577Y-117185069D02*
X79409044Y-116998981D01*
X79584577Y-135986011D02*
X79552980Y-136170337D01*
X79603882Y-135871922D02*
X79584577Y-135986011D01*
X79617940Y-132187197D02*
X79761870Y-132350464D01*
X79624949Y-141952834D02*
X79875970Y-140564261D01*
X79642490Y-106945462D02*
X78998252Y-106711993D01*
X79682889Y-135427781D02*
X79603882Y-135871922D01*
X79695184Y-127468544D02*
G75*
G02*
X79698681Y-127456204I5016J5244D01*
G01*
X79695184Y-127468544D02*
X79796975Y-127570332D01*
X79698693Y-117306193D02*
X79584577Y-117185069D01*
X79698693Y-127456259D02*
G75*
G02*
X79830350Y-127459741I61107J-180241D01*
G01*
X79760123Y-135018760D02*
X79682889Y-135427781D01*
X79761870Y-132350464D02*
X79891795Y-132506686D01*
X79782957Y-131179575D02*
X79379181Y-130823226D01*
X79796975Y-127570332D02*
X79921617Y-127691487D01*
X79830345Y-134676470D02*
X79760123Y-135018760D01*
X79875970Y-140564261D02*
X80097168Y-139305593D01*
X79883011Y-134453503D02*
X79830345Y-134676470D01*
X79891795Y-132506686D02*
X79983061Y-132627820D01*
X79921617Y-127691487D02*
X80077853Y-127833671D01*
X79972549Y-125411139D02*
X80058540Y-125474343D01*
X79983061Y-109174903D02*
X80708070Y-109508431D01*
X79983061Y-132627820D02*
X80090162Y-132787591D01*
X79991861Y-117611636D02*
X79698693Y-117306193D01*
X80000624Y-133995330D02*
X79883011Y-134453503D01*
X80058540Y-125474343D02*
X80599236Y-125897405D01*
X80077853Y-127833671D02*
X80462312Y-128195298D01*
X80088390Y-133602128D02*
X80000624Y-133995330D01*
X80090162Y-132787591D02*
G75*
G02*
X80137556Y-132880602I-439462J-282509D01*
G01*
X80097168Y-139305593D02*
X80248133Y-138431384D01*
X80111193Y-146703095D02*
G75*
G02*
X80121731Y-146669679I14507J13795D01*
G01*
X80128775Y-125426941D02*
X79972549Y-125411139D01*
X80128775Y-125426941D02*
G75*
G02*
X80232331Y-125447986I-66975J-594859D01*
G01*
X80137546Y-132880606D02*
G75*
G02*
X80158593Y-132968393I-342346J-128494D01*
G01*
X80148077Y-133284377D02*
X80088390Y-133602128D01*
X80149847Y-131523646D02*
X79782957Y-131179575D01*
X80149847Y-131523646D02*
G75*
G02*
X80325366Y-131723800I-1165347J-1198954D01*
G01*
X80158604Y-132968392D02*
G75*
G02*
X80163871Y-133094768I-976804J-104008D01*
G01*
X80158604Y-146657455D02*
X80121746Y-146669753D01*
X80163867Y-133094768D02*
G75*
G02*
X80148072Y-133284376I-1147967J168D01*
G01*
X80163867Y-146731184D02*
G75*
G02*
X80111217Y-146703075I8233J78784D01*
G01*
X80174416Y-119872673D02*
X80797613Y-119869156D01*
X80191960Y-122677889D02*
G75*
G02*
X80200728Y-122670870I4240J3689D01*
G01*
X80213032Y-122712991D02*
G75*
G02*
X80191956Y-122677891I154068J116391D01*
G01*
X80213032Y-122712991D02*
X80325369Y-122856942D01*
X80248133Y-138431384D02*
X80423690Y-137451821D01*
X80251637Y-146620592D02*
X80158604Y-146657455D01*
X80263926Y-122712991D02*
X80200750Y-122670854D01*
X80263926Y-122712991D02*
G75*
G02*
X80469319Y-122879760I-1151626J-1628209D01*
G01*
X80293777Y-127649339D02*
X79830345Y-127459754D01*
X80325369Y-122856942D02*
G75*
G02*
X80762484Y-123488922I-5008969J-3931658D01*
G01*
X80334164Y-107229845D02*
X79642490Y-106945462D01*
X80341157Y-117975009D02*
X79991861Y-117611636D01*
X80360472Y-146574950D02*
X80251637Y-146620592D01*
X80376294Y-131790492D02*
X80325369Y-131723798D01*
X80402624Y-125512964D02*
X80232330Y-125447990D01*
X80407886Y-146746988D02*
G75*
G02*
X80163867Y-146731181I45014J2586288D01*
G01*
X80407886Y-146746988D02*
X80841476Y-146750476D01*
X80423690Y-137451821D02*
X80592230Y-136516160D01*
X80427213Y-131844900D02*
G75*
G02*
X80376295Y-131790491I1164487J1140800D01*
G01*
X80439473Y-113121160D02*
X79516102Y-113273883D01*
X80462312Y-128195298D02*
X80815161Y-128567449D01*
X80471090Y-131887028D02*
X80427213Y-131844900D01*
X80479864Y-146524046D02*
X80360472Y-146574950D01*
X80495665Y-131895794D02*
G75*
G02*
X80471090Y-131887029I735J40894D01*
G01*
X80592230Y-136516160D02*
X80727375Y-135784144D01*
X80593950Y-131843150D02*
G75*
G02*
X80495665Y-131895825I-100050J68650D01*
G01*
X80599236Y-125897405D02*
G75*
G02*
X81060902Y-126329251I-4313636J-5074195D01*
G01*
X80623817Y-125609508D02*
X80402624Y-125512964D01*
X80623817Y-146462606D02*
X80479864Y-146524046D01*
X80708070Y-109508431D02*
X81427800Y-109885865D01*
X80723881Y-118370010D02*
X80341157Y-117975009D01*
X80727375Y-135784144D02*
X80774774Y-135534865D01*
X80734381Y-131607918D02*
G75*
G02*
X80593945Y-131843147I-1998181J1033418D01*
G01*
X80755486Y-127861766D02*
X80293777Y-127649339D01*
X80755486Y-127861766D02*
G75*
G02*
X81103052Y-128054848I-1747386J-3554834D01*
G01*
X80757224Y-123158884D02*
X80469315Y-122879765D01*
X80762486Y-123488921D02*
G75*
G02*
X81145203Y-124199866I-6705086J-4067979D01*
G01*
X80774774Y-135534865D02*
X80832712Y-135231196D01*
X80797613Y-119869156D02*
X82165113Y-119860388D01*
X80815161Y-128567449D02*
X81103053Y-128913286D01*
X80818665Y-146381868D02*
X80623817Y-146462606D01*
X80832712Y-135231196D02*
X80890620Y-134923970D01*
X80841476Y-146750476D02*
X81900028Y-146718885D01*
X80890620Y-134923970D02*
X80939804Y-134664172D01*
X80897655Y-131255029D02*
G75*
G02*
X80734380Y-131607917I-4356655J1801529D01*
G01*
X80904676Y-125742914D02*
X80623817Y-125609508D01*
X80939804Y-134664172D02*
X80992456Y-134404355D01*
X80974906Y-107530022D02*
X80334164Y-107229845D01*
X80992456Y-134404355D02*
X81060903Y-134100650D01*
X81025804Y-146297594D02*
X80818665Y-146381868D01*
X81045111Y-123459068D02*
X80757224Y-123158884D01*
X81060903Y-126329250D02*
G75*
G02*
X81431311Y-126757561I-3859603J-3712150D01*
G01*
X81060903Y-134100650D02*
X81132889Y-133802226D01*
X81092501Y-130756484D02*
X80897655Y-131255029D01*
X81103053Y-128913286D02*
G75*
G02*
X81275088Y-129180103I-1425853J-1108214D01*
G01*
X81110068Y-118768488D02*
X80723881Y-118370010D01*
X81132889Y-133802226D02*
X81197836Y-133559990D01*
X81145201Y-124199867D02*
G75*
G02*
X81441854Y-124923130I-6559801J-3113033D01*
G01*
X81146951Y-125858772D02*
X80904676Y-125742914D01*
X81197836Y-133559990D02*
X81297910Y-133224680D01*
X81215398Y-146220329D02*
X81025804Y-146297594D01*
X81225933Y-128126831D02*
X81103053Y-128054846D01*
X81259285Y-123713616D02*
X81045111Y-123459068D01*
X81259285Y-123713616D02*
G75*
G02*
X81712198Y-124387713I-4882985J-3769984D01*
G01*
X81275085Y-129180104D02*
G75*
G02*
X81383911Y-129468016I-1090985J-576896D01*
G01*
X81287374Y-112989501D02*
X80439473Y-113121160D01*
X81297910Y-133224680D02*
X81387429Y-132954335D01*
X81322481Y-130096455D02*
X81092501Y-130756484D01*
X81362857Y-125955344D02*
X81146951Y-125858772D01*
X81383914Y-129468015D02*
G75*
G02*
X81401479Y-129738338I-758014J-184985D01*
G01*
X81387429Y-132954335D02*
X81492756Y-132673468D01*
X81397970Y-128219875D02*
X81225933Y-128126831D01*
X81401465Y-129738337D02*
G75*
G02*
X81322479Y-130096454I-1763265J201137D01*
G01*
X81406762Y-146137850D02*
X81215398Y-146220329D01*
X81427800Y-109885865D02*
X82082593Y-110277321D01*
X81431313Y-126757560D02*
G75*
G02*
X81691142Y-127166595I-2068713J-1601140D01*
G01*
X81441853Y-124923130D02*
G75*
G02*
X81619152Y-125588452I-4262453J-1492170D01*
G01*
X81475211Y-119145921D02*
X81110068Y-118768488D01*
X81492756Y-132673468D02*
X81645482Y-132297817D01*
X81545420Y-126034320D02*
X81362857Y-125955344D01*
X81578767Y-128312912D02*
X81397970Y-128219875D01*
X81596342Y-126044851D02*
G75*
G02*
X81545417Y-126034326I-642J125351D01*
G01*
X81613881Y-128321696D02*
G75*
G02*
X81578776Y-128312895I-581J72096D01*
G01*
X81617397Y-146037780D02*
X81406762Y-146137850D01*
X81619156Y-125588451D02*
X81663048Y-125837734D01*
X81622646Y-128316413D02*
G75*
G02*
X81613878Y-128321715I-7446J2413D01*
G01*
X81645482Y-126020289D02*
G75*
G02*
X81596343Y-126044878I-51482J41489D01*
G01*
X81645482Y-132297817D02*
X81689396Y-132194230D01*
X81649013Y-128253230D02*
X81622646Y-128316413D01*
X81663048Y-125837734D02*
G75*
G02*
X81668325Y-125960601I-512648J-83566D01*
G01*
X81668314Y-125960600D02*
G75*
G02*
X81645458Y-126020269I-98714J3600D01*
G01*
X81678824Y-128175988D02*
X81649013Y-128253230D01*
X81689396Y-132194230D02*
X81750798Y-132046785D01*
X81691134Y-127166599D02*
G75*
G02*
X81764868Y-127364954I-739034J-387601D01*
G01*
X81710434Y-128084691D02*
X81678824Y-128175988D01*
X81712199Y-124387712D02*
G75*
G02*
X82079090Y-125130263I-5567699J-3212888D01*
G01*
X81750798Y-132046785D02*
X81817512Y-131887028D01*
X81764853Y-127364958D02*
G75*
G02*
X81792941Y-127587918I-1047753J-245242D01*
G01*
X81775386Y-127830163D02*
G75*
G02*
X81710429Y-128084689I-1683386J294063D01*
G01*
X81782405Y-119463652D02*
X81475211Y-119145921D01*
X81792939Y-127587918D02*
G75*
G02*
X81775381Y-127830162I-1394539J-20682D01*
G01*
X81817512Y-131887028D02*
X81880721Y-131737806D01*
X81817512Y-145935968D02*
X81617397Y-146037780D01*
X81880721Y-131737806D02*
X82121216Y-131121648D01*
X81926358Y-119612876D02*
X81782405Y-119463652D01*
X81968503Y-145848199D02*
X81817512Y-145935968D01*
X82035195Y-108107587D02*
X80974906Y-107530022D01*
X82035195Y-108107587D02*
G75*
G02*
X82965589Y-108723752I-5889495J-9903513D01*
G01*
X82077338Y-112871909D02*
X81287374Y-112989501D01*
X82077338Y-112871909D02*
G75*
G02*
X82117691Y-112884185I6562J-50891D01*
G01*
X82079094Y-125130261D02*
G75*
G02*
X82358193Y-125939544I-6173794J-2581939D01*
G01*
X82082593Y-110277321D02*
X82728605Y-110719703D01*
X82117700Y-112884174D02*
G75*
G02*
X82117723Y-112915803I-15800J-15826D01*
G01*
X82121216Y-131121648D02*
X82309054Y-130559885D01*
X82165113Y-119860388D02*
X81926358Y-119612876D01*
X82309054Y-130559885D02*
X82449474Y-130024482D01*
X82358195Y-125939544D02*
G75*
G02*
X82553065Y-126815502I-8428295J-2334656D01*
G01*
X82449474Y-130024482D02*
X82554798Y-129483800D01*
X82553067Y-126815502D02*
G75*
G02*
X82616251Y-127400076I-4971967J-833098D01*
G01*
X82618006Y-128892198D02*
G75*
G02*
X82554795Y-129483799I-5596506J298798D01*
G01*
X82618006Y-128892198D02*
X82637319Y-128146145D01*
X82637319Y-128146145D02*
X82616256Y-127400076D01*
X82711042Y-146622363D02*
G75*
G02*
X81900028Y-146718884I-1202242J6646263D01*
G01*
X82728605Y-110719703D02*
X83422017Y-111249847D01*
X82965591Y-108723750D02*
G75*
G02*
X83860890Y-109441756I-7641491J-10445550D01*
G01*
X82967336Y-106857681D02*
G75*
G02*
X82991926Y-106834901I22864J-19D01*
G01*
X82970868Y-106866483D02*
G75*
G02*
X82967388Y-106857704I2532J6083D01*
G01*
X82970868Y-106866483D02*
X83072662Y-106929670D01*
X82991928Y-106834878D02*
G75*
G02*
X83111299Y-106855939I-122128J-1041022D01*
G01*
X83072662Y-106929670D02*
X83188540Y-107001646D01*
X83111299Y-106855938D02*
G75*
G02*
X83267520Y-106899834I-279699J-1295362D01*
G01*
X83188540Y-107001646D02*
X83327213Y-107084154D01*
X83220132Y-117544932D02*
X83471183Y-117643230D01*
X83327213Y-107084154D02*
G75*
G02*
X85345987Y-108465710I-9368413J-15855146D01*
G01*
X83334220Y-117355354D02*
X83220132Y-117544932D01*
X83399191Y-146445049D02*
G75*
G02*
X82711043Y-146622371I-1533091J4525649D01*
G01*
X83422017Y-111249847D02*
X84004810Y-111751905D01*
X83455375Y-106966522D02*
X83267521Y-106899832D01*
X83471183Y-117643230D02*
X83808203Y-117788926D01*
X83495739Y-117079730D02*
X83334220Y-117355354D01*
X83771354Y-141506929D02*
G75*
G02*
X83759065Y-141494654I-5254J7029D01*
G01*
X83771354Y-141506929D02*
X84043431Y-141254159D01*
X83788906Y-141457775D02*
X83759054Y-141494646D01*
X83808203Y-117788926D02*
X84187380Y-117982051D01*
X83874916Y-144622871D02*
X81968503Y-145848199D01*
X83906505Y-116386338D02*
X83495739Y-117079730D01*
X83934605Y-141273467D02*
X83788906Y-141457775D01*
X83980250Y-107189473D02*
X83455375Y-106966522D01*
X84004810Y-111751905D02*
X84708753Y-112433042D01*
X84043431Y-141254159D02*
X84375249Y-140931154D01*
X84069781Y-146165941D02*
G75*
G02*
X83399191Y-146445050I-2355681J4714641D01*
G01*
X84106639Y-141057534D02*
X83934605Y-141273467D01*
X84187380Y-117982051D02*
X84571838Y-118201483D01*
X84303245Y-140811782D02*
X84106639Y-141057534D01*
X84371709Y-115598135D02*
X83906505Y-116386338D01*
X84375249Y-140931154D02*
X84649082Y-140650262D01*
X84380487Y-145990386D02*
G75*
G02*
X84069781Y-146165941I-2068487J3298186D01*
G01*
X84380487Y-145990386D02*
X84829904Y-145698968D01*
X84554287Y-107470360D02*
X83980250Y-107189473D01*
X84571838Y-118201483D02*
X84929942Y-118429671D01*
X84649082Y-140650262D02*
X84975607Y-140293912D01*
X84708753Y-112433042D02*
X85368816Y-113112393D01*
X84719278Y-140286884D02*
X84303245Y-140811782D01*
X84808806Y-110330005D02*
X83860891Y-109441754D01*
X84824623Y-117120120D02*
G75*
G02*
X84833393Y-117092018I45177J1320D01*
G01*
X84829904Y-145698968D02*
X85300354Y-145370695D01*
X84833411Y-114815185D02*
X84371709Y-115598135D01*
X84833411Y-117092031D02*
X84940477Y-116920007D01*
X84835153Y-117142924D02*
G75*
G02*
X84824606Y-117120122I30447J27924D01*
G01*
X84879033Y-117186807D02*
X84835153Y-117142924D01*
X84929942Y-118429671D02*
X85323187Y-118701787D01*
X84936985Y-117235960D02*
X84879033Y-117186807D01*
X84940477Y-116920007D02*
X85066868Y-116721613D01*
X84975607Y-140293912D02*
X85340731Y-139879628D01*
X84994914Y-139927015D02*
X84719278Y-140286884D01*
X85007190Y-117285131D02*
X84936985Y-117235960D01*
X85007190Y-117285131D02*
G75*
G02*
X85505746Y-117660790I-3423890J-5062669D01*
G01*
X85012454Y-114511506D02*
X84833411Y-114815185D01*
X85066868Y-116721613D02*
X85217836Y-116495158D01*
X85177464Y-114234144D02*
X85012454Y-114511506D01*
X85187986Y-107812669D02*
X84554287Y-107470360D01*
X85210832Y-139626838D02*
X84994914Y-139927015D01*
X85217836Y-116495158D02*
X85398654Y-116228329D01*
X85237169Y-143618766D02*
G75*
G02*
X83874916Y-144622871I-11580069J14284366D01*
G01*
X85300354Y-145370695D02*
X85697085Y-145072282D01*
X85316144Y-114004169D02*
X85177464Y-114234144D01*
X85323187Y-118701787D02*
X85602291Y-118914190D01*
X85340731Y-139879628D02*
X85674274Y-139488156D01*
X85345986Y-108465711D02*
G75*
G02*
X87141829Y-110085989I-11013386J-14012089D01*
G01*
X85367054Y-113921685D02*
X85316144Y-114004169D01*
X85368816Y-113112393D02*
G75*
G02*
X85547865Y-113388011I-645816J-615507D01*
G01*
X85398654Y-116228329D02*
X85616327Y-115905342D01*
X85402158Y-113863750D02*
X85367054Y-113921685D01*
X85426754Y-139305593D02*
X85210832Y-139626838D01*
X85435542Y-131269092D02*
G75*
G02*
X85442528Y-131156742I340958J35192D01*
G01*
X85442534Y-131156743D02*
G75*
G02*
X85498706Y-130984728I1045266J-246157D01*
G01*
X85444310Y-113790003D02*
X85402158Y-113863750D01*
X85467116Y-111014624D02*
X84808806Y-110330005D01*
X85472384Y-131348097D02*
G75*
G02*
X85435538Y-131269092I86416J88397D01*
G01*
X85486436Y-113716283D02*
X85444310Y-113790003D01*
X85521530Y-113649574D02*
X85486436Y-113716283D01*
X85542603Y-131404282D02*
G75*
G02*
X85472384Y-131348097I288697J432782D01*
G01*
X85547874Y-113388007D02*
G75*
G02*
X85572437Y-113456489I-714974J-295093D01*
G01*
X85561921Y-113561796D02*
X85521530Y-113649574D01*
X85572441Y-113456488D02*
G75*
G02*
X85575956Y-113507380I-112141J-33312D01*
G01*
X85575955Y-113507380D02*
G75*
G02*
X85561929Y-113561799I-194755J21180D01*
G01*
X85602291Y-118914190D02*
X85858577Y-119131861D01*
X85616327Y-115905342D02*
X85834022Y-115582330D01*
X85625123Y-130698589D02*
X85498710Y-130984730D01*
X85633878Y-131456932D02*
G75*
G02*
X85542605Y-131404279I306722J637132D01*
G01*
X85674274Y-139488156D02*
X85888416Y-139221335D01*
X85693571Y-130549373D02*
X85625123Y-130698589D01*
X85697085Y-145072282D02*
X86523909Y-144368345D01*
X85753271Y-131507835D02*
G75*
G02*
X85633877Y-131456933I508729J1358735D01*
G01*
X85753271Y-131507835D02*
X85909490Y-131562274D01*
X85756767Y-128651723D02*
G75*
G02*
X85769035Y-128630634I85933J-35877D01*
G01*
X85758528Y-130403674D02*
X85693571Y-130549373D01*
X85762047Y-128664006D02*
G75*
G02*
X85756814Y-128651759I853J7606D01*
G01*
X85769039Y-128630637D02*
G75*
G02*
X85798869Y-128600811I204461J-174663D01*
G01*
X85811202Y-130277272D02*
X85758528Y-130403674D01*
X85834022Y-115582330D02*
X86016585Y-115310224D01*
X85837521Y-128658738D02*
G75*
G02*
X85762038Y-128664030I-43721J82638D01*
G01*
X85837521Y-128658738D02*
X86004307Y-128567449D01*
X85837521Y-130203541D02*
X85811202Y-130277272D01*
X85842794Y-128567449D02*
X85798875Y-128600818D01*
X85858577Y-119131861D02*
X86169306Y-119423268D01*
X85881395Y-130071888D02*
X85837521Y-130203541D01*
X85888416Y-139221335D02*
X85951617Y-139138827D01*
X85891946Y-108223448D02*
X85187986Y-107812669D01*
X85909490Y-131562274D02*
G75*
G02*
X86522148Y-131820298I-1147290J-3580526D01*
G01*
X85951617Y-139138827D02*
X86023611Y-139045761D01*
X86004307Y-128567449D02*
X86223736Y-128425249D01*
X86016585Y-115310224D02*
X86204409Y-115032873D01*
X86023611Y-139045761D02*
X86092061Y-138958015D01*
X86041148Y-111664139D02*
X85467116Y-111014624D01*
X86088541Y-118173389D02*
X85505748Y-117660788D01*
X86092061Y-138958015D02*
X86144735Y-138889560D01*
X86144735Y-138889560D02*
X86688925Y-138152272D01*
X86169306Y-119423268D02*
G75*
G02*
X86973285Y-120281676I-7940406J-8242632D01*
G01*
X86204409Y-115032873D02*
X86434397Y-114692302D01*
X86223736Y-128425249D02*
X86506356Y-128223387D01*
X86241261Y-137988987D02*
X85426754Y-139305593D01*
X86279893Y-117144696D02*
X87355981Y-117144696D01*
X86355377Y-142609376D02*
G75*
G02*
X85237171Y-143618768I-9970877J9921676D01*
G01*
X86434397Y-114692302D02*
X86667845Y-114346476D01*
X86488791Y-116930512D02*
X86279893Y-117144696D01*
X86488791Y-116930512D02*
G75*
G02*
X87180441Y-116379311I2517709J-2449688D01*
G01*
X86495808Y-130389619D02*
X85881395Y-130071888D01*
X86506356Y-128223387D02*
X87445511Y-127461525D01*
X86522145Y-131820304D02*
X87413918Y-132331153D01*
X86523909Y-144368345D02*
X87389334Y-143541518D01*
X86534445Y-112283834D02*
X86041148Y-111664139D01*
X86659083Y-118729855D02*
X86088541Y-118173389D01*
X86667845Y-114346476D02*
X86869709Y-114049811D01*
X86688925Y-138152272D02*
X87364780Y-137153393D01*
X86736328Y-130516004D02*
X86495808Y-130389619D01*
X86869709Y-114049811D02*
X87317377Y-113389769D01*
X86945209Y-112875413D02*
X86534445Y-112283834D01*
X86955767Y-130633628D02*
X86736328Y-130516004D01*
X86959260Y-136702243D02*
X86241261Y-137988987D01*
X86973285Y-120281676D02*
G75*
G02*
X87703582Y-121231396I-9858485J-8336424D01*
G01*
X87040010Y-113019372D02*
X86945209Y-112875413D01*
X87061070Y-127610730D02*
G75*
G02*
X85842794Y-128567449I-8759270J9899930D01*
G01*
X87122504Y-119247723D02*
X86659083Y-118729855D01*
X87131308Y-113154544D02*
X87040010Y-113019372D01*
X87138336Y-130733702D02*
X86955767Y-130633628D01*
X87138336Y-130733702D02*
G75*
G02*
X87201529Y-130772313I-470336J-840798D01*
G01*
X87141832Y-110085986D02*
G75*
G02*
X88655053Y-111890597I-11992732J-11593014D01*
G01*
X87180445Y-116379318D02*
G75*
G02*
X88063453Y-115938694I2944155J-4794982D01*
G01*
X87208542Y-113265123D02*
X87131308Y-113154544D01*
X87247143Y-113314280D02*
G75*
G02*
X87208548Y-113265119I254557J239580D01*
G01*
X87250674Y-130805668D02*
X87201529Y-130772313D01*
X87317377Y-113389769D02*
X87247143Y-113314280D01*
X87327886Y-130856577D02*
X87250674Y-130805668D01*
X87355981Y-109171387D02*
X85891946Y-108223448D01*
X87355981Y-109171387D02*
G75*
G02*
X88605878Y-110131625I-9773981J-14015913D01*
G01*
X87355981Y-117144696D02*
X87770296Y-117142924D01*
X87364780Y-137153393D02*
X88014286Y-136138752D01*
X87389334Y-143541518D02*
X88228461Y-142655017D01*
X87413918Y-132331153D02*
X88288146Y-132882353D01*
X87417429Y-130914509D02*
X87327886Y-130856577D01*
X87473616Y-141391077D02*
X86355377Y-142609376D01*
X87505212Y-130970669D02*
X87417429Y-130914509D01*
X87626338Y-135361077D02*
X86959260Y-136702243D01*
X87682494Y-119965710D02*
X87122504Y-119247723D01*
X87703582Y-121231396D02*
G75*
G02*
X88381174Y-122305731I-11937782J-8280104D01*
G01*
X87770296Y-117142924D02*
X88117860Y-117135909D01*
X88014286Y-126617139D02*
G75*
G02*
X87061072Y-127610732I-6422686J5207639D01*
G01*
X88014286Y-136138752D02*
X88468938Y-135355808D01*
X88051148Y-131349860D02*
X87505212Y-130970669D01*
X88063455Y-115938699D02*
G75*
G02*
X89074579Y-115638516I2287645J-5852601D01*
G01*
X88117860Y-117135909D02*
X88421541Y-117127138D01*
X88170539Y-120680188D02*
X87682494Y-119965710D01*
X88228461Y-142655017D02*
X88976282Y-141775533D01*
X88247769Y-126680344D02*
G75*
G02*
X87445512Y-127461526I-7947469J7359344D01*
G01*
X88288146Y-132882353D02*
G75*
G02*
X88509315Y-133140423I-330146J-506747D01*
G01*
X88288146Y-133874201D02*
X87626338Y-135361077D01*
X88381174Y-122305731D02*
X89027185Y-123539817D01*
X88428568Y-133537171D02*
X88288146Y-133874201D01*
X88432090Y-117114837D02*
G75*
G02*
X88421539Y-117127125I-12590J137D01*
G01*
X88432090Y-117114837D02*
G75*
G02*
X88439132Y-117100819I15210J1137D01*
G01*
X88439123Y-117100804D02*
G75*
G02*
X88461931Y-117081490I213077J-228496D01*
G01*
X88461933Y-117081493D02*
G75*
G02*
X88491779Y-117062188I632667J-945407D01*
G01*
X88468938Y-135355808D02*
X88490025Y-135317223D01*
X88490025Y-135317223D02*
X88547955Y-135213638D01*
X88491780Y-117062189D02*
G75*
G02*
X88528628Y-117046377I99620J-181311D01*
G01*
X88495291Y-133345802D02*
G75*
G02*
X88428568Y-133537171I-2419891J736402D01*
G01*
X88509311Y-133140425D02*
G75*
G02*
X88521582Y-133221162I-134711J-61775D01*
G01*
X88521610Y-133221166D02*
G75*
G02*
X88495285Y-133345800I-855810J115666D01*
G01*
X88528625Y-117046369D02*
G75*
G02*
X88619910Y-117018300I221575J-558131D01*
G01*
X88547955Y-135213638D02*
X88616414Y-135088973D01*
X88554971Y-131762389D02*
X88051148Y-131349860D01*
X88600605Y-121408691D02*
X88170539Y-120680188D01*
X88605877Y-110131626D02*
G75*
G02*
X89688997Y-111142773I-9731977J-11510374D01*
G01*
X88616414Y-135088973D02*
X88690133Y-134953826D01*
X88619911Y-117018307D02*
X88774396Y-116984946D01*
X88655052Y-111890597D02*
G75*
G02*
X89832942Y-113816323I-11714352J-8488303D01*
G01*
X88690133Y-134953826D02*
X88900775Y-134562354D01*
X88727006Y-125555088D02*
G75*
G02*
X88014287Y-126617140I-6361206J3498688D01*
G01*
X88774396Y-116984946D02*
X89035969Y-116937548D01*
X88892024Y-125900913D02*
G75*
G02*
X88247766Y-126680342I-7458824J5509313D01*
G01*
X88900775Y-134562354D02*
X89143048Y-134098892D01*
X88948197Y-139468869D02*
G75*
G02*
X87473614Y-141391076I-21292697J14807569D01*
G01*
X88976282Y-141775533D02*
X90150682Y-140204385D01*
X88979796Y-122168817D02*
X88600605Y-121408691D01*
X89018408Y-132210033D02*
X88554971Y-131762389D01*
X89027185Y-123539817D02*
X89181660Y-123873357D01*
X89035969Y-116937548D02*
X89606520Y-116839247D01*
X89074577Y-115638507D02*
G75*
G02*
X90148913Y-115499812I1443223J-6948993D01*
G01*
X89143048Y-134098892D02*
X89371243Y-133647753D01*
X89181660Y-123873357D02*
G75*
G02*
X89246602Y-124073466I-939660J-415543D01*
G01*
X89215021Y-122718256D02*
X88979796Y-122168817D01*
X89227317Y-124398230D02*
G75*
G02*
X88727003Y-125555086I-6304717J2040030D01*
G01*
X89246607Y-124073465D02*
G75*
G02*
X89258886Y-124231464I-519307J-119835D01*
G01*
X89258900Y-124231465D02*
G75*
G02*
X89227306Y-124398227I-783500J62065D01*
G01*
X89351937Y-125151323D02*
G75*
G02*
X88892022Y-125900911I-4678637J2354723D01*
G01*
X89351937Y-125151323D02*
X89474840Y-124882756D01*
X89371243Y-133647753D02*
X89536280Y-133308957D01*
X89448490Y-132696300D02*
X89018408Y-132210033D01*
X89453766Y-123346718D02*
X89215021Y-122718256D01*
X89474840Y-124882756D02*
X89587170Y-124586060D01*
X89536280Y-133308957D02*
X89685467Y-132989456D01*
X89587170Y-124586060D02*
X89671422Y-124313965D01*
X89606520Y-116839247D02*
X89831157Y-116809371D01*
X89659147Y-123938302D02*
X89453766Y-123346718D01*
X89659147Y-123938302D02*
G75*
G02*
X89694261Y-124157735I-639747J-214898D01*
G01*
X89685467Y-132989456D02*
X89448490Y-132696300D01*
X89688993Y-111142777D02*
G75*
G02*
X90647470Y-112239944I-10198093J-9876223D01*
G01*
X89694253Y-124157735D02*
G75*
G02*
X89671417Y-124313964I-520753J-3665D01*
G01*
X89831157Y-116809371D02*
X90094512Y-116791820D01*
X89832946Y-113816321D02*
X89892630Y-113933964D01*
X89892630Y-113933964D02*
X89950561Y-114039284D01*
X89950561Y-114039284D02*
X89999704Y-114127059D01*
X90022535Y-114156905D02*
G75*
G02*
X89999701Y-114127061I150365J138705D01*
G01*
X90061144Y-114169188D02*
G75*
G02*
X90022520Y-114156919I-8844J39088D01*
G01*
X90094512Y-116791820D02*
X90447366Y-116781305D01*
X90147176Y-114142848D02*
G75*
G02*
X90061144Y-114169189I-289676J792448D01*
G01*
X90150682Y-140204385D02*
X91228534Y-138543727D01*
X90282354Y-114084936D02*
G75*
G02*
X90147177Y-114142850I-833354J1758436D01*
G01*
X90282354Y-114084936D02*
X90505280Y-113976089D01*
X90349059Y-137279787D02*
X88948197Y-139468869D01*
X90447366Y-116781305D02*
X90972238Y-116777798D01*
X90505280Y-113976089D02*
X90894988Y-113775955D01*
X90763355Y-128811464D02*
G75*
G02*
X90752768Y-128732472I86245J51764D01*
G01*
X90780894Y-128832535D02*
G75*
G02*
X90763335Y-128811474I36806J48535D01*
G01*
X90780894Y-128832535D02*
X90909047Y-128937869D01*
X90791437Y-112424251D02*
X90647471Y-112239943D01*
X90889745Y-128330471D02*
X90752801Y-128732481D01*
X90894988Y-113775955D02*
X91193427Y-113609191D01*
X90909047Y-128937869D02*
X91059995Y-129058973D01*
X90942405Y-112615595D02*
X90791437Y-112424251D01*
X90972238Y-116777798D02*
X91720075Y-116786553D01*
X91044204Y-127924963D02*
X90889745Y-128330471D01*
X91049479Y-115487525D02*
X90148913Y-115499811D01*
X91049479Y-115487525D02*
G75*
G02*
X91892108Y-115545479I-187579J-8882075D01*
G01*
X91059995Y-129058973D02*
X91235560Y-129197655D01*
X91077547Y-112785888D02*
X90942405Y-112615595D01*
X91168849Y-112901729D02*
X91077547Y-112785888D01*
X91193427Y-113609191D02*
X91419887Y-113472283D01*
X91193427Y-127587918D02*
X91044204Y-127924963D01*
X91193427Y-127587918D02*
G75*
G02*
X91516434Y-127001588I6009873J-2928682D01*
G01*
X91228534Y-138543727D02*
X92288822Y-136665392D01*
X91235560Y-129197655D02*
X91830649Y-129687439D01*
X91318061Y-113094852D02*
X91168849Y-112901729D01*
X91318061Y-113094852D02*
G75*
G02*
X91412859Y-113240542I-1078961J-805748D01*
G01*
X91412859Y-113240542D02*
G75*
G02*
X91469038Y-113349384I-1279159J-729158D01*
G01*
X91469038Y-113349384D02*
G75*
G02*
X91469038Y-113410815I-74538J-30716D01*
G01*
X91469038Y-113410815D02*
G75*
G02*
X91419883Y-113472277I-123038J48015D01*
G01*
X91516431Y-127001586D02*
G75*
G02*
X91920171Y-126417017I6345969J-3951214D01*
G01*
X91691975Y-134795821D02*
X90349059Y-137279787D01*
X91720075Y-116786553D02*
G75*
G02*
X92137873Y-116818181I-86375J-3916247D01*
G01*
X91830649Y-129687439D02*
X92488952Y-130275522D01*
X91892108Y-115545478D02*
G75*
G02*
X92680308Y-115671854I-952908J-8464422D01*
G01*
X92137873Y-116818178D02*
G75*
G02*
X92503012Y-116891909I-378773J-2816822D01*
G01*
X92288822Y-136665392D02*
X93408825Y-134435950D01*
X92357305Y-124319240D02*
G75*
G02*
X92364309Y-124231464I551795J140D01*
G01*
X92376613Y-124328010D02*
G75*
G02*
X92357311Y-124319241I-8413J7110D01*
G01*
X92376613Y-124328010D02*
X92673281Y-124073465D01*
X92427526Y-123831233D02*
X92364312Y-124231465D01*
X92427526Y-125799104D02*
X91920171Y-126417017D01*
X92441566Y-128300623D02*
X92501235Y-128074188D01*
X92441566Y-128377846D02*
G75*
G02*
X92441550Y-128300619I154634J38646D01*
G01*
X92459110Y-128416487D02*
G75*
G02*
X92441570Y-128377845I159690J95787D01*
G01*
X92488952Y-128458630D02*
G75*
G02*
X92459119Y-128416482I136048J127930D01*
G01*
X92488952Y-130275522D02*
X93091065Y-130842534D01*
X92494216Y-123436235D02*
X92427526Y-123831233D01*
X92501235Y-128074188D02*
X92594281Y-127759951D01*
X92503014Y-116891903D02*
X93012097Y-117048137D01*
X92529317Y-128497236D02*
G75*
G02*
X92488956Y-128458627I206083J255836D01*
G01*
X92550392Y-123127299D02*
X92494216Y-123436235D01*
X92574954Y-128525335D02*
G75*
G02*
X92529318Y-128497235I614646J1049335D01*
G01*
X92574954Y-128525335D02*
G75*
G02*
X92632882Y-128562204I-179754J-346365D01*
G01*
X92583746Y-122949999D02*
X92550392Y-123127299D01*
X92594281Y-127759951D02*
X92741739Y-127298245D01*
X92611858Y-122786740D02*
X92583746Y-122949999D01*
X92632888Y-122649813D02*
X92611858Y-122786740D01*
X92636404Y-122593638D02*
G75*
G02*
X92632886Y-122649813I-565804J7238D01*
G01*
X92636404Y-122593638D02*
G75*
G02*
X92643452Y-122547989I125196J4038D01*
G01*
X92662746Y-122474249D02*
X92643434Y-122547983D01*
X92673281Y-124073465D02*
X92957668Y-123824205D01*
X92680309Y-115671850D02*
G75*
G02*
X93414075Y-115866697I-1527909J-7232950D01*
G01*
X92692594Y-122389984D02*
X92662746Y-122474249D01*
X92727712Y-122305731D02*
X92692594Y-122389984D01*
X92729451Y-128632424D02*
X92632888Y-128562196D01*
X92741739Y-127298245D02*
X92966455Y-126608356D01*
X92818965Y-122084537D02*
X92727712Y-122305731D01*
X92840042Y-128718429D02*
X92729451Y-128632424D01*
X92931323Y-121793153D02*
X92818965Y-122084537D01*
X92950634Y-128807947D02*
X92840042Y-128718429D01*
X92957668Y-123824205D02*
X93171814Y-123620569D01*
X92966455Y-126608356D02*
X93194652Y-125904424D01*
X92994518Y-131983571D02*
X91691975Y-134795821D01*
X93012097Y-117048137D02*
X93233259Y-117125386D01*
X93040158Y-131876492D02*
X92994518Y-131983571D01*
X93043673Y-121480674D02*
X92931323Y-121793153D01*
X93071759Y-125107434D02*
X92427526Y-125799104D01*
X93091065Y-130842534D02*
G75*
G02*
X93256075Y-131065484I-574265J-597566D01*
G01*
X93094591Y-131755360D02*
X93040158Y-131876492D01*
X93140234Y-121192763D02*
X93043673Y-121480674D01*
X93145496Y-131639502D02*
X93094591Y-131755360D01*
X93185851Y-131549983D02*
X93145496Y-131639502D01*
X93194652Y-125904424D02*
X93401779Y-125267191D01*
X93233259Y-117125386D02*
G75*
G02*
X93356151Y-117176295I-553959J-1511014D01*
G01*
X93256091Y-131065476D02*
G75*
G02*
X93287687Y-131158524I-284291J-148424D01*
G01*
X93257834Y-131376188D02*
X93185851Y-131549983D01*
X93271891Y-124902055D02*
X93071759Y-125107434D01*
X93287686Y-131158524D02*
G75*
G02*
X93289412Y-131255027I-313586J-53876D01*
G01*
X93289427Y-131255029D02*
G75*
G02*
X93257825Y-131376185I-544127J77229D01*
G01*
X93291206Y-129118684D02*
X92950634Y-128807947D01*
X93356152Y-117176293D02*
G75*
G02*
X93426362Y-117220175I-157252J-329707D01*
G01*
X93375475Y-120318557D02*
G75*
G02*
X93140232Y-121192762I-9889175J2192357D01*
G01*
X93401779Y-125267191D02*
X93551008Y-124803750D01*
X93408825Y-134435950D02*
X93508871Y-134225296D01*
X93426367Y-117220168D02*
G75*
G02*
X93456232Y-117264054I-51767J-67332D01*
G01*
X93443932Y-124733522D02*
X93271891Y-124902055D01*
X93456221Y-117264057D02*
G75*
G02*
X93464993Y-117314961I-294421J-76943D01*
G01*
X93464990Y-117314961D02*
X93486063Y-117460656D01*
X93486063Y-117460656D02*
X93508871Y-117634475D01*
X93508871Y-117634475D02*
X93533440Y-117829320D01*
X93508871Y-134225296D02*
X93600169Y-134028698D01*
X93522909Y-119449609D02*
G75*
G02*
X93375475Y-120318557I-8215309J946909D01*
G01*
X93533440Y-117829320D02*
G75*
G02*
X93575560Y-118610481I-5815340J-705280D01*
G01*
X93551008Y-124803750D02*
X93575558Y-124723002D01*
X93575558Y-118610481D02*
G75*
G02*
X93522913Y-119449609I-8245358J96081D01*
G01*
X93575558Y-124723002D02*
X93594899Y-124652788D01*
X93594899Y-124652788D02*
X93608943Y-124594853D01*
X93596650Y-124584317D02*
X93443932Y-124733522D01*
X93596650Y-124584317D02*
G75*
G02*
X93605430Y-124584317I4390J-3428D01*
G01*
X93600169Y-134028698D02*
X93675648Y-133861913D01*
X93605430Y-124584317D02*
G75*
G02*
X93608977Y-124594854I-12230J-9983D01*
G01*
X93675648Y-133861913D02*
X93705505Y-133788185D01*
X93705505Y-133788185D02*
X93731825Y-133721477D01*
X93728299Y-122902595D02*
G75*
G02*
X93171815Y-123620570I-3129299J1850795D01*
G01*
X93731825Y-133721477D02*
X93780941Y-133609130D01*
X93735317Y-115980820D02*
X93414074Y-115866700D01*
X93780941Y-133609130D02*
X93838898Y-133479227D01*
X93838898Y-133479227D02*
X93898580Y-133349323D01*
X93898580Y-133349323D02*
X93961794Y-133214165D01*
X93961794Y-133214165D02*
X94026744Y-133070189D01*
X94026744Y-133070189D02*
X94086419Y-132936797D01*
X94049549Y-116110726D02*
X93735317Y-115980820D01*
X94065359Y-129894579D02*
X93291206Y-129118684D01*
X94086419Y-132936797D02*
X94128555Y-132841998D01*
X94128555Y-132841998D02*
X94165418Y-132750718D01*
X94165418Y-132750718D02*
X94214563Y-132633084D01*
X94198746Y-121944106D02*
G75*
G02*
X93728293Y-122902592I-6446446J2569406D01*
G01*
X94214563Y-132633084D02*
X94267248Y-132511967D01*
X94267248Y-132511967D02*
X94312883Y-132403138D01*
X94312883Y-132403138D02*
X94509480Y-131936184D01*
X94316395Y-116237104D02*
X94049549Y-116110726D01*
X94316395Y-116237104D02*
G75*
G02*
X94446277Y-116324907I-270295J-539796D01*
G01*
X94446283Y-116324901D02*
G75*
G02*
X94527067Y-116444232I-187583J-213999D01*
G01*
X94509480Y-131936184D02*
X94725398Y-131409544D01*
X94553382Y-120827635D02*
G75*
G02*
X94198751Y-121944108I-7805482J1864735D01*
G01*
X94618322Y-116737423D02*
X94527043Y-116444241D01*
X94700812Y-117092031D02*
X94618322Y-116737423D01*
X94725398Y-131409544D02*
X94941333Y-130874138D01*
X94758759Y-117460656D02*
X94700812Y-117092031D01*
X94758759Y-119633915D02*
G75*
G02*
X94553385Y-120827636I-9339659J992315D01*
G01*
X94758759Y-119633915D02*
X94793885Y-119131861D01*
X94793885Y-119131861D02*
X94806161Y-118519225D01*
X94795606Y-117918838D02*
X94758759Y-117460656D01*
X94806161Y-118519225D02*
X94795606Y-117918838D01*
X94922027Y-130761783D02*
X94065359Y-129894579D01*
X94922027Y-130761783D02*
G75*
G02*
X94950126Y-130828477I-69427J-68517D01*
G01*
X94950123Y-130828477D02*
G75*
G02*
X94941350Y-130874145I-123123J-23D01*
G01*
D11*
X109949849Y-80942689D02*
X121502280Y-80942689D01*
X110197244Y-80561628D02*
X109949849Y-80942689D01*
X110204197Y-80801485D02*
G75*
G02*
X110212771Y-80772626I52903J-15D01*
G01*
X110209576Y-80806839D02*
G75*
G02*
X110204162Y-80801486I24J5439D01*
G01*
X110212763Y-80772621D02*
X112694761Y-76957797D01*
X110372937Y-80291128D02*
X110197244Y-80561628D01*
X111064072Y-79227614D02*
X110372937Y-80291128D01*
X111880097Y-77972009D02*
X111064072Y-79227614D01*
X112694761Y-76957797D02*
X115160814Y-73167619D01*
X112800751Y-76555449D02*
X111880097Y-77972009D01*
X113549447Y-80810660D02*
X110209576Y-80806839D01*
X115156909Y-72930274D02*
X112800751Y-76555449D01*
X115160814Y-73167619D02*
G75*
G02*
X115217096Y-73096743I403186J-262381D01*
G01*
X115217088Y-73096735D02*
G75*
G02*
X115269753Y-73073810I53812J-51665D01*
G01*
X115269753Y-73073797D02*
X115822238Y-73066351D01*
X115822238Y-73066351D02*
X116623727Y-73062114D01*
X116623727Y-73062114D02*
X118077587Y-73064672D01*
X117225506Y-80813538D02*
X113549447Y-80810660D01*
X118077587Y-73064672D02*
X120899469Y-73072867D01*
X118147288Y-72929460D02*
X115156909Y-72930274D01*
X119573279Y-75156530D02*
X125377469Y-75164625D01*
X119821115Y-75029062D02*
G75*
G02*
X119824411Y-75017635I21585J-38D01*
G01*
X119824397Y-75017626D02*
X120005404Y-74728950D01*
X119827371Y-75035349D02*
G75*
G02*
X119821151Y-75029062I29J6249D01*
G01*
X120005404Y-74728950D02*
X120207949Y-74407608D01*
X120047536Y-72930076D02*
X118147288Y-72929460D01*
X120207949Y-74407608D02*
X120448499Y-74028893D01*
X120236364Y-74114698D02*
X119573279Y-75156530D01*
X120448499Y-74028893D02*
X120691195Y-73647260D01*
X120691195Y-73647260D02*
X120900685Y-73316361D01*
X120714342Y-72936807D02*
X120047536Y-72930076D01*
X120899469Y-73072867D02*
X120236364Y-74114698D01*
X120900685Y-73316361D02*
X121081775Y-73029318D01*
X121081775Y-73029318D02*
X121106781Y-72986305D01*
X121085015Y-72948154D02*
X120714342Y-72936807D01*
X121085015Y-72948154D02*
G75*
G02*
X121106814Y-72986323I-1115J-25946D01*
G01*
X121481523Y-75039831D02*
X119827371Y-75035349D01*
X121502280Y-80942689D02*
X133054693Y-80942689D01*
X121592258Y-80814466D02*
X117225506Y-80813538D01*
X123306136Y-75043238D02*
X121481523Y-75039831D01*
X125026752Y-57717885D02*
X133607943Y-57733912D01*
X125270689Y-57592403D02*
G75*
G02*
X125276178Y-57573844I34111J3D01*
G01*
X125276146Y-57597878D02*
G75*
G02*
X125270622Y-57592403I-46J5478D01*
G01*
X125276183Y-57573847D02*
X127010222Y-54909731D01*
X125377469Y-75164625D02*
X127604706Y-75165999D01*
X125473602Y-75044335D02*
X123306136Y-75043238D01*
X126919839Y-54809625D02*
X125026752Y-57717885D01*
X127010222Y-54909731D02*
X128676883Y-52349645D01*
X127604706Y-75165999D02*
X129483609Y-75163265D01*
X127768411Y-57601772D02*
X125276146Y-57597878D01*
X128676883Y-52349645D02*
X128835225Y-52116061D01*
X128812900Y-51901355D02*
X126919839Y-54809625D01*
X128835225Y-52116061D02*
X128897396Y-52027892D01*
X128897396Y-52027892D02*
X137404773Y-52027892D01*
X129001886Y-69386395D02*
X131876733Y-69402415D01*
X129245660Y-69260624D02*
G75*
G02*
X129248587Y-69250630I18440J24D01*
G01*
X129248599Y-69250638D02*
X129785048Y-68419499D01*
X129251083Y-69266098D02*
G75*
G02*
X129245702Y-69260625I17J5398D01*
G01*
X129483609Y-75163265D02*
X131181805Y-75158502D01*
X129785048Y-68419499D02*
X130377807Y-67502488D01*
X130089078Y-69272379D02*
X129251083Y-69266098D01*
X130377807Y-67502488D02*
X131081890Y-66415799D01*
X130513154Y-57604716D02*
X127768411Y-57601772D01*
X130926944Y-66413947D02*
X129001886Y-69386395D01*
X131015920Y-69277948D02*
X130089078Y-69272379D01*
X131081890Y-66415799D02*
X132918109Y-63584201D01*
X131126094Y-75044335D02*
X125473602Y-75044335D01*
X131205206Y-75148606D02*
G75*
G02*
X131181805Y-75158480I-23406J22806D01*
G01*
X131222240Y-75127271D02*
G75*
G02*
X131205209Y-75148609I-115440J74671D01*
G01*
X131222240Y-75127271D02*
X131774002Y-74274646D01*
X131774002Y-74274646D02*
X132386026Y-73327552D01*
X131876733Y-69402415D02*
X134751568Y-69418453D01*
X132116886Y-69282042D02*
X131015920Y-69277948D01*
X132386026Y-73327552D02*
X133108428Y-72207344D01*
X132851991Y-63441489D02*
X130926944Y-66413947D01*
X132918109Y-63584201D02*
X135781011Y-63568165D01*
X132938829Y-72231396D02*
X131126094Y-75044335D01*
X132980294Y-80814466D02*
X121592258Y-80814466D01*
X133054693Y-80942689D02*
X140721058Y-69282212D01*
X133108428Y-72207344D02*
X134988124Y-69290221D01*
X133607943Y-57733912D02*
X142189132Y-57749951D01*
X133773610Y-57605655D02*
X130513154Y-57604716D01*
X134751568Y-69418453D02*
X132938829Y-72231396D01*
X134988124Y-69290221D02*
X132116886Y-69282042D01*
X135707625Y-63440713D02*
X132851991Y-63441489D01*
X135781011Y-63568165D02*
X138643895Y-63552137D01*
X137404773Y-52027892D02*
X145912127Y-52027892D01*
X137479289Y-51900518D02*
X128812900Y-51901355D01*
X138563220Y-63439943D02*
X135707625Y-63440713D01*
X138643895Y-63552137D02*
X140309488Y-60939548D01*
X140160878Y-69892768D02*
X132980294Y-80814466D01*
X140309488Y-60939548D02*
X140961372Y-59917088D01*
X140376185Y-60594942D02*
X138563220Y-63439943D01*
X140721058Y-69282212D02*
X148387425Y-57621716D01*
X140961372Y-59917088D02*
X141541512Y-59007324D01*
X141541512Y-59007324D02*
X142031698Y-58238664D01*
X142031698Y-58238664D02*
X142164683Y-58030444D01*
X142164683Y-58030444D02*
X142354291Y-57733912D01*
X142189132Y-57749951D02*
X140376185Y-60594942D01*
X142276554Y-57605631D02*
X133773610Y-57605655D01*
X142354291Y-57733912D02*
X145255312Y-57733912D01*
X142452862Y-57591315D02*
G75*
G02*
X142455984Y-57580735I19438J15D01*
G01*
X142455987Y-57580737D02*
X142976842Y-56778109D01*
X142458627Y-57597117D02*
G75*
G02*
X142452783Y-57591315I-27J5817D01*
G01*
X142942394Y-65662168D02*
X140160878Y-69892768D01*
X142976842Y-56778109D02*
X143552682Y-55892213D01*
X143253235Y-56107023D02*
X142276554Y-57605631D01*
X143324504Y-57603651D02*
X142458627Y-57597117D01*
X143552682Y-55892213D02*
X144236654Y-54842653D01*
X143688417Y-55439345D02*
X143253235Y-56107023D01*
X144190104Y-54669630D02*
X143688417Y-55439345D01*
X144236654Y-54842653D02*
X144924958Y-53786901D01*
X144282325Y-57609397D02*
X143324504Y-57603651D01*
X144678947Y-53919657D02*
X144190104Y-54669630D01*
X144924958Y-53786901D02*
X145514852Y-52880732D01*
X145071031Y-53318156D02*
X144678947Y-53919657D01*
X145255312Y-57733912D02*
X148156349Y-57733912D01*
X145351841Y-61997616D02*
X142942394Y-65662168D01*
X145420141Y-57613539D02*
X144282325Y-57609397D01*
X145514852Y-52880732D02*
X146032672Y-52084421D01*
X145912127Y-52027892D02*
X145071031Y-53318156D01*
X146032672Y-52084421D02*
X146083078Y-52003835D01*
X146083078Y-52003835D02*
X146145672Y-51899669D01*
X146145672Y-51899669D02*
X137479289Y-51900518D01*
X147439432Y-58822744D02*
X145351841Y-61997616D01*
X147748903Y-58352491D02*
X147439432Y-58822744D01*
X148156349Y-57733912D02*
X147748903Y-58352491D01*
X148387425Y-57621716D02*
X145420141Y-57613539D01*
D12*
X70454819Y-117398094D02*
X69454819Y-117398094D01*
X69454819Y-117398094D02*
X69454819Y-117159999D01*
X69454819Y-117159999D02*
X69502438Y-117017142D01*
X69502438Y-117017142D02*
X69597676Y-116921904D01*
X69597676Y-116921904D02*
X69692914Y-116874285D01*
X69692914Y-116874285D02*
X69883390Y-116826666D01*
X69883390Y-116826666D02*
X70026247Y-116826666D01*
X70026247Y-116826666D02*
X70216723Y-116874285D01*
X70216723Y-116874285D02*
X70311961Y-116921904D01*
X70311961Y-116921904D02*
X70407200Y-117017142D01*
X70407200Y-117017142D02*
X70454819Y-117159999D01*
X70454819Y-117159999D02*
X70454819Y-117398094D01*
X69550057Y-116445713D02*
X69502438Y-116398094D01*
X69502438Y-116398094D02*
X69454819Y-116302856D01*
X69454819Y-116302856D02*
X69454819Y-116064761D01*
X69454819Y-116064761D02*
X69502438Y-115969523D01*
X69502438Y-115969523D02*
X69550057Y-115921904D01*
X69550057Y-115921904D02*
X69645295Y-115874285D01*
X69645295Y-115874285D02*
X69740533Y-115874285D01*
X69740533Y-115874285D02*
X69883390Y-115921904D01*
X69883390Y-115921904D02*
X70454819Y-116493332D01*
X70454819Y-116493332D02*
X70454819Y-115874285D01*
X98666667Y-130533200D02*
X98809524Y-130580819D01*
X98809524Y-130580819D02*
X99047619Y-130580819D01*
X99047619Y-130580819D02*
X99142857Y-130533200D01*
X99142857Y-130533200D02*
X99190476Y-130485580D01*
X99190476Y-130485580D02*
X99238095Y-130390342D01*
X99238095Y-130390342D02*
X99238095Y-130295104D01*
X99238095Y-130295104D02*
X99190476Y-130199866D01*
X99190476Y-130199866D02*
X99142857Y-130152247D01*
X99142857Y-130152247D02*
X99047619Y-130104628D01*
X99047619Y-130104628D02*
X98857143Y-130057009D01*
X98857143Y-130057009D02*
X98761905Y-130009390D01*
X98761905Y-130009390D02*
X98714286Y-129961771D01*
X98714286Y-129961771D02*
X98666667Y-129866533D01*
X98666667Y-129866533D02*
X98666667Y-129771295D01*
X98666667Y-129771295D02*
X98714286Y-129676057D01*
X98714286Y-129676057D02*
X98761905Y-129628438D01*
X98761905Y-129628438D02*
X98857143Y-129580819D01*
X98857143Y-129580819D02*
X99095238Y-129580819D01*
X99095238Y-129580819D02*
X99238095Y-129628438D01*
X99571429Y-129580819D02*
X99809524Y-130580819D01*
X99809524Y-130580819D02*
X100000000Y-129866533D01*
X100000000Y-129866533D02*
X100190476Y-130580819D01*
X100190476Y-130580819D02*
X100428572Y-129580819D01*
X101238095Y-129580819D02*
X101047619Y-129580819D01*
X101047619Y-129580819D02*
X100952381Y-129628438D01*
X100952381Y-129628438D02*
X100904762Y-129676057D01*
X100904762Y-129676057D02*
X100809524Y-129818914D01*
X100809524Y-129818914D02*
X100761905Y-130009390D01*
X100761905Y-130009390D02*
X100761905Y-130390342D01*
X100761905Y-130390342D02*
X100809524Y-130485580D01*
X100809524Y-130485580D02*
X100857143Y-130533200D01*
X100857143Y-130533200D02*
X100952381Y-130580819D01*
X100952381Y-130580819D02*
X101142857Y-130580819D01*
X101142857Y-130580819D02*
X101238095Y-130533200D01*
X101238095Y-130533200D02*
X101285714Y-130485580D01*
X101285714Y-130485580D02*
X101333333Y-130390342D01*
X101333333Y-130390342D02*
X101333333Y-130152247D01*
X101333333Y-130152247D02*
X101285714Y-130057009D01*
X101285714Y-130057009D02*
X101238095Y-130009390D01*
X101238095Y-130009390D02*
X101142857Y-129961771D01*
X101142857Y-129961771D02*
X100952381Y-129961771D01*
X100952381Y-129961771D02*
X100857143Y-130009390D01*
X100857143Y-130009390D02*
X100809524Y-130057009D01*
X100809524Y-130057009D02*
X100761905Y-130152247D01*
X144666666Y-143504819D02*
X144333333Y-143028628D01*
X144095238Y-143504819D02*
X144095238Y-142504819D01*
X144095238Y-142504819D02*
X144476190Y-142504819D01*
X144476190Y-142504819D02*
X144571428Y-142552438D01*
X144571428Y-142552438D02*
X144619047Y-142600057D01*
X144619047Y-142600057D02*
X144666666Y-142695295D01*
X144666666Y-142695295D02*
X144666666Y-142838152D01*
X144666666Y-142838152D02*
X144619047Y-142933390D01*
X144619047Y-142933390D02*
X144571428Y-142981009D01*
X144571428Y-142981009D02*
X144476190Y-143028628D01*
X144476190Y-143028628D02*
X144095238Y-143028628D01*
X145095238Y-142981009D02*
X145428571Y-142981009D01*
X145571428Y-143504819D02*
X145095238Y-143504819D01*
X145095238Y-143504819D02*
X145095238Y-142504819D01*
X145095238Y-142504819D02*
X145571428Y-142504819D01*
X146333333Y-142981009D02*
X146000000Y-142981009D01*
X146000000Y-143504819D02*
X146000000Y-142504819D01*
X146000000Y-142504819D02*
X146476190Y-142504819D01*
X147000000Y-142504819D02*
X147000000Y-142742914D01*
X146761905Y-142647676D02*
X147000000Y-142742914D01*
X147000000Y-142742914D02*
X147238095Y-142647676D01*
X146857143Y-142933390D02*
X147000000Y-142742914D01*
X147000000Y-142742914D02*
X147142857Y-142933390D01*
X147761905Y-142504819D02*
X147761905Y-142742914D01*
X147523810Y-142647676D02*
X147761905Y-142742914D01*
X147761905Y-142742914D02*
X148000000Y-142647676D01*
X147619048Y-142933390D02*
X147761905Y-142742914D01*
X147761905Y-142742914D02*
X147904762Y-142933390D01*
X70454819Y-96898094D02*
X69454819Y-96898094D01*
X69454819Y-96898094D02*
X69454819Y-96659999D01*
X69454819Y-96659999D02*
X69502438Y-96517142D01*
X69502438Y-96517142D02*
X69597676Y-96421904D01*
X69597676Y-96421904D02*
X69692914Y-96374285D01*
X69692914Y-96374285D02*
X69883390Y-96326666D01*
X69883390Y-96326666D02*
X70026247Y-96326666D01*
X70026247Y-96326666D02*
X70216723Y-96374285D01*
X70216723Y-96374285D02*
X70311961Y-96421904D01*
X70311961Y-96421904D02*
X70407200Y-96517142D01*
X70407200Y-96517142D02*
X70454819Y-96659999D01*
X70454819Y-96659999D02*
X70454819Y-96898094D01*
X70454819Y-95374285D02*
X70454819Y-95945713D01*
X70454819Y-95659999D02*
X69454819Y-95659999D01*
X69454819Y-95659999D02*
X69597676Y-95755237D01*
X69597676Y-95755237D02*
X69692914Y-95850475D01*
X69692914Y-95850475D02*
X69740533Y-95945713D01*
X98666667Y-88033200D02*
X98809524Y-88080819D01*
X98809524Y-88080819D02*
X99047619Y-88080819D01*
X99047619Y-88080819D02*
X99142857Y-88033200D01*
X99142857Y-88033200D02*
X99190476Y-87985580D01*
X99190476Y-87985580D02*
X99238095Y-87890342D01*
X99238095Y-87890342D02*
X99238095Y-87795104D01*
X99238095Y-87795104D02*
X99190476Y-87699866D01*
X99190476Y-87699866D02*
X99142857Y-87652247D01*
X99142857Y-87652247D02*
X99047619Y-87604628D01*
X99047619Y-87604628D02*
X98857143Y-87557009D01*
X98857143Y-87557009D02*
X98761905Y-87509390D01*
X98761905Y-87509390D02*
X98714286Y-87461771D01*
X98714286Y-87461771D02*
X98666667Y-87366533D01*
X98666667Y-87366533D02*
X98666667Y-87271295D01*
X98666667Y-87271295D02*
X98714286Y-87176057D01*
X98714286Y-87176057D02*
X98761905Y-87128438D01*
X98761905Y-87128438D02*
X98857143Y-87080819D01*
X98857143Y-87080819D02*
X99095238Y-87080819D01*
X99095238Y-87080819D02*
X99238095Y-87128438D01*
X99571429Y-87080819D02*
X99809524Y-88080819D01*
X99809524Y-88080819D02*
X100000000Y-87366533D01*
X100000000Y-87366533D02*
X100190476Y-88080819D01*
X100190476Y-88080819D02*
X100428572Y-87080819D01*
X101238095Y-87414152D02*
X101238095Y-88080819D01*
X101000000Y-87033200D02*
X100761905Y-87747485D01*
X100761905Y-87747485D02*
X101380952Y-87747485D01*
X119666667Y-109033200D02*
X119809524Y-109080819D01*
X119809524Y-109080819D02*
X120047619Y-109080819D01*
X120047619Y-109080819D02*
X120142857Y-109033200D01*
X120142857Y-109033200D02*
X120190476Y-108985580D01*
X120190476Y-108985580D02*
X120238095Y-108890342D01*
X120238095Y-108890342D02*
X120238095Y-108795104D01*
X120238095Y-108795104D02*
X120190476Y-108699866D01*
X120190476Y-108699866D02*
X120142857Y-108652247D01*
X120142857Y-108652247D02*
X120047619Y-108604628D01*
X120047619Y-108604628D02*
X119857143Y-108557009D01*
X119857143Y-108557009D02*
X119761905Y-108509390D01*
X119761905Y-108509390D02*
X119714286Y-108461771D01*
X119714286Y-108461771D02*
X119666667Y-108366533D01*
X119666667Y-108366533D02*
X119666667Y-108271295D01*
X119666667Y-108271295D02*
X119714286Y-108176057D01*
X119714286Y-108176057D02*
X119761905Y-108128438D01*
X119761905Y-108128438D02*
X119857143Y-108080819D01*
X119857143Y-108080819D02*
X120095238Y-108080819D01*
X120095238Y-108080819D02*
X120238095Y-108128438D01*
X120571429Y-108080819D02*
X120809524Y-109080819D01*
X120809524Y-109080819D02*
X121000000Y-108366533D01*
X121000000Y-108366533D02*
X121190476Y-109080819D01*
X121190476Y-109080819D02*
X121428572Y-108080819D01*
X121952381Y-108509390D02*
X121857143Y-108461771D01*
X121857143Y-108461771D02*
X121809524Y-108414152D01*
X121809524Y-108414152D02*
X121761905Y-108318914D01*
X121761905Y-108318914D02*
X121761905Y-108271295D01*
X121761905Y-108271295D02*
X121809524Y-108176057D01*
X121809524Y-108176057D02*
X121857143Y-108128438D01*
X121857143Y-108128438D02*
X121952381Y-108080819D01*
X121952381Y-108080819D02*
X122142857Y-108080819D01*
X122142857Y-108080819D02*
X122238095Y-108128438D01*
X122238095Y-108128438D02*
X122285714Y-108176057D01*
X122285714Y-108176057D02*
X122333333Y-108271295D01*
X122333333Y-108271295D02*
X122333333Y-108318914D01*
X122333333Y-108318914D02*
X122285714Y-108414152D01*
X122285714Y-108414152D02*
X122238095Y-108461771D01*
X122238095Y-108461771D02*
X122142857Y-108509390D01*
X122142857Y-108509390D02*
X121952381Y-108509390D01*
X121952381Y-108509390D02*
X121857143Y-108557009D01*
X121857143Y-108557009D02*
X121809524Y-108604628D01*
X121809524Y-108604628D02*
X121761905Y-108699866D01*
X121761905Y-108699866D02*
X121761905Y-108890342D01*
X121761905Y-108890342D02*
X121809524Y-108985580D01*
X121809524Y-108985580D02*
X121857143Y-109033200D01*
X121857143Y-109033200D02*
X121952381Y-109080819D01*
X121952381Y-109080819D02*
X122142857Y-109080819D01*
X122142857Y-109080819D02*
X122238095Y-109033200D01*
X122238095Y-109033200D02*
X122285714Y-108985580D01*
X122285714Y-108985580D02*
X122333333Y-108890342D01*
X122333333Y-108890342D02*
X122333333Y-108699866D01*
X122333333Y-108699866D02*
X122285714Y-108604628D01*
X122285714Y-108604628D02*
X122238095Y-108557009D01*
X122238095Y-108557009D02*
X122142857Y-108509390D01*
X52666666Y-143504819D02*
X52333333Y-143028628D01*
X52095238Y-143504819D02*
X52095238Y-142504819D01*
X52095238Y-142504819D02*
X52476190Y-142504819D01*
X52476190Y-142504819D02*
X52571428Y-142552438D01*
X52571428Y-142552438D02*
X52619047Y-142600057D01*
X52619047Y-142600057D02*
X52666666Y-142695295D01*
X52666666Y-142695295D02*
X52666666Y-142838152D01*
X52666666Y-142838152D02*
X52619047Y-142933390D01*
X52619047Y-142933390D02*
X52571428Y-142981009D01*
X52571428Y-142981009D02*
X52476190Y-143028628D01*
X52476190Y-143028628D02*
X52095238Y-143028628D01*
X53095238Y-142981009D02*
X53428571Y-142981009D01*
X53571428Y-143504819D02*
X53095238Y-143504819D01*
X53095238Y-143504819D02*
X53095238Y-142504819D01*
X53095238Y-142504819D02*
X53571428Y-142504819D01*
X54333333Y-142981009D02*
X54000000Y-142981009D01*
X54000000Y-143504819D02*
X54000000Y-142504819D01*
X54000000Y-142504819D02*
X54476190Y-142504819D01*
X55000000Y-142504819D02*
X55000000Y-142742914D01*
X54761905Y-142647676D02*
X55000000Y-142742914D01*
X55000000Y-142742914D02*
X55238095Y-142647676D01*
X54857143Y-142933390D02*
X55000000Y-142742914D01*
X55000000Y-142742914D02*
X55142857Y-142933390D01*
X55761905Y-142504819D02*
X55761905Y-142742914D01*
X55523810Y-142647676D02*
X55761905Y-142742914D01*
X55761905Y-142742914D02*
X56000000Y-142647676D01*
X55619048Y-142933390D02*
X55761905Y-142742914D01*
X55761905Y-142742914D02*
X55904762Y-142933390D01*
X119666667Y-130533200D02*
X119809524Y-130580819D01*
X119809524Y-130580819D02*
X120047619Y-130580819D01*
X120047619Y-130580819D02*
X120142857Y-130533200D01*
X120142857Y-130533200D02*
X120190476Y-130485580D01*
X120190476Y-130485580D02*
X120238095Y-130390342D01*
X120238095Y-130390342D02*
X120238095Y-130295104D01*
X120238095Y-130295104D02*
X120190476Y-130199866D01*
X120190476Y-130199866D02*
X120142857Y-130152247D01*
X120142857Y-130152247D02*
X120047619Y-130104628D01*
X120047619Y-130104628D02*
X119857143Y-130057009D01*
X119857143Y-130057009D02*
X119761905Y-130009390D01*
X119761905Y-130009390D02*
X119714286Y-129961771D01*
X119714286Y-129961771D02*
X119666667Y-129866533D01*
X119666667Y-129866533D02*
X119666667Y-129771295D01*
X119666667Y-129771295D02*
X119714286Y-129676057D01*
X119714286Y-129676057D02*
X119761905Y-129628438D01*
X119761905Y-129628438D02*
X119857143Y-129580819D01*
X119857143Y-129580819D02*
X120095238Y-129580819D01*
X120095238Y-129580819D02*
X120238095Y-129628438D01*
X120571429Y-129580819D02*
X120809524Y-130580819D01*
X120809524Y-130580819D02*
X121000000Y-129866533D01*
X121000000Y-129866533D02*
X121190476Y-130580819D01*
X121190476Y-130580819D02*
X121428572Y-129580819D01*
X121857143Y-130580819D02*
X122047619Y-130580819D01*
X122047619Y-130580819D02*
X122142857Y-130533200D01*
X122142857Y-130533200D02*
X122190476Y-130485580D01*
X122190476Y-130485580D02*
X122285714Y-130342723D01*
X122285714Y-130342723D02*
X122333333Y-130152247D01*
X122333333Y-130152247D02*
X122333333Y-129771295D01*
X122333333Y-129771295D02*
X122285714Y-129676057D01*
X122285714Y-129676057D02*
X122238095Y-129628438D01*
X122238095Y-129628438D02*
X122142857Y-129580819D01*
X122142857Y-129580819D02*
X121952381Y-129580819D01*
X121952381Y-129580819D02*
X121857143Y-129628438D01*
X121857143Y-129628438D02*
X121809524Y-129676057D01*
X121809524Y-129676057D02*
X121761905Y-129771295D01*
X121761905Y-129771295D02*
X121761905Y-130009390D01*
X121761905Y-130009390D02*
X121809524Y-130104628D01*
X121809524Y-130104628D02*
X121857143Y-130152247D01*
X121857143Y-130152247D02*
X121952381Y-130199866D01*
X121952381Y-130199866D02*
X122142857Y-130199866D01*
X122142857Y-130199866D02*
X122238095Y-130152247D01*
X122238095Y-130152247D02*
X122285714Y-130104628D01*
X122285714Y-130104628D02*
X122333333Y-130009390D01*
X77666667Y-88033200D02*
X77809524Y-88080819D01*
X77809524Y-88080819D02*
X78047619Y-88080819D01*
X78047619Y-88080819D02*
X78142857Y-88033200D01*
X78142857Y-88033200D02*
X78190476Y-87985580D01*
X78190476Y-87985580D02*
X78238095Y-87890342D01*
X78238095Y-87890342D02*
X78238095Y-87795104D01*
X78238095Y-87795104D02*
X78190476Y-87699866D01*
X78190476Y-87699866D02*
X78142857Y-87652247D01*
X78142857Y-87652247D02*
X78047619Y-87604628D01*
X78047619Y-87604628D02*
X77857143Y-87557009D01*
X77857143Y-87557009D02*
X77761905Y-87509390D01*
X77761905Y-87509390D02*
X77714286Y-87461771D01*
X77714286Y-87461771D02*
X77666667Y-87366533D01*
X77666667Y-87366533D02*
X77666667Y-87271295D01*
X77666667Y-87271295D02*
X77714286Y-87176057D01*
X77714286Y-87176057D02*
X77761905Y-87128438D01*
X77761905Y-87128438D02*
X77857143Y-87080819D01*
X77857143Y-87080819D02*
X78095238Y-87080819D01*
X78095238Y-87080819D02*
X78238095Y-87128438D01*
X78571429Y-87080819D02*
X78809524Y-88080819D01*
X78809524Y-88080819D02*
X79000000Y-87366533D01*
X79000000Y-87366533D02*
X79190476Y-88080819D01*
X79190476Y-88080819D02*
X79428572Y-87080819D01*
X80333333Y-88080819D02*
X79761905Y-88080819D01*
X80047619Y-88080819D02*
X80047619Y-87080819D01*
X80047619Y-87080819D02*
X79952381Y-87223676D01*
X79952381Y-87223676D02*
X79857143Y-87318914D01*
X79857143Y-87318914D02*
X79761905Y-87366533D01*
X112954819Y-138088094D02*
X111954819Y-138088094D01*
X111954819Y-138088094D02*
X111954819Y-137849999D01*
X111954819Y-137849999D02*
X112002438Y-137707142D01*
X112002438Y-137707142D02*
X112097676Y-137611904D01*
X112097676Y-137611904D02*
X112192914Y-137564285D01*
X112192914Y-137564285D02*
X112383390Y-137516666D01*
X112383390Y-137516666D02*
X112526247Y-137516666D01*
X112526247Y-137516666D02*
X112716723Y-137564285D01*
X112716723Y-137564285D02*
X112811961Y-137611904D01*
X112811961Y-137611904D02*
X112907200Y-137707142D01*
X112907200Y-137707142D02*
X112954819Y-137849999D01*
X112954819Y-137849999D02*
X112954819Y-138088094D01*
X112954819Y-137040475D02*
X112954819Y-136849999D01*
X112954819Y-136849999D02*
X112907200Y-136754761D01*
X112907200Y-136754761D02*
X112859580Y-136707142D01*
X112859580Y-136707142D02*
X112716723Y-136611904D01*
X112716723Y-136611904D02*
X112526247Y-136564285D01*
X112526247Y-136564285D02*
X112145295Y-136564285D01*
X112145295Y-136564285D02*
X112050057Y-136611904D01*
X112050057Y-136611904D02*
X112002438Y-136659523D01*
X112002438Y-136659523D02*
X111954819Y-136754761D01*
X111954819Y-136754761D02*
X111954819Y-136945237D01*
X111954819Y-136945237D02*
X112002438Y-137040475D01*
X112002438Y-137040475D02*
X112050057Y-137088094D01*
X112050057Y-137088094D02*
X112145295Y-137135713D01*
X112145295Y-137135713D02*
X112383390Y-137135713D01*
X112383390Y-137135713D02*
X112478628Y-137088094D01*
X112478628Y-137088094D02*
X112526247Y-137040475D01*
X112526247Y-137040475D02*
X112573866Y-136945237D01*
X112573866Y-136945237D02*
X112573866Y-136754761D01*
X112573866Y-136754761D02*
X112526247Y-136659523D01*
X112526247Y-136659523D02*
X112478628Y-136611904D01*
X112478628Y-136611904D02*
X112383390Y-136564285D01*
X77666667Y-130613200D02*
X77809524Y-130660819D01*
X77809524Y-130660819D02*
X78047619Y-130660819D01*
X78047619Y-130660819D02*
X78142857Y-130613200D01*
X78142857Y-130613200D02*
X78190476Y-130565580D01*
X78190476Y-130565580D02*
X78238095Y-130470342D01*
X78238095Y-130470342D02*
X78238095Y-130375104D01*
X78238095Y-130375104D02*
X78190476Y-130279866D01*
X78190476Y-130279866D02*
X78142857Y-130232247D01*
X78142857Y-130232247D02*
X78047619Y-130184628D01*
X78047619Y-130184628D02*
X77857143Y-130137009D01*
X77857143Y-130137009D02*
X77761905Y-130089390D01*
X77761905Y-130089390D02*
X77714286Y-130041771D01*
X77714286Y-130041771D02*
X77666667Y-129946533D01*
X77666667Y-129946533D02*
X77666667Y-129851295D01*
X77666667Y-129851295D02*
X77714286Y-129756057D01*
X77714286Y-129756057D02*
X77761905Y-129708438D01*
X77761905Y-129708438D02*
X77857143Y-129660819D01*
X77857143Y-129660819D02*
X78095238Y-129660819D01*
X78095238Y-129660819D02*
X78238095Y-129708438D01*
X78571429Y-129660819D02*
X78809524Y-130660819D01*
X78809524Y-130660819D02*
X79000000Y-129946533D01*
X79000000Y-129946533D02*
X79190476Y-130660819D01*
X79190476Y-130660819D02*
X79428572Y-129660819D01*
X79714286Y-129660819D02*
X80333333Y-129660819D01*
X80333333Y-129660819D02*
X80000000Y-130041771D01*
X80000000Y-130041771D02*
X80142857Y-130041771D01*
X80142857Y-130041771D02*
X80238095Y-130089390D01*
X80238095Y-130089390D02*
X80285714Y-130137009D01*
X80285714Y-130137009D02*
X80333333Y-130232247D01*
X80333333Y-130232247D02*
X80333333Y-130470342D01*
X80333333Y-130470342D02*
X80285714Y-130565580D01*
X80285714Y-130565580D02*
X80238095Y-130613200D01*
X80238095Y-130613200D02*
X80142857Y-130660819D01*
X80142857Y-130660819D02*
X79857143Y-130660819D01*
X79857143Y-130660819D02*
X79761905Y-130613200D01*
X79761905Y-130613200D02*
X79714286Y-130565580D01*
X91454819Y-138588094D02*
X90454819Y-138588094D01*
X90454819Y-138588094D02*
X90454819Y-138349999D01*
X90454819Y-138349999D02*
X90502438Y-138207142D01*
X90502438Y-138207142D02*
X90597676Y-138111904D01*
X90597676Y-138111904D02*
X90692914Y-138064285D01*
X90692914Y-138064285D02*
X90883390Y-138016666D01*
X90883390Y-138016666D02*
X91026247Y-138016666D01*
X91026247Y-138016666D02*
X91216723Y-138064285D01*
X91216723Y-138064285D02*
X91311961Y-138111904D01*
X91311961Y-138111904D02*
X91407200Y-138207142D01*
X91407200Y-138207142D02*
X91454819Y-138349999D01*
X91454819Y-138349999D02*
X91454819Y-138588094D01*
X90454819Y-137159523D02*
X90454819Y-137349999D01*
X90454819Y-137349999D02*
X90502438Y-137445237D01*
X90502438Y-137445237D02*
X90550057Y-137492856D01*
X90550057Y-137492856D02*
X90692914Y-137588094D01*
X90692914Y-137588094D02*
X90883390Y-137635713D01*
X90883390Y-137635713D02*
X91264342Y-137635713D01*
X91264342Y-137635713D02*
X91359580Y-137588094D01*
X91359580Y-137588094D02*
X91407200Y-137540475D01*
X91407200Y-137540475D02*
X91454819Y-137445237D01*
X91454819Y-137445237D02*
X91454819Y-137254761D01*
X91454819Y-137254761D02*
X91407200Y-137159523D01*
X91407200Y-137159523D02*
X91359580Y-137111904D01*
X91359580Y-137111904D02*
X91264342Y-137064285D01*
X91264342Y-137064285D02*
X91026247Y-137064285D01*
X91026247Y-137064285D02*
X90931009Y-137111904D01*
X90931009Y-137111904D02*
X90883390Y-137159523D01*
X90883390Y-137159523D02*
X90835771Y-137254761D01*
X90835771Y-137254761D02*
X90835771Y-137445237D01*
X90835771Y-137445237D02*
X90883390Y-137540475D01*
X90883390Y-137540475D02*
X90931009Y-137588094D01*
X90931009Y-137588094D02*
X91026247Y-137635713D01*
X112954819Y-95888094D02*
X111954819Y-95888094D01*
X111954819Y-95888094D02*
X111954819Y-95649999D01*
X111954819Y-95649999D02*
X112002438Y-95507142D01*
X112002438Y-95507142D02*
X112097676Y-95411904D01*
X112097676Y-95411904D02*
X112192914Y-95364285D01*
X112192914Y-95364285D02*
X112383390Y-95316666D01*
X112383390Y-95316666D02*
X112526247Y-95316666D01*
X112526247Y-95316666D02*
X112716723Y-95364285D01*
X112716723Y-95364285D02*
X112811961Y-95411904D01*
X112811961Y-95411904D02*
X112907200Y-95507142D01*
X112907200Y-95507142D02*
X112954819Y-95649999D01*
X112954819Y-95649999D02*
X112954819Y-95888094D01*
X111954819Y-94983332D02*
X111954819Y-94316666D01*
X111954819Y-94316666D02*
X112954819Y-94745237D01*
X91454819Y-96898094D02*
X90454819Y-96898094D01*
X90454819Y-96898094D02*
X90454819Y-96659999D01*
X90454819Y-96659999D02*
X90502438Y-96517142D01*
X90502438Y-96517142D02*
X90597676Y-96421904D01*
X90597676Y-96421904D02*
X90692914Y-96374285D01*
X90692914Y-96374285D02*
X90883390Y-96326666D01*
X90883390Y-96326666D02*
X91026247Y-96326666D01*
X91026247Y-96326666D02*
X91216723Y-96374285D01*
X91216723Y-96374285D02*
X91311961Y-96421904D01*
X91311961Y-96421904D02*
X91407200Y-96517142D01*
X91407200Y-96517142D02*
X91454819Y-96659999D01*
X91454819Y-96659999D02*
X91454819Y-96898094D01*
X90788152Y-95469523D02*
X91454819Y-95469523D01*
X90407200Y-95707618D02*
X91121485Y-95945713D01*
X91121485Y-95945713D02*
X91121485Y-95326666D01*
X119666667Y-88033200D02*
X119809524Y-88080819D01*
X119809524Y-88080819D02*
X120047619Y-88080819D01*
X120047619Y-88080819D02*
X120142857Y-88033200D01*
X120142857Y-88033200D02*
X120190476Y-87985580D01*
X120190476Y-87985580D02*
X120238095Y-87890342D01*
X120238095Y-87890342D02*
X120238095Y-87795104D01*
X120238095Y-87795104D02*
X120190476Y-87699866D01*
X120190476Y-87699866D02*
X120142857Y-87652247D01*
X120142857Y-87652247D02*
X120047619Y-87604628D01*
X120047619Y-87604628D02*
X119857143Y-87557009D01*
X119857143Y-87557009D02*
X119761905Y-87509390D01*
X119761905Y-87509390D02*
X119714286Y-87461771D01*
X119714286Y-87461771D02*
X119666667Y-87366533D01*
X119666667Y-87366533D02*
X119666667Y-87271295D01*
X119666667Y-87271295D02*
X119714286Y-87176057D01*
X119714286Y-87176057D02*
X119761905Y-87128438D01*
X119761905Y-87128438D02*
X119857143Y-87080819D01*
X119857143Y-87080819D02*
X120095238Y-87080819D01*
X120095238Y-87080819D02*
X120238095Y-87128438D01*
X120571429Y-87080819D02*
X120809524Y-88080819D01*
X120809524Y-88080819D02*
X121000000Y-87366533D01*
X121000000Y-87366533D02*
X121190476Y-88080819D01*
X121190476Y-88080819D02*
X121428572Y-87080819D01*
X121714286Y-87080819D02*
X122380952Y-87080819D01*
X122380952Y-87080819D02*
X121952381Y-88080819D01*
X70454819Y-138748094D02*
X69454819Y-138748094D01*
X69454819Y-138748094D02*
X69454819Y-138509999D01*
X69454819Y-138509999D02*
X69502438Y-138367142D01*
X69502438Y-138367142D02*
X69597676Y-138271904D01*
X69597676Y-138271904D02*
X69692914Y-138224285D01*
X69692914Y-138224285D02*
X69883390Y-138176666D01*
X69883390Y-138176666D02*
X70026247Y-138176666D01*
X70026247Y-138176666D02*
X70216723Y-138224285D01*
X70216723Y-138224285D02*
X70311961Y-138271904D01*
X70311961Y-138271904D02*
X70407200Y-138367142D01*
X70407200Y-138367142D02*
X70454819Y-138509999D01*
X70454819Y-138509999D02*
X70454819Y-138748094D01*
X69454819Y-137843332D02*
X69454819Y-137224285D01*
X69454819Y-137224285D02*
X69835771Y-137557618D01*
X69835771Y-137557618D02*
X69835771Y-137414761D01*
X69835771Y-137414761D02*
X69883390Y-137319523D01*
X69883390Y-137319523D02*
X69931009Y-137271904D01*
X69931009Y-137271904D02*
X70026247Y-137224285D01*
X70026247Y-137224285D02*
X70264342Y-137224285D01*
X70264342Y-137224285D02*
X70359580Y-137271904D01*
X70359580Y-137271904D02*
X70407200Y-137319523D01*
X70407200Y-137319523D02*
X70454819Y-137414761D01*
X70454819Y-137414761D02*
X70454819Y-137700475D01*
X70454819Y-137700475D02*
X70407200Y-137795713D01*
X70407200Y-137795713D02*
X70359580Y-137843332D01*
D13*
X60777309Y-77196520D02*
X60777309Y-76682473D01*
X60777309Y-76682473D02*
X60747071Y-76621997D01*
X60747071Y-76621997D02*
X60716833Y-76591759D01*
X60716833Y-76591759D02*
X60656357Y-76561520D01*
X60656357Y-76561520D02*
X60535404Y-76561520D01*
X60535404Y-76561520D02*
X60474928Y-76591759D01*
X60474928Y-76591759D02*
X60444690Y-76621997D01*
X60444690Y-76621997D02*
X60414452Y-76682473D01*
X60414452Y-76682473D02*
X60414452Y-77196520D01*
X59779452Y-76561520D02*
X60142309Y-76561520D01*
X59960881Y-76561520D02*
X59960881Y-77196520D01*
X59960881Y-77196520D02*
X60021357Y-77105806D01*
X60021357Y-77105806D02*
X60081833Y-77045330D01*
X60081833Y-77045330D02*
X60142309Y-77015092D01*
D12*
X77666667Y-109113200D02*
X77809524Y-109160819D01*
X77809524Y-109160819D02*
X78047619Y-109160819D01*
X78047619Y-109160819D02*
X78142857Y-109113200D01*
X78142857Y-109113200D02*
X78190476Y-109065580D01*
X78190476Y-109065580D02*
X78238095Y-108970342D01*
X78238095Y-108970342D02*
X78238095Y-108875104D01*
X78238095Y-108875104D02*
X78190476Y-108779866D01*
X78190476Y-108779866D02*
X78142857Y-108732247D01*
X78142857Y-108732247D02*
X78047619Y-108684628D01*
X78047619Y-108684628D02*
X77857143Y-108637009D01*
X77857143Y-108637009D02*
X77761905Y-108589390D01*
X77761905Y-108589390D02*
X77714286Y-108541771D01*
X77714286Y-108541771D02*
X77666667Y-108446533D01*
X77666667Y-108446533D02*
X77666667Y-108351295D01*
X77666667Y-108351295D02*
X77714286Y-108256057D01*
X77714286Y-108256057D02*
X77761905Y-108208438D01*
X77761905Y-108208438D02*
X77857143Y-108160819D01*
X77857143Y-108160819D02*
X78095238Y-108160819D01*
X78095238Y-108160819D02*
X78238095Y-108208438D01*
X78571429Y-108160819D02*
X78809524Y-109160819D01*
X78809524Y-109160819D02*
X79000000Y-108446533D01*
X79000000Y-108446533D02*
X79190476Y-109160819D01*
X79190476Y-109160819D02*
X79428572Y-108160819D01*
X79761905Y-108256057D02*
X79809524Y-108208438D01*
X79809524Y-108208438D02*
X79904762Y-108160819D01*
X79904762Y-108160819D02*
X80142857Y-108160819D01*
X80142857Y-108160819D02*
X80238095Y-108208438D01*
X80238095Y-108208438D02*
X80285714Y-108256057D01*
X80285714Y-108256057D02*
X80333333Y-108351295D01*
X80333333Y-108351295D02*
X80333333Y-108446533D01*
X80333333Y-108446533D02*
X80285714Y-108589390D01*
X80285714Y-108589390D02*
X79714286Y-109160819D01*
X79714286Y-109160819D02*
X80333333Y-109160819D01*
X144666666Y-51504819D02*
X144333333Y-51028628D01*
X144095238Y-51504819D02*
X144095238Y-50504819D01*
X144095238Y-50504819D02*
X144476190Y-50504819D01*
X144476190Y-50504819D02*
X144571428Y-50552438D01*
X144571428Y-50552438D02*
X144619047Y-50600057D01*
X144619047Y-50600057D02*
X144666666Y-50695295D01*
X144666666Y-50695295D02*
X144666666Y-50838152D01*
X144666666Y-50838152D02*
X144619047Y-50933390D01*
X144619047Y-50933390D02*
X144571428Y-50981009D01*
X144571428Y-50981009D02*
X144476190Y-51028628D01*
X144476190Y-51028628D02*
X144095238Y-51028628D01*
X145095238Y-50981009D02*
X145428571Y-50981009D01*
X145571428Y-51504819D02*
X145095238Y-51504819D01*
X145095238Y-51504819D02*
X145095238Y-50504819D01*
X145095238Y-50504819D02*
X145571428Y-50504819D01*
X146333333Y-50981009D02*
X146000000Y-50981009D01*
X146000000Y-51504819D02*
X146000000Y-50504819D01*
X146000000Y-50504819D02*
X146476190Y-50504819D01*
X147000000Y-50504819D02*
X147000000Y-50742914D01*
X146761905Y-50647676D02*
X147000000Y-50742914D01*
X147000000Y-50742914D02*
X147238095Y-50647676D01*
X146857143Y-50933390D02*
X147000000Y-50742914D01*
X147000000Y-50742914D02*
X147142857Y-50933390D01*
X147761905Y-50504819D02*
X147761905Y-50742914D01*
X147523810Y-50647676D02*
X147761905Y-50742914D01*
X147761905Y-50742914D02*
X148000000Y-50647676D01*
X147619048Y-50933390D02*
X147761905Y-50742914D01*
X147761905Y-50742914D02*
X147904762Y-50933390D01*
X52666666Y-51504819D02*
X52333333Y-51028628D01*
X52095238Y-51504819D02*
X52095238Y-50504819D01*
X52095238Y-50504819D02*
X52476190Y-50504819D01*
X52476190Y-50504819D02*
X52571428Y-50552438D01*
X52571428Y-50552438D02*
X52619047Y-50600057D01*
X52619047Y-50600057D02*
X52666666Y-50695295D01*
X52666666Y-50695295D02*
X52666666Y-50838152D01*
X52666666Y-50838152D02*
X52619047Y-50933390D01*
X52619047Y-50933390D02*
X52571428Y-50981009D01*
X52571428Y-50981009D02*
X52476190Y-51028628D01*
X52476190Y-51028628D02*
X52095238Y-51028628D01*
X53095238Y-50981009D02*
X53428571Y-50981009D01*
X53571428Y-51504819D02*
X53095238Y-51504819D01*
X53095238Y-51504819D02*
X53095238Y-50504819D01*
X53095238Y-50504819D02*
X53571428Y-50504819D01*
X54333333Y-50981009D02*
X54000000Y-50981009D01*
X54000000Y-51504819D02*
X54000000Y-50504819D01*
X54000000Y-50504819D02*
X54476190Y-50504819D01*
X55000000Y-50504819D02*
X55000000Y-50742914D01*
X54761905Y-50647676D02*
X55000000Y-50742914D01*
X55000000Y-50742914D02*
X55238095Y-50647676D01*
X54857143Y-50933390D02*
X55000000Y-50742914D01*
X55000000Y-50742914D02*
X55142857Y-50933390D01*
X55761905Y-50504819D02*
X55761905Y-50742914D01*
X55523810Y-50647676D02*
X55761905Y-50742914D01*
X55761905Y-50742914D02*
X56000000Y-50647676D01*
X55619048Y-50933390D02*
X55761905Y-50742914D01*
X55761905Y-50742914D02*
X55904762Y-50933390D01*
X91454819Y-117588094D02*
X90454819Y-117588094D01*
X90454819Y-117588094D02*
X90454819Y-117349999D01*
X90454819Y-117349999D02*
X90502438Y-117207142D01*
X90502438Y-117207142D02*
X90597676Y-117111904D01*
X90597676Y-117111904D02*
X90692914Y-117064285D01*
X90692914Y-117064285D02*
X90883390Y-117016666D01*
X90883390Y-117016666D02*
X91026247Y-117016666D01*
X91026247Y-117016666D02*
X91216723Y-117064285D01*
X91216723Y-117064285D02*
X91311961Y-117111904D01*
X91311961Y-117111904D02*
X91407200Y-117207142D01*
X91407200Y-117207142D02*
X91454819Y-117349999D01*
X91454819Y-117349999D02*
X91454819Y-117588094D01*
X90454819Y-116111904D02*
X90454819Y-116588094D01*
X90454819Y-116588094D02*
X90931009Y-116635713D01*
X90931009Y-116635713D02*
X90883390Y-116588094D01*
X90883390Y-116588094D02*
X90835771Y-116492856D01*
X90835771Y-116492856D02*
X90835771Y-116254761D01*
X90835771Y-116254761D02*
X90883390Y-116159523D01*
X90883390Y-116159523D02*
X90931009Y-116111904D01*
X90931009Y-116111904D02*
X91026247Y-116064285D01*
X91026247Y-116064285D02*
X91264342Y-116064285D01*
X91264342Y-116064285D02*
X91359580Y-116111904D01*
X91359580Y-116111904D02*
X91407200Y-116159523D01*
X91407200Y-116159523D02*
X91454819Y-116254761D01*
X91454819Y-116254761D02*
X91454819Y-116492856D01*
X91454819Y-116492856D02*
X91407200Y-116588094D01*
X91407200Y-116588094D02*
X91359580Y-116635713D01*
X98666667Y-109033200D02*
X98809524Y-109080819D01*
X98809524Y-109080819D02*
X99047619Y-109080819D01*
X99047619Y-109080819D02*
X99142857Y-109033200D01*
X99142857Y-109033200D02*
X99190476Y-108985580D01*
X99190476Y-108985580D02*
X99238095Y-108890342D01*
X99238095Y-108890342D02*
X99238095Y-108795104D01*
X99238095Y-108795104D02*
X99190476Y-108699866D01*
X99190476Y-108699866D02*
X99142857Y-108652247D01*
X99142857Y-108652247D02*
X99047619Y-108604628D01*
X99047619Y-108604628D02*
X98857143Y-108557009D01*
X98857143Y-108557009D02*
X98761905Y-108509390D01*
X98761905Y-108509390D02*
X98714286Y-108461771D01*
X98714286Y-108461771D02*
X98666667Y-108366533D01*
X98666667Y-108366533D02*
X98666667Y-108271295D01*
X98666667Y-108271295D02*
X98714286Y-108176057D01*
X98714286Y-108176057D02*
X98761905Y-108128438D01*
X98761905Y-108128438D02*
X98857143Y-108080819D01*
X98857143Y-108080819D02*
X99095238Y-108080819D01*
X99095238Y-108080819D02*
X99238095Y-108128438D01*
X99571429Y-108080819D02*
X99809524Y-109080819D01*
X99809524Y-109080819D02*
X100000000Y-108366533D01*
X100000000Y-108366533D02*
X100190476Y-109080819D01*
X100190476Y-109080819D02*
X100428572Y-108080819D01*
X101285714Y-108080819D02*
X100809524Y-108080819D01*
X100809524Y-108080819D02*
X100761905Y-108557009D01*
X100761905Y-108557009D02*
X100809524Y-108509390D01*
X100809524Y-108509390D02*
X100904762Y-108461771D01*
X100904762Y-108461771D02*
X101142857Y-108461771D01*
X101142857Y-108461771D02*
X101238095Y-108509390D01*
X101238095Y-108509390D02*
X101285714Y-108557009D01*
X101285714Y-108557009D02*
X101333333Y-108652247D01*
X101333333Y-108652247D02*
X101333333Y-108890342D01*
X101333333Y-108890342D02*
X101285714Y-108985580D01*
X101285714Y-108985580D02*
X101238095Y-109033200D01*
X101238095Y-109033200D02*
X101142857Y-109080819D01*
X101142857Y-109080819D02*
X100904762Y-109080819D01*
X100904762Y-109080819D02*
X100809524Y-109033200D01*
X100809524Y-109033200D02*
X100761905Y-108985580D01*
X88184819Y-55903333D02*
X88899104Y-55903333D01*
X88899104Y-55903333D02*
X89041961Y-55950952D01*
X89041961Y-55950952D02*
X89137200Y-56046190D01*
X89137200Y-56046190D02*
X89184819Y-56189047D01*
X89184819Y-56189047D02*
X89184819Y-56284285D01*
X89184819Y-54903333D02*
X89184819Y-55474761D01*
X89184819Y-55189047D02*
X88184819Y-55189047D01*
X88184819Y-55189047D02*
X88327676Y-55284285D01*
X88327676Y-55284285D02*
X88422914Y-55379523D01*
X88422914Y-55379523D02*
X88470533Y-55474761D01*
X112954819Y-117088094D02*
X111954819Y-117088094D01*
X111954819Y-117088094D02*
X111954819Y-116849999D01*
X111954819Y-116849999D02*
X112002438Y-116707142D01*
X112002438Y-116707142D02*
X112097676Y-116611904D01*
X112097676Y-116611904D02*
X112192914Y-116564285D01*
X112192914Y-116564285D02*
X112383390Y-116516666D01*
X112383390Y-116516666D02*
X112526247Y-116516666D01*
X112526247Y-116516666D02*
X112716723Y-116564285D01*
X112716723Y-116564285D02*
X112811961Y-116611904D01*
X112811961Y-116611904D02*
X112907200Y-116707142D01*
X112907200Y-116707142D02*
X112954819Y-116849999D01*
X112954819Y-116849999D02*
X112954819Y-117088094D01*
X112383390Y-115945237D02*
X112335771Y-116040475D01*
X112335771Y-116040475D02*
X112288152Y-116088094D01*
X112288152Y-116088094D02*
X112192914Y-116135713D01*
X112192914Y-116135713D02*
X112145295Y-116135713D01*
X112145295Y-116135713D02*
X112050057Y-116088094D01*
X112050057Y-116088094D02*
X112002438Y-116040475D01*
X112002438Y-116040475D02*
X111954819Y-115945237D01*
X111954819Y-115945237D02*
X111954819Y-115754761D01*
X111954819Y-115754761D02*
X112002438Y-115659523D01*
X112002438Y-115659523D02*
X112050057Y-115611904D01*
X112050057Y-115611904D02*
X112145295Y-115564285D01*
X112145295Y-115564285D02*
X112192914Y-115564285D01*
X112192914Y-115564285D02*
X112288152Y-115611904D01*
X112288152Y-115611904D02*
X112335771Y-115659523D01*
X112335771Y-115659523D02*
X112383390Y-115754761D01*
X112383390Y-115754761D02*
X112383390Y-115945237D01*
X112383390Y-115945237D02*
X112431009Y-116040475D01*
X112431009Y-116040475D02*
X112478628Y-116088094D01*
X112478628Y-116088094D02*
X112573866Y-116135713D01*
X112573866Y-116135713D02*
X112764342Y-116135713D01*
X112764342Y-116135713D02*
X112859580Y-116088094D01*
X112859580Y-116088094D02*
X112907200Y-116040475D01*
X112907200Y-116040475D02*
X112954819Y-115945237D01*
X112954819Y-115945237D02*
X112954819Y-115754761D01*
X112954819Y-115754761D02*
X112907200Y-115659523D01*
X112907200Y-115659523D02*
X112859580Y-115611904D01*
X112859580Y-115611904D02*
X112764342Y-115564285D01*
X112764342Y-115564285D02*
X112573866Y-115564285D01*
X112573866Y-115564285D02*
X112478628Y-115611904D01*
X112478628Y-115611904D02*
X112431009Y-115659523D01*
X112431009Y-115659523D02*
X112383390Y-115754761D01*
%TO.C,D2*%
D14*
X67000000Y-114300000D02*
X67000000Y-118310000D01*
X69000000Y-114300000D02*
X67000000Y-114300000D01*
X69000000Y-114300000D02*
X69000000Y-118310000D01*
%TO.C,SW6*%
X93015000Y-131015000D02*
X106985000Y-131015000D01*
X93015000Y-144985000D02*
X93015000Y-131015000D01*
X106985000Y-131015000D02*
X106985000Y-144985000D01*
X106985000Y-144985000D02*
X93015000Y-144985000D01*
%TO.C,D1*%
X67000000Y-93800000D02*
X67000000Y-97810000D01*
X69000000Y-93800000D02*
X67000000Y-93800000D01*
X69000000Y-93800000D02*
X69000000Y-97810000D01*
%TO.C,SW4*%
X93015000Y-88515000D02*
X106985000Y-88515000D01*
X93015000Y-102485000D02*
X93015000Y-88515000D01*
X106985000Y-88515000D02*
X106985000Y-102485000D01*
X106985000Y-102485000D02*
X93015000Y-102485000D01*
%TO.C,SW8*%
X114015000Y-109515000D02*
X127985000Y-109515000D01*
X114015000Y-123485000D02*
X114015000Y-109515000D01*
X127985000Y-109515000D02*
X127985000Y-123485000D01*
X127985000Y-123485000D02*
X114015000Y-123485000D01*
%TO.C,SW9*%
X114015000Y-131015000D02*
X127985000Y-131015000D01*
X114015000Y-144985000D02*
X114015000Y-131015000D01*
X127985000Y-131015000D02*
X127985000Y-144985000D01*
X127985000Y-144985000D02*
X114015000Y-144985000D01*
%TO.C,SW1*%
X72015000Y-88515000D02*
X85985000Y-88515000D01*
X72015000Y-102485000D02*
X72015000Y-88515000D01*
X85985000Y-88515000D02*
X85985000Y-102485000D01*
X85985000Y-102485000D02*
X72015000Y-102485000D01*
%TO.C,D9*%
X109500000Y-134990000D02*
X109500000Y-139000000D01*
X111500000Y-134990000D02*
X109500000Y-134990000D01*
X111500000Y-134990000D02*
X111500000Y-139000000D01*
%TO.C,SW3*%
X72015000Y-131095000D02*
X85985000Y-131095000D01*
X72015000Y-145065000D02*
X72015000Y-131095000D01*
X85985000Y-131095000D02*
X85985000Y-145065000D01*
X85985000Y-145065000D02*
X72015000Y-145065000D01*
%TO.C,D6*%
X88500000Y-135490000D02*
X88500000Y-139500000D01*
X90500000Y-135490000D02*
X88500000Y-135490000D01*
X90500000Y-135490000D02*
X90500000Y-139500000D01*
%TO.C,D7*%
X109500000Y-92790000D02*
X109500000Y-96800000D01*
X111500000Y-92790000D02*
X109500000Y-92790000D01*
X111500000Y-92790000D02*
X111500000Y-96800000D01*
%TO.C,D4*%
X88500000Y-93800000D02*
X88500000Y-97810000D01*
X90500000Y-93800000D02*
X88500000Y-93800000D01*
X90500000Y-93800000D02*
X90500000Y-97810000D01*
%TO.C,SW7*%
X114015000Y-88515000D02*
X127985000Y-88515000D01*
X114015000Y-102485000D02*
X114015000Y-88515000D01*
X127985000Y-88515000D02*
X127985000Y-102485000D01*
X127985000Y-102485000D02*
X114015000Y-102485000D01*
%TO.C,D3*%
X67000000Y-135650000D02*
X67000000Y-139660000D01*
X69000000Y-135650000D02*
X67000000Y-135650000D01*
X69000000Y-135650000D02*
X69000000Y-139660000D01*
%TO.C,U1*%
D15*
X48267500Y-70491272D02*
X48267500Y-62496000D01*
X48767500Y-61996000D02*
X49777500Y-61996000D01*
D16*
X49777500Y-59515000D02*
X49777500Y-73485000D01*
D15*
X49777500Y-59515000D02*
X49777500Y-73485000D01*
X49777500Y-70995000D02*
X48767228Y-70991272D01*
X68827500Y-57610000D02*
X51682500Y-57610000D01*
X68827500Y-75390000D02*
X51682500Y-75390000D01*
X70732500Y-73485000D02*
X70732500Y-59515000D01*
X48267500Y-62496000D02*
G75*
G02*
X48767500Y-61996000I500000J0D01*
G01*
X48767228Y-70991272D02*
G75*
G02*
X48267528Y-70491272I272J499972D01*
G01*
X49777500Y-59515000D02*
G75*
G02*
X51682500Y-57610000I1905000J0D01*
G01*
X51682500Y-75390000D02*
G75*
G02*
X49777500Y-73485000I0J1905000D01*
G01*
X68827500Y-57610000D02*
G75*
G02*
X70732500Y-59515000I-1J-1905001D01*
G01*
X70732500Y-73485000D02*
G75*
G02*
X68827500Y-75390000I-1905001J1D01*
G01*
D17*
X50170500Y-75404000D02*
G75*
G02*
X49666500Y-75404000I-252000J0D01*
G01*
X49666500Y-75404000D02*
G75*
G02*
X50170500Y-75404000I252000J0D01*
G01*
X51050500Y-74261000D02*
G75*
G02*
X50546500Y-74261000I-252000J0D01*
G01*
X50546500Y-74261000D02*
G75*
G02*
X51050500Y-74261000I252000J0D01*
G01*
%TO.C,SW2*%
D14*
X72015000Y-109595000D02*
X85985000Y-109595000D01*
X72015000Y-123565000D02*
X72015000Y-109595000D01*
X85985000Y-109595000D02*
X85985000Y-123565000D01*
X85985000Y-123565000D02*
X72015000Y-123565000D01*
%TO.C,D5*%
X88500000Y-114490000D02*
X88500000Y-118500000D01*
X90500000Y-114490000D02*
X88500000Y-114490000D01*
X90500000Y-114490000D02*
X90500000Y-118500000D01*
%TO.C,SW5*%
X93015000Y-109515000D02*
X106985000Y-109515000D01*
X93015000Y-123485000D02*
X93015000Y-109515000D01*
X106985000Y-109515000D02*
X106985000Y-123485000D01*
X106985000Y-123485000D02*
X93015000Y-123485000D01*
%TO.C,J1*%
X89730000Y-56950000D02*
X89730000Y-55570000D01*
X91110000Y-56950000D02*
X89730000Y-56950000D01*
X92380000Y-54190000D02*
X110270000Y-54190000D01*
X92380000Y-56950000D02*
X92380000Y-54190000D01*
X92380000Y-56950000D02*
X110270000Y-56950000D01*
X110270000Y-56950000D02*
X110270000Y-54190000D01*
D16*
X84500000Y-53800000D02*
X115500000Y-53800000D01*
X115500000Y-83400000D01*
X84500000Y-83400000D01*
X84500000Y-53800000D01*
%TO.C,D8*%
D14*
X109500000Y-113990000D02*
X109500000Y-118000000D01*
X111500000Y-113990000D02*
X109500000Y-113990000D01*
X111500000Y-113990000D02*
X111500000Y-118000000D01*
%TD*%
M02*
