%TF.GenerationSoftware,KiCad,Pcbnew,10.0.3*%
%TF.CreationDate,2026-06-19T22:09:56-04:00*%
%TF.ProjectId,drspad,64727370-6164-42e6-9b69-6361645f7063,rev?*%
%TF.SameCoordinates,Original*%
%TF.FileFunction,Soldermask,Bot*%
%TF.FilePolarity,Negative*%
%FSLAX46Y46*%
G04 Gerber Fmt 4.6, Leading zero omitted, Abs format (unit mm)*
G04 Created by KiCad (PCBNEW 10.0.3) date 2026-06-19 22:09:56*
%MOMM*%
%LPD*%
G01*
G04 APERTURE LIST*
%ADD10C,1.700000*%
%ADD11C,4.000000*%
%ADD12C,2.200000*%
%ADD13C,2.000000*%
%ADD14C,1.524000*%
%ADD15C,3.175000*%
%ADD16R,1.700000X1.700000*%
G04 APERTURE END LIST*
D10*
%TO.C,SW6*%
X94920000Y-138000000D03*
D11*
X100000000Y-138000000D03*
D10*
X105080000Y-138000000D03*
D12*
X102540000Y-132920000D03*
X96190000Y-135460000D03*
%TD*%
D13*
%TO.C,REF\u002A\u002A*%
X146000000Y-146000000D03*
%TD*%
D10*
%TO.C,SW4*%
X94920000Y-95500000D03*
D11*
X100000000Y-95500000D03*
D10*
X105080000Y-95500000D03*
D12*
X102540000Y-90420000D03*
X96190000Y-92960000D03*
%TD*%
D10*
%TO.C,SW8*%
X115920000Y-116500000D03*
D11*
X121000000Y-116500000D03*
D10*
X126080000Y-116500000D03*
D12*
X123540000Y-111420000D03*
X117190000Y-113960000D03*
%TD*%
D13*
%TO.C,REF\u002A\u002A*%
X54000000Y-146000000D03*
%TD*%
D10*
%TO.C,SW9*%
X115920000Y-138000000D03*
D11*
X121000000Y-138000000D03*
D10*
X126080000Y-138000000D03*
D12*
X123540000Y-132920000D03*
X117190000Y-135460000D03*
%TD*%
D10*
%TO.C,SW1*%
X73920000Y-95500000D03*
D11*
X79000000Y-95500000D03*
D10*
X84080000Y-95500000D03*
D12*
X81540000Y-90420000D03*
X75190000Y-92960000D03*
%TD*%
D10*
%TO.C,SW3*%
X73920000Y-138080000D03*
D11*
X79000000Y-138080000D03*
D10*
X84080000Y-138080000D03*
D12*
X81540000Y-133000000D03*
X75190000Y-135540000D03*
%TD*%
D10*
%TO.C,SW7*%
X115920000Y-95500000D03*
D11*
X121000000Y-95500000D03*
D10*
X126080000Y-95500000D03*
D12*
X123540000Y-90420000D03*
X117190000Y-92960000D03*
%TD*%
D14*
%TO.C,U1*%
X52698500Y-74120000D03*
X55238500Y-74120000D03*
X57778500Y-74120000D03*
X60318500Y-74120000D03*
X62858500Y-74120000D03*
X65398500Y-74120000D03*
X67938500Y-74120000D03*
X67938500Y-58880000D03*
X65398500Y-58880000D03*
X62858500Y-58880000D03*
X60318500Y-58880000D03*
X57778500Y-58880000D03*
X55238500Y-58880000D03*
X52698500Y-58880000D03*
%TD*%
D10*
%TO.C,SW2*%
X73920000Y-116580000D03*
D11*
X79000000Y-116580000D03*
D10*
X84080000Y-116580000D03*
D12*
X81540000Y-111500000D03*
X75190000Y-114040000D03*
%TD*%
D13*
%TO.C,REF\u002A\u002A*%
X146000000Y-54000000D03*
%TD*%
%TO.C,REF\u002A\u002A*%
X54000000Y-54000000D03*
%TD*%
D10*
%TO.C,SW5*%
X94920000Y-116500000D03*
D11*
X100000000Y-116500000D03*
D10*
X105080000Y-116500000D03*
D12*
X102540000Y-111420000D03*
X96190000Y-113960000D03*
%TD*%
D15*
%TO.C,J1*%
X86818200Y-56790000D03*
X86818200Y-80334200D03*
X113181800Y-56790000D03*
X113181800Y-80334200D03*
D16*
X91110000Y-55570000D03*
D10*
X93650000Y-55570000D03*
X96190000Y-55570000D03*
X98730000Y-55570000D03*
X101270000Y-55570000D03*
X103810000Y-55570000D03*
X106350000Y-55570000D03*
X108890000Y-55570000D03*
%TD*%
M02*
