%TF.GenerationSoftware,KiCad,Pcbnew,10.0.3*%
%TF.CreationDate,2026-06-19T22:09:56-04:00*%
%TF.ProjectId,drspad,64727370-6164-42e6-9b69-6361645f7063,rev?*%
%TF.SameCoordinates,Original*%
%TF.FileFunction,Copper,L1,Top*%
%TF.FilePolarity,Positive*%
%FSLAX46Y46*%
G04 Gerber Fmt 4.6, Leading zero omitted, Abs format (unit mm)*
G04 Created by KiCad (PCBNEW 10.0.3) date 2026-06-19 22:09:56*
%MOMM*%
%LPD*%
G01*
G04 APERTURE LIST*
G04 Aperture macros list*
%AMRoundRect*
0 Rectangle with rounded corners*
0 $1 Rounding radius*
0 $2 $3 $4 $5 $6 $7 $8 $9 X,Y pos of 4 corners*
0 Add a 4 corners polygon primitive as box body*
4,1,4,$2,$3,$4,$5,$6,$7,$8,$9,$2,$3,0*
0 Add four circle primitives for the rounded corners*
1,1,$1+$1,$2,$3*
1,1,$1+$1,$4,$5*
1,1,$1+$1,$6,$7*
1,1,$1+$1,$8,$9*
0 Add four rect primitives between the rounded corners*
20,1,$1+$1,$2,$3,$4,$5,0*
20,1,$1+$1,$4,$5,$6,$7,0*
20,1,$1+$1,$6,$7,$8,$9,0*
20,1,$1+$1,$8,$9,$2,$3,0*%
G04 Aperture macros list end*
%TA.AperFunction,SMDPad,CuDef*%
%ADD10RoundRect,0.225000X-0.375000X0.225000X-0.375000X-0.225000X0.375000X-0.225000X0.375000X0.225000X0*%
%TD*%
%TA.AperFunction,ComponentPad*%
%ADD11C,2.200000*%
%TD*%
%TA.AperFunction,SMDPad,CuDef*%
%ADD12RoundRect,0.152400X-0.609600X1.063600X-0.609600X-1.063600X0.609600X-1.063600X0.609600X1.063600X0*%
%TD*%
%TA.AperFunction,ComponentPad*%
%ADD13C,1.524000*%
%TD*%
%TA.AperFunction,SMDPad,CuDef*%
%ADD14RoundRect,0.152400X0.609600X-1.063600X0.609600X1.063600X-0.609600X1.063600X-0.609600X-1.063600X0*%
%TD*%
%TA.AperFunction,ComponentPad*%
%ADD15C,3.175000*%
%TD*%
%TA.AperFunction,ComponentPad*%
%ADD16R,1.700000X1.700000*%
%TD*%
%TA.AperFunction,ComponentPad*%
%ADD17C,1.700000*%
%TD*%
%TA.AperFunction,ViaPad*%
%ADD18C,0.600000*%
%TD*%
%TA.AperFunction,Conductor*%
%ADD19C,0.200000*%
%TD*%
G04 APERTURE END LIST*
D10*
%TO.P,D2,1,K_1*%
%TO.N,/ROW1*%
X68000000Y-115010000D03*
%TO.P,D2,2,A_2*%
%TO.N,Net-(D2-A)*%
X68000000Y-118310000D03*
%TD*%
D11*
%TO.P,SW6,1,1_1*%
%TO.N,/COL3*%
X102540000Y-132920000D03*
%TO.P,SW6,2,2_2*%
%TO.N,Net-(D6-A)*%
X96190000Y-135460000D03*
%TD*%
D10*
%TO.P,D1,1,K_1*%
%TO.N,/ROW1*%
X68000000Y-94510000D03*
%TO.P,D1,2,A_2*%
%TO.N,Net-(D1-A)*%
X68000000Y-97810000D03*
%TD*%
D11*
%TO.P,SW4,1,1_1*%
%TO.N,/COL1*%
X102540000Y-90420000D03*
%TO.P,SW4,2,2_2*%
%TO.N,Net-(D4-A)*%
X96190000Y-92960000D03*
%TD*%
%TO.P,SW8,1,1_1*%
%TO.N,/COL2*%
X123540000Y-111420000D03*
%TO.P,SW8,2,2_2*%
%TO.N,Net-(D8-A)*%
X117190000Y-113960000D03*
%TD*%
%TO.P,SW9,1,1_1*%
%TO.N,/COL3*%
X123540000Y-132920000D03*
%TO.P,SW9,2,2_2*%
%TO.N,Net-(D9-A)*%
X117190000Y-135460000D03*
%TD*%
%TO.P,SW1,1,1_1*%
%TO.N,/COL1*%
X81540000Y-90420000D03*
%TO.P,SW1,2,2_2*%
%TO.N,Net-(D1-A)*%
X75190000Y-92960000D03*
%TD*%
D10*
%TO.P,D9,1,K_1*%
%TO.N,/ROW3*%
X110500000Y-135700000D03*
%TO.P,D9,2,A_2*%
%TO.N,Net-(D9-A)*%
X110500000Y-139000000D03*
%TD*%
D11*
%TO.P,SW3,1,1_1*%
%TO.N,/COL3*%
X81540000Y-133000000D03*
%TO.P,SW3,2,2_2*%
%TO.N,Net-(D3-A)*%
X75190000Y-135540000D03*
%TD*%
D10*
%TO.P,D6,1,K_1*%
%TO.N,/ROW2*%
X89500000Y-136200000D03*
%TO.P,D6,2,A_2*%
%TO.N,Net-(D6-A)*%
X89500000Y-139500000D03*
%TD*%
%TO.P,D7,1,K_1*%
%TO.N,/ROW3*%
X110500000Y-93500000D03*
%TO.P,D7,2,A_2*%
%TO.N,Net-(D7-A)*%
X110500000Y-96800000D03*
%TD*%
%TO.P,D4,1,K_1*%
%TO.N,/ROW2*%
X89500000Y-94510000D03*
%TO.P,D4,2,A_2*%
%TO.N,Net-(D4-A)*%
X89500000Y-97810000D03*
%TD*%
D11*
%TO.P,SW7,1,1_1*%
%TO.N,/COL1*%
X123540000Y-90420000D03*
%TO.P,SW7,2,2_2*%
%TO.N,Net-(D7-A)*%
X117190000Y-92960000D03*
%TD*%
D10*
%TO.P,D3,1,K_1*%
%TO.N,/ROW1*%
X68000000Y-136360000D03*
%TO.P,D3,2,A_2*%
%TO.N,Net-(D3-A)*%
X68000000Y-139660000D03*
%TD*%
D12*
%TO.P,U1,1,GPIO1_A0_D0_1*%
%TO.N,/ROW1*%
X52698500Y-74955000D03*
D13*
X52698500Y-74120000D03*
D12*
%TO.P,U1,2,GPIO2_A1_D1_2*%
%TO.N,/ROW2*%
X55238500Y-74955000D03*
D13*
X55238500Y-74120000D03*
D12*
%TO.P,U1,3,GPIO3_A2_D2_3*%
%TO.N,/ROW3*%
X57778500Y-74955000D03*
D13*
X57778500Y-74120000D03*
D12*
%TO.P,U1,4,GPIO4_A3_D3_4*%
%TO.N,/COL1*%
X60318500Y-74955000D03*
D13*
X60318500Y-74120000D03*
D12*
%TO.P,U1,5,GPIO5_A4_D4_SDA_5*%
%TO.N,/COL2*%
X62858500Y-74955000D03*
D13*
X62858500Y-74120000D03*
D12*
%TO.P,U1,6,GPIO6_A5_D5_SCL_6*%
%TO.N,/COL3*%
X65398500Y-74955000D03*
D13*
X65398500Y-74120000D03*
D12*
%TO.P,U1,7,GPIO43_D6_TX_7*%
%TO.N,/RES*%
X67938500Y-74955000D03*
D13*
X67938500Y-74120000D03*
%TO.P,U1,8,GPIO44_D7_RX_8*%
%TO.N,GND*%
X67938500Y-58880000D03*
D14*
X67938500Y-58045000D03*
D13*
%TO.P,U1,9,GPIO7_A8_D8_SCK_9*%
%TO.N,/SCL*%
X65398500Y-58880000D03*
D14*
X65398500Y-58045000D03*
D13*
%TO.P,U1,10,GPIO8_A9_D9_MISO_10*%
%TO.N,/DC*%
X62858500Y-58880000D03*
D14*
X62858500Y-58045000D03*
D13*
%TO.P,U1,11,GPIO9_A10_D10_MOSI_11*%
%TO.N,/SDA*%
X60318500Y-58880000D03*
D14*
X60318500Y-58045000D03*
D13*
%TO.P,U1,12,3V3_12*%
%TO.N,+3.3V*%
X57778500Y-58880000D03*
D14*
X57778500Y-58045000D03*
D13*
%TO.P,U1,13,GND_13*%
%TO.N,/CS*%
X55238500Y-58880000D03*
D14*
X55238500Y-58045000D03*
D13*
%TO.P,U1,14,VBUS_14*%
%TO.N,unconnected-(U1-VBUS-Pad14)_1*%
X52698500Y-58880000D03*
D14*
%TO.N,unconnected-(U1-VBUS-Pad14)*%
X52698500Y-58045000D03*
%TD*%
D11*
%TO.P,SW2,1,1_1*%
%TO.N,/COL2*%
X81540000Y-111500000D03*
%TO.P,SW2,2,2_2*%
%TO.N,Net-(D2-A)*%
X75190000Y-114040000D03*
%TD*%
D10*
%TO.P,D5,1,K_1*%
%TO.N,/ROW2*%
X89500000Y-115200000D03*
%TO.P,D5,2,A_2*%
%TO.N,Net-(D5-A)*%
X89500000Y-118500000D03*
%TD*%
D11*
%TO.P,SW5,1,1_1*%
%TO.N,/COL2*%
X102540000Y-111420000D03*
%TO.P,SW5,2,2_2*%
%TO.N,Net-(D5-A)*%
X96190000Y-113960000D03*
%TD*%
D15*
%TO.P,J1,*%
%TO.N,*%
X86818200Y-56790000D03*
X86818200Y-80334200D03*
X113181800Y-56790000D03*
X113181800Y-80334200D03*
D16*
%TO.P,J1,1,Pin_1_1*%
%TO.N,GND*%
X91110000Y-55570000D03*
D17*
%TO.P,J1,2,Pin_2_2*%
%TO.N,+3.3V*%
X93650000Y-55570000D03*
%TO.P,J1,3,Pin_3_3*%
%TO.N,/SCL*%
X96190000Y-55570000D03*
%TO.P,J1,4,Pin_4_4*%
%TO.N,/SDA*%
X98730000Y-55570000D03*
%TO.P,J1,5,Pin_5_5*%
%TO.N,/RES*%
X101270000Y-55570000D03*
%TO.P,J1,6,Pin_6_6*%
%TO.N,/DC*%
X103810000Y-55570000D03*
%TO.P,J1,7,Pin_7_7*%
%TO.N,/CS*%
X106350000Y-55570000D03*
%TO.P,J1,8,Pin_8_8*%
%TO.N,+3.3V*%
X108890000Y-55570000D03*
%TD*%
D10*
%TO.P,D8,1,K_1*%
%TO.N,/ROW3*%
X110500000Y-114700000D03*
%TO.P,D8,2,A_2*%
%TO.N,Net-(D8-A)*%
X110500000Y-118000000D03*
%TD*%
D18*
%TO.N,/COL3*%
X67250000Y-83750000D03*
%TO.N,/COL2*%
X64750000Y-80250000D03*
%TO.N,GND*%
X79000000Y-57000000D03*
%TO.N,/DC*%
X71500000Y-52400000D03*
%TO.N,+3.3V*%
X81000000Y-63500000D03*
%TD*%
%TO.N,/ROW1*%
D19*
X67100000Y-135460000D02*
X67100000Y-115910000D01*
X67100000Y-115910000D02*
X68000000Y-115010000D01*
X68000000Y-94510000D02*
X67000000Y-95510000D01*
X52698500Y-79208500D02*
X68000000Y-94510000D01*
X67000000Y-95510000D02*
X67000000Y-114010000D01*
X67000000Y-114010000D02*
X68000000Y-115010000D01*
X52698500Y-74120000D02*
X52698500Y-79208500D01*
X68000000Y-136360000D02*
X67100000Y-135460000D01*
%TO.N,Net-(D2-A)*%
X68000000Y-118310000D02*
X72270000Y-114040000D01*
X72270000Y-114040000D02*
X75190000Y-114040000D01*
%TO.N,/COL3*%
X67250000Y-83750000D02*
X66500000Y-83000000D01*
X66500000Y-75221500D02*
X65398500Y-74120000D01*
X66500000Y-83000000D02*
X66500000Y-75221500D01*
%TO.N,Net-(D6-A)*%
X93540000Y-135460000D02*
X96190000Y-135460000D01*
X89500000Y-139500000D02*
X93540000Y-135460000D01*
%TO.N,Net-(D1-A)*%
X68000000Y-97810000D02*
X72850000Y-92960000D01*
X72850000Y-92960000D02*
X75190000Y-92960000D01*
%TO.N,Net-(D4-A)*%
X89500000Y-97810000D02*
X94350000Y-92960000D01*
X94350000Y-92960000D02*
X96190000Y-92960000D01*
%TO.N,/COL2*%
X62858500Y-78358500D02*
X62858500Y-74120000D01*
X64750000Y-80250000D02*
X62858500Y-78358500D01*
%TO.N,Net-(D8-A)*%
X110500000Y-118000000D02*
X114540000Y-113960000D01*
X114540000Y-113960000D02*
X117190000Y-113960000D01*
%TO.N,Net-(D9-A)*%
X114040000Y-135460000D02*
X117190000Y-135460000D01*
X110500000Y-139000000D02*
X114040000Y-135460000D01*
%TO.N,/ROW3*%
X71200870Y-88620000D02*
X105620000Y-88620000D01*
X105620000Y-88620000D02*
X110500000Y-93500000D01*
X109600000Y-134800000D02*
X109600000Y-115600000D01*
X109000000Y-113200000D02*
X110500000Y-114700000D01*
X109600000Y-115600000D02*
X110500000Y-114700000D01*
X109000000Y-95000000D02*
X109000000Y-113200000D01*
X57778500Y-75197630D02*
X71200870Y-88620000D01*
X57778500Y-74120000D02*
X57778500Y-75197630D01*
X110500000Y-93500000D02*
X109000000Y-95000000D01*
X110500000Y-135700000D02*
X109600000Y-134800000D01*
%TO.N,Net-(D3-A)*%
X68000000Y-139660000D02*
X72120000Y-135540000D01*
X72120000Y-135540000D02*
X75190000Y-135540000D01*
%TO.N,/ROW2*%
X88600000Y-116100000D02*
X88600000Y-135300000D01*
X89500000Y-94510000D02*
X88600000Y-95410000D01*
X88600000Y-135300000D02*
X89500000Y-136200000D01*
X88600000Y-114300000D02*
X89500000Y-115200000D01*
X88600000Y-95410000D02*
X88600000Y-114300000D01*
X55238500Y-75197630D02*
X69060870Y-89020000D01*
X69060870Y-89020000D02*
X84010000Y-89020000D01*
X84010000Y-89020000D02*
X89500000Y-94510000D01*
X89500000Y-115200000D02*
X88600000Y-116100000D01*
X55238500Y-74120000D02*
X55238500Y-75197630D01*
%TO.N,Net-(D7-A)*%
X114340000Y-92960000D02*
X117190000Y-92960000D01*
X110500000Y-96800000D02*
X114340000Y-92960000D01*
%TO.N,/RES*%
X101270000Y-55570000D02*
X101270000Y-55730000D01*
X101270000Y-55730000D02*
X95000000Y-62000000D01*
X80058500Y-62000000D02*
X67938500Y-74120000D01*
X95000000Y-62000000D02*
X80058500Y-62000000D01*
%TO.N,GND*%
X79000000Y-57000000D02*
X77120000Y-58880000D01*
X77120000Y-58880000D02*
X67938500Y-58880000D01*
%TO.N,/SCL*%
X95040000Y-54420000D02*
X68780870Y-54420000D01*
X96190000Y-55570000D02*
X95040000Y-54420000D01*
X68780870Y-54420000D02*
X65398500Y-57802370D01*
X65398500Y-57802370D02*
X65398500Y-58880000D01*
%TO.N,/DC*%
X103810000Y-55570000D02*
X100640000Y-52400000D01*
X100640000Y-52400000D02*
X71500000Y-52400000D01*
%TO.N,/SDA*%
X60318500Y-57802370D02*
X60318500Y-58880000D01*
X98730000Y-55570000D02*
X96160000Y-53000000D01*
X65120870Y-53000000D02*
X60318500Y-57802370D01*
X96160000Y-53000000D02*
X65120870Y-53000000D01*
%TO.N,+3.3V*%
X58840500Y-59942000D02*
X57778500Y-58880000D01*
X108890000Y-55570000D02*
X100960000Y-63500000D01*
X89278000Y-59942000D02*
X58840500Y-59942000D01*
X93650000Y-55570000D02*
X89278000Y-59942000D01*
X100960000Y-63500000D02*
X81000000Y-63500000D01*
%TO.N,/CS*%
X102280000Y-51500000D02*
X61540870Y-51500000D01*
X106350000Y-55570000D02*
X102280000Y-51500000D01*
X61540870Y-51500000D02*
X55238500Y-57802370D01*
X55238500Y-57802370D02*
X55238500Y-58880000D01*
%TO.N,Net-(D5-A)*%
X89500000Y-118500000D02*
X94040000Y-113960000D01*
X94040000Y-113960000D02*
X96190000Y-113960000D01*
%TD*%
%TA.AperFunction,Conductor*%
%TO.N,GND*%
G36*
X85402498Y-55040185D02*
G01*
X85448253Y-55092989D01*
X85458197Y-55162147D01*
X85429172Y-55225703D01*
X85423140Y-55232181D01*
X85244994Y-55410326D01*
X85244988Y-55410333D01*
X85078365Y-55627480D01*
X84941513Y-55864516D01*
X84941509Y-55864526D01*
X84836768Y-56117393D01*
X84765925Y-56381780D01*
X84730201Y-56653134D01*
X84730200Y-56653151D01*
X84730200Y-56926848D01*
X84730201Y-56926865D01*
X84765925Y-57198219D01*
X84836768Y-57462606D01*
X84941509Y-57715473D01*
X84941513Y-57715483D01*
X85078365Y-57952519D01*
X85244988Y-58169666D01*
X85244994Y-58169673D01*
X85438526Y-58363205D01*
X85438533Y-58363211D01*
X85655680Y-58529834D01*
X85892716Y-58666686D01*
X85892717Y-58666686D01*
X85892720Y-58666688D01*
X86145594Y-58771432D01*
X86409977Y-58842274D01*
X86681345Y-58878000D01*
X86681352Y-58878000D01*
X86955048Y-58878000D01*
X86955055Y-58878000D01*
X87226423Y-58842274D01*
X87490806Y-58771432D01*
X87743680Y-58666688D01*
X87980720Y-58529834D01*
X88197868Y-58363210D01*
X88391410Y-58169668D01*
X88558034Y-57952520D01*
X88694888Y-57715480D01*
X88799632Y-57462606D01*
X88870474Y-57198223D01*
X88906200Y-56926855D01*
X88906200Y-56653145D01*
X88870474Y-56381777D01*
X88799632Y-56117394D01*
X88694888Y-55864520D01*
X88558034Y-55627480D01*
X88558033Y-55627478D01*
X88391411Y-55410333D01*
X88391405Y-55410326D01*
X88213260Y-55232181D01*
X88179775Y-55170858D01*
X88184759Y-55101166D01*
X88226631Y-55045233D01*
X88292095Y-55020816D01*
X88300941Y-55020500D01*
X89636000Y-55020500D01*
X89703039Y-55040185D01*
X89748794Y-55092989D01*
X89760000Y-55144500D01*
X89760000Y-55320000D01*
X90676988Y-55320000D01*
X90644075Y-55377007D01*
X90610000Y-55504174D01*
X90610000Y-55635826D01*
X90644075Y-55762993D01*
X90676988Y-55820000D01*
X89760000Y-55820000D01*
X89760000Y-56467844D01*
X89766401Y-56527372D01*
X89766403Y-56527379D01*
X89816645Y-56662086D01*
X89816649Y-56662093D01*
X89902809Y-56777187D01*
X89902812Y-56777190D01*
X90017906Y-56863350D01*
X90017913Y-56863354D01*
X90152620Y-56913596D01*
X90152627Y-56913598D01*
X90212155Y-56919999D01*
X90212172Y-56920000D01*
X90860000Y-56920000D01*
X90860000Y-56003012D01*
X90917007Y-56035925D01*
X91044174Y-56070000D01*
X91175826Y-56070000D01*
X91302993Y-56035925D01*
X91360000Y-56003012D01*
X91360000Y-56959402D01*
X91340315Y-57026441D01*
X91323681Y-57047083D01*
X89065584Y-59305181D01*
X89004261Y-59338666D01*
X88977903Y-59341500D01*
X69321498Y-59341500D01*
X69254459Y-59321815D01*
X69208704Y-59269011D01*
X69197880Y-59207771D01*
X69200499Y-59174486D01*
X69200499Y-57136553D01*
X69200498Y-57136552D01*
X68150181Y-58186871D01*
X68088858Y-58220356D01*
X68019166Y-58215372D01*
X67963233Y-58173500D01*
X67938816Y-58108036D01*
X67938500Y-58099190D01*
X67938500Y-57742808D01*
X67958185Y-57675769D01*
X67974819Y-57655127D01*
X69059639Y-56570307D01*
X68951139Y-56461807D01*
X68951134Y-56461803D01*
X68809256Y-56377897D01*
X68809253Y-56377896D01*
X68650973Y-56331911D01*
X68650967Y-56331910D01*
X68613988Y-56329000D01*
X68020466Y-56329000D01*
X67953427Y-56309315D01*
X67907672Y-56256511D01*
X67897728Y-56187353D01*
X67926753Y-56123797D01*
X67932764Y-56117341D01*
X68993287Y-55056819D01*
X69054610Y-55023334D01*
X69080968Y-55020500D01*
X85335459Y-55020500D01*
X85402498Y-55040185D01*
G37*
%TD.AperFunction*%
%TD*%
M02*
