M48
; DRILL file KiCad 10.0.3 date 2026-06-19T22:09:58
; FORMAT={-:-/ absolute / metric / decimal}
; #@! TF.CreationDate,2026-06-19T22:09:58-04:00
; #@! TF.GenerationSoftware,Kicad,Pcbnew,10.0.3
; #@! TF.FileFunction,Plated,1,2,PTH
FMAT,2
METRIC
; #@! TA.AperFunction,Plated,PTH,ViaDrill
T1C0.300
; #@! TA.AperFunction,Plated,PTH,ComponentDrill
T2C0.889
; #@! TA.AperFunction,Plated,PTH,ComponentDrill
T3C1.000
; #@! TA.AperFunction,Plated,PTH,ComponentDrill
T4C1.500
; #@! TA.AperFunction,Plated,PTH,ComponentDrill
T5C2.134
%
G90
G05
T1
X64.75Y-80.25
X67.25Y-83.75
X71.5Y-52.4
X79.0Y-57.0
X81.0Y-63.5
T2
X52.698Y-58.88
X52.698Y-74.12
X55.238Y-58.88
X55.238Y-74.12
X57.778Y-58.88
X57.778Y-74.12
X60.319Y-58.88
X60.319Y-74.12
X62.858Y-58.88
X62.858Y-74.12
X65.398Y-58.88
X65.398Y-74.12
X67.938Y-58.88
X67.938Y-74.12
T3
X91.11Y-55.57
X93.65Y-55.57
X96.19Y-55.57
X98.73Y-55.57
X101.27Y-55.57
X103.81Y-55.57
X106.35Y-55.57
X108.89Y-55.57
T4
X75.19Y-92.96
X75.19Y-114.04
X75.19Y-135.54
X81.54Y-90.42
X81.54Y-111.5
X81.54Y-133.0
X96.19Y-92.96
X96.19Y-113.96
X96.19Y-135.46
X102.54Y-90.42
X102.54Y-111.42
X102.54Y-132.92
X117.19Y-92.96
X117.19Y-113.96
X117.19Y-135.46
X123.54Y-90.42
X123.54Y-111.42
X123.54Y-132.92
T5
X86.818Y-56.79
X86.818Y-80.334
X113.182Y-56.79
X113.182Y-80.334
M30
